<?xml version="1.0" encoding="utf-8" standalone="no"?>
<!DOCTYPE svg PUBLIC "-//W3C//DTD SVG 1.1//EN"
  "http://www.w3.org/Graphics/SVG/1.1/DTD/svg11.dtd">
<svg xmlns:xlink="http://www.w3.org/1999/xlink" width="720pt" height="720pt" viewBox="0 0 720 720" xmlns="http://www.w3.org/2000/svg" version="1.1">
 <metadata>
  <rdf:RDF xmlns:dc="http://purl.org/dc/elements/1.1/" xmlns:cc="http://creativecommons.org/ns#" xmlns:rdf="http://www.w3.org/1999/02/22-rdf-syntax-ns#">
   <cc:Work>
    <dc:type rdf:resource="http://purl.org/dc/dcmitype/StillImage"/>
    <dc:date>2022-05-07T12:20:38.071953</dc:date>
    <dc:format>image/svg+xml</dc:format>
    <dc:creator>
     <cc:Agent>
      <dc:title>Matplotlib v3.5.2, https://matplotlib.org/</dc:title>
     </cc:Agent>
    </dc:creator>
   </cc:Work>
  </rdf:RDF>
 </metadata>
 <defs>
  <style type="text/css">*{stroke-linejoin: round; stroke-linecap: butt}</style>
 </defs>
 <g id="figure_1">
  <g id="patch_1">
   <path d="M 0 720 
L 720 720 
L 720 0 
L 0 0 
z
" style="fill: #ffffff"/>
  </g>
  <g id="axes_1">
   <g id="patch_2">
    <path d="M 90 640.8 
L 648 640.8 
L 648 86.4 
L 90 86.4 
z
" style="fill: #ffffff"/>
   </g>
   <g id="patch_3">
    <path d="M 103.350586 640.8 
L 104.830846 640.8 
L 104.830846 635.311435 
L 103.350586 635.311435 
z
" clip-path="url(#p09b91b773c)" style="fill: #1f77b4"/>
   </g>
   <g id="patch_4">
    <path d="M 104.830846 640.8 
L 106.311107 640.8 
L 106.311107 640.360915 
L 104.830846 640.360915 
z
" clip-path="url(#p09b91b773c)" style="fill: #1f77b4"/>
   </g>
   <g id="patch_5">
    <path d="M 106.311107 640.8 
L 107.791367 640.8 
L 107.791367 640.8 
L 106.311107 640.8 
z
" clip-path="url(#p09b91b773c)" style="fill: #1f77b4"/>
   </g>
   <g id="patch_6">
    <path d="M 107.791367 640.8 
L 109.271627 640.8 
L 109.271627 640.8 
L 107.791367 640.8 
z
" clip-path="url(#p09b91b773c)" style="fill: #1f77b4"/>
   </g>
   <g id="patch_7">
    <path d="M 109.271627 640.8 
L 110.751888 640.8 
L 110.751888 631.359667 
L 109.271627 631.359667 
z
" clip-path="url(#p09b91b773c)" style="fill: #1f77b4"/>
   </g>
   <g id="patch_8">
    <path d="M 110.751888 640.8 
L 112.232148 640.8 
L 112.232148 592.939709 
L 110.751888 592.939709 
z
" clip-path="url(#p09b91b773c)" style="fill: #1f77b4"/>
   </g>
   <g id="patch_9">
    <path d="M 112.232148 640.8 
L 113.712408 640.8 
L 113.712408 632.45738 
L 112.232148 632.45738 
z
" clip-path="url(#p09b91b773c)" style="fill: #1f77b4"/>
   </g>
   <g id="patch_10">
    <path d="M 113.712408 640.8 
L 115.192669 640.8 
L 115.192669 640.580457 
L 113.712408 640.580457 
z
" clip-path="url(#p09b91b773c)" style="fill: #1f77b4"/>
   </g>
   <g id="patch_11">
    <path d="M 115.192669 640.8 
L 116.672929 640.8 
L 116.672929 640.8 
L 115.192669 640.8 
z
" clip-path="url(#p09b91b773c)" style="fill: #1f77b4"/>
   </g>
   <g id="patch_12">
    <path d="M 116.672929 640.8 
L 118.153189 640.8 
L 118.153189 593.598337 
L 116.672929 593.598337 
z
" clip-path="url(#p09b91b773c)" style="fill: #1f77b4"/>
   </g>
   <g id="patch_13">
    <path d="M 118.153189 640.8 
L 119.63345 640.8 
L 119.63345 478.558004 
L 118.153189 478.558004 
z
" clip-path="url(#p09b91b773c)" style="fill: #1f77b4"/>
   </g>
   <g id="patch_14">
    <path d="M 119.63345 640.8 
L 121.11371 640.8 
L 121.11371 600.404158 
L 119.63345 600.404158 
z
" clip-path="url(#p09b91b773c)" style="fill: #1f77b4"/>
   </g>
   <g id="patch_15">
    <path d="M 121.11371 640.8 
L 122.59397 640.8 
L 122.59397 640.580457 
L 121.11371 640.580457 
z
" clip-path="url(#p09b91b773c)" style="fill: #1f77b4"/>
   </g>
   <g id="patch_16">
    <path d="M 122.59397 640.8 
L 124.074231 640.8 
L 124.074231 637.945946 
L 122.59397 637.945946 
z
" clip-path="url(#p09b91b773c)" style="fill: #1f77b4"/>
   </g>
   <g id="patch_17">
    <path d="M 124.074231 640.8 
L 125.554491 640.8 
L 125.554491 543.981705 
L 124.074231 543.981705 
z
" clip-path="url(#p09b91b773c)" style="fill: #1f77b4"/>
   </g>
   <g id="patch_18">
    <path d="M 125.554491 640.8 
L 127.034751 640.8 
L 127.034751 360.00499 
L 125.554491 360.00499 
z
" clip-path="url(#p09b91b773c)" style="fill: #1f77b4"/>
   </g>
   <g id="patch_19">
    <path d="M 127.034751 640.8 
L 128.515012 640.8 
L 128.515012 537.834511 
L 127.034751 537.834511 
z
" clip-path="url(#p09b91b773c)" style="fill: #1f77b4"/>
   </g>
   <g id="patch_20">
    <path d="M 128.515012 640.8 
L 129.995272 640.8 
L 129.995272 638.604574 
L 128.515012 638.604574 
z
" clip-path="url(#p09b91b773c)" style="fill: #1f77b4"/>
   </g>
   <g id="patch_21">
    <path d="M 129.995272 640.8 
L 131.475532 640.8 
L 131.475532 626.749272 
L 129.995272 626.749272 
z
" clip-path="url(#p09b91b773c)" style="fill: #1f77b4"/>
   </g>
   <g id="patch_22">
    <path d="M 131.475532 640.8 
L 132.955793 640.8 
L 132.955793 415.988358 
L 131.475532 415.988358 
z
" clip-path="url(#p09b91b773c)" style="fill: #1f77b4"/>
   </g>
   <g id="patch_23">
    <path d="M 132.955793 640.8 
L 134.436053 640.8 
L 134.436053 226.962162 
L 132.955793 226.962162 
z
" clip-path="url(#p09b91b773c)" style="fill: #1f77b4"/>
   </g>
   <g id="patch_24">
    <path d="M 134.436053 640.8 
L 135.916313 640.8 
L 135.916313 504.244491 
L 134.436053 504.244491 
z
" clip-path="url(#p09b91b773c)" style="fill: #1f77b4"/>
   </g>
   <g id="patch_25">
    <path d="M 135.916313 640.8 
L 137.396574 640.8 
L 137.396574 635.530977 
L 135.916313 635.530977 
z
" clip-path="url(#p09b91b773c)" style="fill: #1f77b4"/>
   </g>
   <g id="patch_26">
    <path d="M 137.396574 640.8 
L 138.876834 640.8 
L 138.876834 603.477755 
L 137.396574 603.477755 
z
" clip-path="url(#p09b91b773c)" style="fill: #1f77b4"/>
   </g>
   <g id="patch_27">
    <path d="M 138.876834 640.8 
L 140.357094 640.8 
L 140.357094 314.120582 
L 138.876834 314.120582 
z
" clip-path="url(#p09b91b773c)" style="fill: #1f77b4"/>
   </g>
   <g id="patch_28">
    <path d="M 140.357094 640.8 
L 141.837355 640.8 
L 141.837355 112.8 
L 140.357094 112.8 
z
" clip-path="url(#p09b91b773c)" style="fill: #1f77b4"/>
   </g>
   <g id="patch_29">
    <path d="M 141.837355 640.8 
L 143.317615 640.8 
L 143.317615 464.507277 
L 141.837355 464.507277 
z
" clip-path="url(#p09b91b773c)" style="fill: #1f77b4"/>
   </g>
   <g id="patch_30">
    <path d="M 143.317615 640.8 
L 144.797875 640.8 
L 144.797875 635.311435 
L 143.317615 635.311435 
z
" clip-path="url(#p09b91b773c)" style="fill: #1f77b4"/>
   </g>
   <g id="patch_31">
    <path d="M 144.797875 640.8 
L 146.278136 640.8 
L 146.278136 585.694802 
L 144.797875 585.694802 
z
" clip-path="url(#p09b91b773c)" style="fill: #1f77b4"/>
   </g>
   <g id="patch_32">
    <path d="M 146.278136 640.8 
L 147.758396 640.8 
L 147.758396 311.925156 
L 146.278136 311.925156 
z
" clip-path="url(#p09b91b773c)" style="fill: #1f77b4"/>
   </g>
   <g id="patch_33">
    <path d="M 147.758396 640.8 
L 149.238656 640.8 
L 149.238656 145.292308 
L 147.758396 145.292308 
z
" clip-path="url(#p09b91b773c)" style="fill: #1f77b4"/>
   </g>
   <g id="patch_34">
    <path d="M 149.238656 640.8 
L 150.718917 640.8 
L 150.718917 460.555509 
L 149.238656 460.555509 
z
" clip-path="url(#p09b91b773c)" style="fill: #1f77b4"/>
   </g>
   <g id="patch_35">
    <path d="M 150.718917 640.8 
L 152.199177 640.8 
L 152.199177 632.237838 
L 150.718917 632.237838 
z
" clip-path="url(#p09b91b773c)" style="fill: #1f77b4"/>
   </g>
   <g id="patch_36">
    <path d="M 152.199177 640.8 
L 153.679437 640.8 
L 153.679437 584.377547 
L 152.199177 584.377547 
z
" clip-path="url(#p09b91b773c)" style="fill: #1f77b4"/>
   </g>
   <g id="patch_37">
    <path d="M 153.679437 640.8 
L 155.159698 640.8 
L 155.159698 335.416216 
L 153.679437 335.416216 
z
" clip-path="url(#p09b91b773c)" style="fill: #1f77b4"/>
   </g>
   <g id="patch_38">
    <path d="M 155.159698 640.8 
L 156.639958 640.8 
L 156.639958 205.886071 
L 155.159698 205.886071 
z
" clip-path="url(#p09b91b773c)" style="fill: #1f77b4"/>
   </g>
   <g id="patch_39">
    <path d="M 156.639958 640.8 
L 158.120218 640.8 
L 158.120218 473.288981 
L 156.639958 473.288981 
z
" clip-path="url(#p09b91b773c)" style="fill: #1f77b4"/>
   </g>
   <g id="patch_40">
    <path d="M 158.120218 640.8 
L 159.600479 640.8 
L 159.600479 628.066528 
L 158.120218 628.066528 
z
" clip-path="url(#p09b91b773c)" style="fill: #1f77b4"/>
   </g>
   <g id="patch_41">
    <path d="M 159.600479 640.8 
L 161.080739 640.8 
L 161.080739 586.572973 
L 159.600479 586.572973 
z
" clip-path="url(#p09b91b773c)" style="fill: #1f77b4"/>
   </g>
   <g id="patch_42">
    <path d="M 161.080739 640.8 
L 162.560999 640.8 
L 162.560999 374.714345 
L 161.080739 374.714345 
z
" clip-path="url(#p09b91b773c)" style="fill: #1f77b4"/>
   </g>
   <g id="patch_43">
    <path d="M 162.560999 640.8 
L 164.04126 640.8 
L 164.04126 313.022869 
L 162.560999 313.022869 
z
" clip-path="url(#p09b91b773c)" style="fill: #1f77b4"/>
   </g>
   <g id="patch_44">
    <path d="M 164.04126 640.8 
L 165.52152 640.8 
L 165.52152 485.802911 
L 164.04126 485.802911 
z
" clip-path="url(#p09b91b773c)" style="fill: #1f77b4"/>
   </g>
   <g id="patch_45">
    <path d="M 165.52152 640.8 
L 167.00178 640.8 
L 167.00178 630.042412 
L 165.52152 630.042412 
z
" clip-path="url(#p09b91b773c)" style="fill: #1f77b4"/>
   </g>
   <g id="patch_46">
    <path d="M 167.00178 640.8 
L 168.482041 640.8 
L 168.482041 599.525988 
L 167.00178 599.525988 
z
" clip-path="url(#p09b91b773c)" style="fill: #1f77b4"/>
   </g>
   <g id="patch_47">
    <path d="M 168.482041 640.8 
L 169.962301 640.8 
L 169.962301 468.239501 
L 168.482041 468.239501 
z
" clip-path="url(#p09b91b773c)" style="fill: #1f77b4"/>
   </g>
   <g id="patch_48">
    <path d="M 169.962301 640.8 
L 171.442561 640.8 
L 171.442561 401.93763 
L 169.962301 401.93763 
z
" clip-path="url(#p09b91b773c)" style="fill: #1f77b4"/>
   </g>
   <g id="patch_49">
    <path d="M 171.442561 640.8 
L 172.922822 640.8 
L 172.922822 529.930977 
L 171.442561 529.930977 
z
" clip-path="url(#p09b91b773c)" style="fill: #1f77b4"/>
   </g>
   <g id="patch_50">
    <path d="M 172.922822 640.8 
L 174.403082 640.8 
L 174.403082 630.70104 
L 172.922822 630.70104 
z
" clip-path="url(#p09b91b773c)" style="fill: #1f77b4"/>
   </g>
   <g id="patch_51">
    <path d="M 174.403082 640.8 
L 175.883342 640.8 
L 175.883342 615.772141 
L 174.403082 615.772141 
z
" clip-path="url(#p09b91b773c)" style="fill: #1f77b4"/>
   </g>
   <g id="patch_52">
    <path d="M 175.883342 640.8 
L 177.363603 640.8 
L 177.363603 522.905613 
L 175.883342 522.905613 
z
" clip-path="url(#p09b91b773c)" style="fill: #1f77b4"/>
   </g>
   <g id="patch_53">
    <path d="M 177.363603 640.8 
L 178.843863 640.8 
L 178.843863 489.09605 
L 177.363603 489.09605 
z
" clip-path="url(#p09b91b773c)" style="fill: #1f77b4"/>
   </g>
   <g id="patch_54">
    <path d="M 178.843863 640.8 
L 180.324123 640.8 
L 180.324123 566.814137 
L 178.843863 566.814137 
z
" clip-path="url(#p09b91b773c)" style="fill: #1f77b4"/>
   </g>
   <g id="patch_55">
    <path d="M 180.324123 640.8 
L 181.804384 640.8 
L 181.804384 633.335551 
L 180.324123 633.335551 
z
" clip-path="url(#p09b91b773c)" style="fill: #1f77b4"/>
   </g>
   <g id="patch_56">
    <path d="M 181.804384 640.8 
L 183.284644 640.8 
L 183.284644 629.603326 
L 181.804384 629.603326 
z
" clip-path="url(#p09b91b773c)" style="fill: #1f77b4"/>
   </g>
   <g id="patch_57">
    <path d="M 183.284644 640.8 
L 184.764904 640.8 
L 184.764904 578.669439 
L 183.284644 578.669439 
z
" clip-path="url(#p09b91b773c)" style="fill: #1f77b4"/>
   </g>
   <g id="patch_58">
    <path d="M 184.764904 640.8 
L 186.245165 640.8 
L 186.245165 548.811642 
L 184.764904 548.811642 
z
" clip-path="url(#p09b91b773c)" style="fill: #1f77b4"/>
   </g>
   <g id="patch_59">
    <path d="M 186.245165 640.8 
L 187.725425 640.8 
L 187.725425 593.159252 
L 186.245165 593.159252 
z
" clip-path="url(#p09b91b773c)" style="fill: #1f77b4"/>
   </g>
   <g id="patch_60">
    <path d="M 187.725425 640.8 
L 189.205685 640.8 
L 189.205685 633.774636 
L 187.725425 633.774636 
z
" clip-path="url(#p09b91b773c)" style="fill: #1f77b4"/>
   </g>
   <g id="patch_61">
    <path d="M 189.205685 640.8 
L 190.685946 640.8 
L 190.685946 633.555094 
L 189.205685 633.555094 
z
" clip-path="url(#p09b91b773c)" style="fill: #1f77b4"/>
   </g>
   <g id="patch_62">
    <path d="M 190.685946 640.8 
L 192.166206 640.8 
L 192.166206 613.796258 
L 190.685946 613.796258 
z
" clip-path="url(#p09b91b773c)" style="fill: #1f77b4"/>
   </g>
   <g id="patch_63">
    <path d="M 192.166206 640.8 
L 193.646467 640.8 
L 193.646467 602.380042 
L 192.166206 602.380042 
z
" clip-path="url(#p09b91b773c)" style="fill: #1f77b4"/>
   </g>
   <g id="patch_64">
    <path d="M 193.646467 640.8 
L 195.126727 640.8 
L 195.126727 620.162994 
L 193.646467 620.162994 
z
" clip-path="url(#p09b91b773c)" style="fill: #1f77b4"/>
   </g>
   <g id="patch_65">
    <path d="M 195.126727 640.8 
L 196.606987 640.8 
L 196.606987 638.604574 
L 195.126727 638.604574 
z
" clip-path="url(#p09b91b773c)" style="fill: #1f77b4"/>
   </g>
   <g id="patch_66">
    <path d="M 196.606987 640.8 
L 198.087248 640.8 
L 198.087248 639.702287 
L 196.606987 639.702287 
z
" clip-path="url(#p09b91b773c)" style="fill: #1f77b4"/>
   </g>
   <g id="patch_67">
    <path d="M 198.087248 640.8 
L 199.567508 640.8 
L 199.567508 628.505613 
L 198.087248 628.505613 
z
" clip-path="url(#p09b91b773c)" style="fill: #1f77b4"/>
   </g>
   <g id="patch_68">
    <path d="M 199.567508 640.8 
L 201.047768 640.8 
L 201.047768 621.041164 
L 199.567508 621.041164 
z
" clip-path="url(#p09b91b773c)" style="fill: #1f77b4"/>
   </g>
   <g id="patch_69">
    <path d="M 201.047768 640.8 
L 202.528029 640.8 
L 202.528029 630.481497 
L 201.047768 630.481497 
z
" clip-path="url(#p09b91b773c)" style="fill: #1f77b4"/>
   </g>
   <g id="patch_70">
    <path d="M 202.528029 640.8 
L 204.008289 640.8 
L 204.008289 639.92183 
L 202.528029 639.92183 
z
" clip-path="url(#p09b91b773c)" style="fill: #1f77b4"/>
   </g>
   <g id="patch_71">
    <path d="M 204.008289 640.8 
L 205.488549 640.8 
L 205.488549 639.92183 
L 204.008289 639.92183 
z
" clip-path="url(#p09b91b773c)" style="fill: #1f77b4"/>
   </g>
   <g id="patch_72">
    <path d="M 205.488549 640.8 
L 206.96881 640.8 
L 206.96881 637.287318 
L 205.488549 637.287318 
z
" clip-path="url(#p09b91b773c)" style="fill: #1f77b4"/>
   </g>
   <g id="patch_73">
    <path d="M 206.96881 640.8 
L 208.44907 640.8 
L 208.44907 637.067775 
L 206.96881 637.067775 
z
" clip-path="url(#p09b91b773c)" style="fill: #1f77b4"/>
   </g>
   <g id="patch_74">
    <path d="M 208.44907 640.8 
L 209.92933 640.8 
L 209.92933 639.263202 
L 208.44907 639.263202 
z
" clip-path="url(#p09b91b773c)" style="fill: #1f77b4"/>
   </g>
   <g id="patch_75">
    <path d="M 209.92933 640.8 
L 211.409591 640.8 
L 211.409591 640.360915 
L 209.92933 640.360915 
z
" clip-path="url(#p09b91b773c)" style="fill: #1f77b4"/>
   </g>
   <g id="patch_76">
    <path d="M 211.409591 640.8 
L 212.889851 640.8 
L 212.889851 640.8 
L 211.409591 640.8 
z
" clip-path="url(#p09b91b773c)" style="fill: #1f77b4"/>
   </g>
   <g id="patch_77">
    <path d="M 212.889851 640.8 
L 214.370111 640.8 
L 214.370111 639.482744 
L 212.889851 639.482744 
z
" clip-path="url(#p09b91b773c)" style="fill: #1f77b4"/>
   </g>
   <g id="patch_78">
    <path d="M 214.370111 640.8 
L 215.850372 640.8 
L 215.850372 639.263202 
L 214.370111 639.263202 
z
" clip-path="url(#p09b91b773c)" style="fill: #1f77b4"/>
   </g>
   <g id="patch_79">
    <path d="M 215.850372 640.8 
L 217.330632 640.8 
L 217.330632 639.92183 
L 215.850372 639.92183 
z
" clip-path="url(#p09b91b773c)" style="fill: #1f77b4"/>
   </g>
   <g id="patch_80">
    <path d="M 217.330632 640.8 
L 218.810892 640.8 
L 218.810892 640.8 
L 217.330632 640.8 
z
" clip-path="url(#p09b91b773c)" style="fill: #1f77b4"/>
   </g>
   <g id="patch_81">
    <path d="M 218.810892 640.8 
L 220.291153 640.8 
L 220.291153 640.8 
L 218.810892 640.8 
z
" clip-path="url(#p09b91b773c)" style="fill: #1f77b4"/>
   </g>
   <g id="patch_82">
    <path d="M 220.291153 640.8 
L 221.771413 640.8 
L 221.771413 640.580457 
L 220.291153 640.580457 
z
" clip-path="url(#p09b91b773c)" style="fill: #1f77b4"/>
   </g>
   <g id="patch_83">
    <path d="M 221.771413 640.8 
L 223.251673 640.8 
L 223.251673 640.8 
L 221.771413 640.8 
z
" clip-path="url(#p09b91b773c)" style="fill: #1f77b4"/>
   </g>
   <g id="patch_84">
    <path d="M 223.251673 640.8 
L 224.731934 640.8 
L 224.731934 640.580457 
L 223.251673 640.580457 
z
" clip-path="url(#p09b91b773c)" style="fill: #1f77b4"/>
   </g>
   <g id="matplotlib.axis_1">
    <g id="xtick_1">
     <g id="line2d_1">
      <defs>
       <path id="m64d2cdeaed" d="M 0 0 
L 0 3.5 
" style="stroke: #000000; stroke-width: 0.8"/>
      </defs>
      <g>
       <use xlink:href="#m64d2cdeaed" x="158.047119" y="640.8" style="stroke: #000000; stroke-width: 0.8"/>
      </g>
     </g>
     <g id="text_1">
      <!-- 1000 -->
      <g transform="translate(145.322119 655.398438)scale(0.1 -0.1)">
       <defs>
        <path id="DejaVuSans-31" d="M 794 531 
L 1825 531 
L 1825 4091 
L 703 3866 
L 703 4441 
L 1819 4666 
L 2450 4666 
L 2450 531 
L 3481 531 
L 3481 0 
L 794 0 
L 794 531 
z
" transform="scale(0.015625)"/>
        <path id="DejaVuSans-30" d="M 2034 4250 
Q 1547 4250 1301 3770 
Q 1056 3291 1056 2328 
Q 1056 1369 1301 889 
Q 1547 409 2034 409 
Q 2525 409 2770 889 
Q 3016 1369 3016 2328 
Q 3016 3291 2770 3770 
Q 2525 4250 2034 4250 
z
M 2034 4750 
Q 2819 4750 3233 4129 
Q 3647 3509 3647 2328 
Q 3647 1150 3233 529 
Q 2819 -91 2034 -91 
Q 1250 -91 836 529 
Q 422 1150 422 2328 
Q 422 3509 836 4129 
Q 1250 4750 2034 4750 
z
" transform="scale(0.015625)"/>
       </defs>
       <use xlink:href="#DejaVuSans-31"/>
       <use xlink:href="#DejaVuSans-30" x="63.623047"/>
       <use xlink:href="#DejaVuSans-30" x="127.246094"/>
       <use xlink:href="#DejaVuSans-30" x="190.869141"/>
      </g>
     </g>
    </g>
    <g id="xtick_2">
     <g id="line2d_2">
      <g>
       <use xlink:href="#m64d2cdeaed" x="226.162354" y="640.8" style="stroke: #000000; stroke-width: 0.8"/>
      </g>
     </g>
     <g id="text_2">
      <!-- 2000 -->
      <g transform="translate(213.437354 655.398438)scale(0.1 -0.1)">
       <defs>
        <path id="DejaVuSans-32" d="M 1228 531 
L 3431 531 
L 3431 0 
L 469 0 
L 469 531 
Q 828 903 1448 1529 
Q 2069 2156 2228 2338 
Q 2531 2678 2651 2914 
Q 2772 3150 2772 3378 
Q 2772 3750 2511 3984 
Q 2250 4219 1831 4219 
Q 1534 4219 1204 4116 
Q 875 4013 500 3803 
L 500 4441 
Q 881 4594 1212 4672 
Q 1544 4750 1819 4750 
Q 2544 4750 2975 4387 
Q 3406 4025 3406 3419 
Q 3406 3131 3298 2873 
Q 3191 2616 2906 2266 
Q 2828 2175 2409 1742 
Q 1991 1309 1228 531 
z
" transform="scale(0.015625)"/>
       </defs>
       <use xlink:href="#DejaVuSans-32"/>
       <use xlink:href="#DejaVuSans-30" x="63.623047"/>
       <use xlink:href="#DejaVuSans-30" x="127.246094"/>
       <use xlink:href="#DejaVuSans-30" x="190.869141"/>
      </g>
     </g>
    </g>
    <g id="xtick_3">
     <g id="line2d_3">
      <g>
       <use xlink:href="#m64d2cdeaed" x="294.277588" y="640.8" style="stroke: #000000; stroke-width: 0.8"/>
      </g>
     </g>
     <g id="text_3">
      <!-- 3000 -->
      <g transform="translate(281.552588 655.398438)scale(0.1 -0.1)">
       <defs>
        <path id="DejaVuSans-33" d="M 2597 2516 
Q 3050 2419 3304 2112 
Q 3559 1806 3559 1356 
Q 3559 666 3084 287 
Q 2609 -91 1734 -91 
Q 1441 -91 1130 -33 
Q 819 25 488 141 
L 488 750 
Q 750 597 1062 519 
Q 1375 441 1716 441 
Q 2309 441 2620 675 
Q 2931 909 2931 1356 
Q 2931 1769 2642 2001 
Q 2353 2234 1838 2234 
L 1294 2234 
L 1294 2753 
L 1863 2753 
Q 2328 2753 2575 2939 
Q 2822 3125 2822 3475 
Q 2822 3834 2567 4026 
Q 2313 4219 1838 4219 
Q 1578 4219 1281 4162 
Q 984 4106 628 3988 
L 628 4550 
Q 988 4650 1302 4700 
Q 1616 4750 1894 4750 
Q 2613 4750 3031 4423 
Q 3450 4097 3450 3541 
Q 3450 3153 3228 2886 
Q 3006 2619 2597 2516 
z
" transform="scale(0.015625)"/>
       </defs>
       <use xlink:href="#DejaVuSans-33"/>
       <use xlink:href="#DejaVuSans-30" x="63.623047"/>
       <use xlink:href="#DejaVuSans-30" x="127.246094"/>
       <use xlink:href="#DejaVuSans-30" x="190.869141"/>
      </g>
     </g>
    </g>
    <g id="xtick_4">
     <g id="line2d_4">
      <g>
       <use xlink:href="#m64d2cdeaed" x="362.392822" y="640.8" style="stroke: #000000; stroke-width: 0.8"/>
      </g>
     </g>
     <g id="text_4">
      <!-- 4000 -->
      <g transform="translate(349.667822 655.398438)scale(0.1 -0.1)">
       <defs>
        <path id="DejaVuSans-34" d="M 2419 4116 
L 825 1625 
L 2419 1625 
L 2419 4116 
z
M 2253 4666 
L 3047 4666 
L 3047 1625 
L 3713 1625 
L 3713 1100 
L 3047 1100 
L 3047 0 
L 2419 0 
L 2419 1100 
L 313 1100 
L 313 1709 
L 2253 4666 
z
" transform="scale(0.015625)"/>
       </defs>
       <use xlink:href="#DejaVuSans-34"/>
       <use xlink:href="#DejaVuSans-30" x="63.623047"/>
       <use xlink:href="#DejaVuSans-30" x="127.246094"/>
       <use xlink:href="#DejaVuSans-30" x="190.869141"/>
      </g>
     </g>
    </g>
    <g id="xtick_5">
     <g id="line2d_5">
      <g>
       <use xlink:href="#m64d2cdeaed" x="430.508057" y="640.8" style="stroke: #000000; stroke-width: 0.8"/>
      </g>
     </g>
     <g id="text_5">
      <!-- 5000 -->
      <g transform="translate(417.783057 655.398438)scale(0.1 -0.1)">
       <defs>
        <path id="DejaVuSans-35" d="M 691 4666 
L 3169 4666 
L 3169 4134 
L 1269 4134 
L 1269 2991 
Q 1406 3038 1543 3061 
Q 1681 3084 1819 3084 
Q 2600 3084 3056 2656 
Q 3513 2228 3513 1497 
Q 3513 744 3044 326 
Q 2575 -91 1722 -91 
Q 1428 -91 1123 -41 
Q 819 9 494 109 
L 494 744 
Q 775 591 1075 516 
Q 1375 441 1709 441 
Q 2250 441 2565 725 
Q 2881 1009 2881 1497 
Q 2881 1984 2565 2268 
Q 2250 2553 1709 2553 
Q 1456 2553 1204 2497 
Q 953 2441 691 2322 
L 691 4666 
z
" transform="scale(0.015625)"/>
       </defs>
       <use xlink:href="#DejaVuSans-35"/>
       <use xlink:href="#DejaVuSans-30" x="63.623047"/>
       <use xlink:href="#DejaVuSans-30" x="127.246094"/>
       <use xlink:href="#DejaVuSans-30" x="190.869141"/>
      </g>
     </g>
    </g>
    <g id="xtick_6">
     <g id="line2d_6">
      <g>
       <use xlink:href="#m64d2cdeaed" x="498.623291" y="640.8" style="stroke: #000000; stroke-width: 0.8"/>
      </g>
     </g>
     <g id="text_6">
      <!-- 6000 -->
      <g transform="translate(485.898291 655.398438)scale(0.1 -0.1)">
       <defs>
        <path id="DejaVuSans-36" d="M 2113 2584 
Q 1688 2584 1439 2293 
Q 1191 2003 1191 1497 
Q 1191 994 1439 701 
Q 1688 409 2113 409 
Q 2538 409 2786 701 
Q 3034 994 3034 1497 
Q 3034 2003 2786 2293 
Q 2538 2584 2113 2584 
z
M 3366 4563 
L 3366 3988 
Q 3128 4100 2886 4159 
Q 2644 4219 2406 4219 
Q 1781 4219 1451 3797 
Q 1122 3375 1075 2522 
Q 1259 2794 1537 2939 
Q 1816 3084 2150 3084 
Q 2853 3084 3261 2657 
Q 3669 2231 3669 1497 
Q 3669 778 3244 343 
Q 2819 -91 2113 -91 
Q 1303 -91 875 529 
Q 447 1150 447 2328 
Q 447 3434 972 4092 
Q 1497 4750 2381 4750 
Q 2619 4750 2861 4703 
Q 3103 4656 3366 4563 
z
" transform="scale(0.015625)"/>
       </defs>
       <use xlink:href="#DejaVuSans-36"/>
       <use xlink:href="#DejaVuSans-30" x="63.623047"/>
       <use xlink:href="#DejaVuSans-30" x="127.246094"/>
       <use xlink:href="#DejaVuSans-30" x="190.869141"/>
      </g>
     </g>
    </g>
    <g id="xtick_7">
     <g id="line2d_7">
      <g>
       <use xlink:href="#m64d2cdeaed" x="566.738525" y="640.8" style="stroke: #000000; stroke-width: 0.8"/>
      </g>
     </g>
     <g id="text_7">
      <!-- 7000 -->
      <g transform="translate(554.013525 655.398438)scale(0.1 -0.1)">
       <defs>
        <path id="DejaVuSans-37" d="M 525 4666 
L 3525 4666 
L 3525 4397 
L 1831 0 
L 1172 0 
L 2766 4134 
L 525 4134 
L 525 4666 
z
" transform="scale(0.015625)"/>
       </defs>
       <use xlink:href="#DejaVuSans-37"/>
       <use xlink:href="#DejaVuSans-30" x="63.623047"/>
       <use xlink:href="#DejaVuSans-30" x="127.246094"/>
       <use xlink:href="#DejaVuSans-30" x="190.869141"/>
      </g>
     </g>
    </g>
    <g id="xtick_8">
     <g id="line2d_8">
      <g>
       <use xlink:href="#m64d2cdeaed" x="634.85376" y="640.8" style="stroke: #000000; stroke-width: 0.8"/>
      </g>
     </g>
     <g id="text_8">
      <!-- 8000 -->
      <g transform="translate(622.12876 655.398438)scale(0.1 -0.1)">
       <defs>
        <path id="DejaVuSans-38" d="M 2034 2216 
Q 1584 2216 1326 1975 
Q 1069 1734 1069 1313 
Q 1069 891 1326 650 
Q 1584 409 2034 409 
Q 2484 409 2743 651 
Q 3003 894 3003 1313 
Q 3003 1734 2745 1975 
Q 2488 2216 2034 2216 
z
M 1403 2484 
Q 997 2584 770 2862 
Q 544 3141 544 3541 
Q 544 4100 942 4425 
Q 1341 4750 2034 4750 
Q 2731 4750 3128 4425 
Q 3525 4100 3525 3541 
Q 3525 3141 3298 2862 
Q 3072 2584 2669 2484 
Q 3125 2378 3379 2068 
Q 3634 1759 3634 1313 
Q 3634 634 3220 271 
Q 2806 -91 2034 -91 
Q 1263 -91 848 271 
Q 434 634 434 1313 
Q 434 1759 690 2068 
Q 947 2378 1403 2484 
z
M 1172 3481 
Q 1172 3119 1398 2916 
Q 1625 2713 2034 2713 
Q 2441 2713 2670 2916 
Q 2900 3119 2900 3481 
Q 2900 3844 2670 4047 
Q 2441 4250 2034 4250 
Q 1625 4250 1398 4047 
Q 1172 3844 1172 3481 
z
" transform="scale(0.015625)"/>
       </defs>
       <use xlink:href="#DejaVuSans-38"/>
       <use xlink:href="#DejaVuSans-30" x="63.623047"/>
       <use xlink:href="#DejaVuSans-30" x="127.246094"/>
       <use xlink:href="#DejaVuSans-30" x="190.869141"/>
      </g>
     </g>
    </g>
   </g>
   <g id="matplotlib.axis_2">
    <g id="ytick_1">
     <g id="line2d_9">
      <defs>
       <path id="mf69ef0ebb6" d="M 0 0 
L -3.5 0 
" style="stroke: #000000; stroke-width: 0.8"/>
      </defs>
      <g>
       <use xlink:href="#mf69ef0ebb6" x="90" y="640.8" style="stroke: #000000; stroke-width: 0.8"/>
      </g>
     </g>
     <g id="text_9">
      <!-- 0 -->
      <g transform="translate(76.6375 644.599219)scale(0.1 -0.1)">
       <use xlink:href="#DejaVuSans-30"/>
      </g>
     </g>
    </g>
    <g id="ytick_2">
     <g id="line2d_10">
      <g>
       <use xlink:href="#mf69ef0ebb6" x="90" y="531.02869" style="stroke: #000000; stroke-width: 0.8"/>
      </g>
     </g>
     <g id="text_10">
      <!-- 500 -->
      <g transform="translate(63.9125 534.827909)scale(0.1 -0.1)">
       <use xlink:href="#DejaVuSans-35"/>
       <use xlink:href="#DejaVuSans-30" x="63.623047"/>
       <use xlink:href="#DejaVuSans-30" x="127.246094"/>
      </g>
     </g>
    </g>
    <g id="ytick_3">
     <g id="line2d_11">
      <g>
       <use xlink:href="#mf69ef0ebb6" x="90" y="421.25738" style="stroke: #000000; stroke-width: 0.8"/>
      </g>
     </g>
     <g id="text_11">
      <!-- 1000 -->
      <g transform="translate(57.55 425.056599)scale(0.1 -0.1)">
       <use xlink:href="#DejaVuSans-31"/>
       <use xlink:href="#DejaVuSans-30" x="63.623047"/>
       <use xlink:href="#DejaVuSans-30" x="127.246094"/>
       <use xlink:href="#DejaVuSans-30" x="190.869141"/>
      </g>
     </g>
    </g>
    <g id="ytick_4">
     <g id="line2d_12">
      <g>
       <use xlink:href="#mf69ef0ebb6" x="90" y="311.486071" style="stroke: #000000; stroke-width: 0.8"/>
      </g>
     </g>
     <g id="text_12">
      <!-- 1500 -->
      <g transform="translate(57.55 315.285289)scale(0.1 -0.1)">
       <use xlink:href="#DejaVuSans-31"/>
       <use xlink:href="#DejaVuSans-35" x="63.623047"/>
       <use xlink:href="#DejaVuSans-30" x="127.246094"/>
       <use xlink:href="#DejaVuSans-30" x="190.869141"/>
      </g>
     </g>
    </g>
    <g id="ytick_5">
     <g id="line2d_13">
      <g>
       <use xlink:href="#mf69ef0ebb6" x="90" y="201.714761" style="stroke: #000000; stroke-width: 0.8"/>
      </g>
     </g>
     <g id="text_13">
      <!-- 2000 -->
      <g transform="translate(57.55 205.51398)scale(0.1 -0.1)">
       <use xlink:href="#DejaVuSans-32"/>
       <use xlink:href="#DejaVuSans-30" x="63.623047"/>
       <use xlink:href="#DejaVuSans-30" x="127.246094"/>
       <use xlink:href="#DejaVuSans-30" x="190.869141"/>
      </g>
     </g>
    </g>
    <g id="ytick_6">
     <g id="line2d_14">
      <g>
       <use xlink:href="#mf69ef0ebb6" x="90" y="91.943451" style="stroke: #000000; stroke-width: 0.8"/>
      </g>
     </g>
     <g id="text_14">
      <!-- 2500 -->
      <g transform="translate(57.55 95.74267)scale(0.1 -0.1)">
       <use xlink:href="#DejaVuSans-32"/>
       <use xlink:href="#DejaVuSans-35" x="63.623047"/>
       <use xlink:href="#DejaVuSans-30" x="127.246094"/>
       <use xlink:href="#DejaVuSans-30" x="190.869141"/>
      </g>
     </g>
    </g>
   </g>
   <g id="patch_85">
    <path d="M 90 640.8 
L 90 86.4 
" style="fill: none; stroke: #000000; stroke-width: 0.8; stroke-linejoin: miter; stroke-linecap: square"/>
   </g>
   <g id="patch_86">
    <path d="M 648 640.8 
L 648 86.4 
" style="fill: none; stroke: #000000; stroke-width: 0.8; stroke-linejoin: miter; stroke-linecap: square"/>
   </g>
   <g id="patch_87">
    <path d="M 90 640.8 
L 648 640.8 
" style="fill: none; stroke: #000000; stroke-width: 0.8; stroke-linejoin: miter; stroke-linecap: square"/>
   </g>
   <g id="patch_88">
    <path d="M 90 86.4 
L 648 86.4 
" style="fill: none; stroke: #000000; stroke-width: 0.8; stroke-linejoin: miter; stroke-linecap: square"/>
   </g>
   <g id="text_15">
    <!-- Check sum -->
    <g transform="translate(335.863125 80.4)scale(0.12 -0.12)">
     <defs>
      <path id="DejaVuSans-43" d="M 4122 4306 
L 4122 3641 
Q 3803 3938 3442 4084 
Q 3081 4231 2675 4231 
Q 1875 4231 1450 3742 
Q 1025 3253 1025 2328 
Q 1025 1406 1450 917 
Q 1875 428 2675 428 
Q 3081 428 3442 575 
Q 3803 722 4122 1019 
L 4122 359 
Q 3791 134 3420 21 
Q 3050 -91 2638 -91 
Q 1578 -91 968 557 
Q 359 1206 359 2328 
Q 359 3453 968 4101 
Q 1578 4750 2638 4750 
Q 3056 4750 3426 4639 
Q 3797 4528 4122 4306 
z
" transform="scale(0.015625)"/>
      <path id="DejaVuSans-68" d="M 3513 2113 
L 3513 0 
L 2938 0 
L 2938 2094 
Q 2938 2591 2744 2837 
Q 2550 3084 2163 3084 
Q 1697 3084 1428 2787 
Q 1159 2491 1159 1978 
L 1159 0 
L 581 0 
L 581 4863 
L 1159 4863 
L 1159 2956 
Q 1366 3272 1645 3428 
Q 1925 3584 2291 3584 
Q 2894 3584 3203 3211 
Q 3513 2838 3513 2113 
z
" transform="scale(0.015625)"/>
      <path id="DejaVuSans-65" d="M 3597 1894 
L 3597 1613 
L 953 1613 
Q 991 1019 1311 708 
Q 1631 397 2203 397 
Q 2534 397 2845 478 
Q 3156 559 3463 722 
L 3463 178 
Q 3153 47 2828 -22 
Q 2503 -91 2169 -91 
Q 1331 -91 842 396 
Q 353 884 353 1716 
Q 353 2575 817 3079 
Q 1281 3584 2069 3584 
Q 2775 3584 3186 3129 
Q 3597 2675 3597 1894 
z
M 3022 2063 
Q 3016 2534 2758 2815 
Q 2500 3097 2075 3097 
Q 1594 3097 1305 2825 
Q 1016 2553 972 2059 
L 3022 2063 
z
" transform="scale(0.015625)"/>
      <path id="DejaVuSans-63" d="M 3122 3366 
L 3122 2828 
Q 2878 2963 2633 3030 
Q 2388 3097 2138 3097 
Q 1578 3097 1268 2742 
Q 959 2388 959 1747 
Q 959 1106 1268 751 
Q 1578 397 2138 397 
Q 2388 397 2633 464 
Q 2878 531 3122 666 
L 3122 134 
Q 2881 22 2623 -34 
Q 2366 -91 2075 -91 
Q 1284 -91 818 406 
Q 353 903 353 1747 
Q 353 2603 823 3093 
Q 1294 3584 2113 3584 
Q 2378 3584 2631 3529 
Q 2884 3475 3122 3366 
z
" transform="scale(0.015625)"/>
      <path id="DejaVuSans-6b" d="M 581 4863 
L 1159 4863 
L 1159 1991 
L 2875 3500 
L 3609 3500 
L 1753 1863 
L 3688 0 
L 2938 0 
L 1159 1709 
L 1159 0 
L 581 0 
L 581 4863 
z
" transform="scale(0.015625)"/>
      <path id="DejaVuSans-20" transform="scale(0.015625)"/>
      <path id="DejaVuSans-73" d="M 2834 3397 
L 2834 2853 
Q 2591 2978 2328 3040 
Q 2066 3103 1784 3103 
Q 1356 3103 1142 2972 
Q 928 2841 928 2578 
Q 928 2378 1081 2264 
Q 1234 2150 1697 2047 
L 1894 2003 
Q 2506 1872 2764 1633 
Q 3022 1394 3022 966 
Q 3022 478 2636 193 
Q 2250 -91 1575 -91 
Q 1294 -91 989 -36 
Q 684 19 347 128 
L 347 722 
Q 666 556 975 473 
Q 1284 391 1588 391 
Q 1994 391 2212 530 
Q 2431 669 2431 922 
Q 2431 1156 2273 1281 
Q 2116 1406 1581 1522 
L 1381 1569 
Q 847 1681 609 1914 
Q 372 2147 372 2553 
Q 372 3047 722 3315 
Q 1072 3584 1716 3584 
Q 2034 3584 2315 3537 
Q 2597 3491 2834 3397 
z
" transform="scale(0.015625)"/>
      <path id="DejaVuSans-75" d="M 544 1381 
L 544 3500 
L 1119 3500 
L 1119 1403 
Q 1119 906 1312 657 
Q 1506 409 1894 409 
Q 2359 409 2629 706 
Q 2900 1003 2900 1516 
L 2900 3500 
L 3475 3500 
L 3475 0 
L 2900 0 
L 2900 538 
Q 2691 219 2414 64 
Q 2138 -91 1772 -91 
Q 1169 -91 856 284 
Q 544 659 544 1381 
z
M 1991 3584 
L 1991 3584 
z
" transform="scale(0.015625)"/>
      <path id="DejaVuSans-6d" d="M 3328 2828 
Q 3544 3216 3844 3400 
Q 4144 3584 4550 3584 
Q 5097 3584 5394 3201 
Q 5691 2819 5691 2113 
L 5691 0 
L 5113 0 
L 5113 2094 
Q 5113 2597 4934 2840 
Q 4756 3084 4391 3084 
Q 3944 3084 3684 2787 
Q 3425 2491 3425 1978 
L 3425 0 
L 2847 0 
L 2847 2094 
Q 2847 2600 2669 2842 
Q 2491 3084 2119 3084 
Q 1678 3084 1418 2786 
Q 1159 2488 1159 1978 
L 1159 0 
L 581 0 
L 581 3500 
L 1159 3500 
L 1159 2956 
Q 1356 3278 1631 3431 
Q 1906 3584 2284 3584 
Q 2666 3584 2933 3390 
Q 3200 3197 3328 2828 
z
" transform="scale(0.015625)"/>
     </defs>
     <use xlink:href="#DejaVuSans-43"/>
     <use xlink:href="#DejaVuSans-68" x="69.824219"/>
     <use xlink:href="#DejaVuSans-65" x="133.203125"/>
     <use xlink:href="#DejaVuSans-63" x="194.726562"/>
     <use xlink:href="#DejaVuSans-6b" x="249.707031"/>
     <use xlink:href="#DejaVuSans-20" x="307.617188"/>
     <use xlink:href="#DejaVuSans-73" x="339.404297"/>
     <use xlink:href="#DejaVuSans-75" x="391.503906"/>
     <use xlink:href="#DejaVuSans-6d" x="454.882812"/>
    </g>
   </g>
  </g>
 </g>
 <defs>
  <clipPath id="p09b91b773c">
   <rect x="90" y="86.4" width="558" height="554.4"/>
  </clipPath>
 </defs>
</svg>
