<?xml version="1.0" encoding="utf-8" standalone="no"?>
<!DOCTYPE svg PUBLIC "-//W3C//DTD SVG 1.1//EN"
  "http://www.w3.org/Graphics/SVG/1.1/DTD/svg11.dtd">
<svg xmlns:xlink="http://www.w3.org/1999/xlink" width="720pt" height="720pt" viewBox="0 0 720 720" xmlns="http://www.w3.org/2000/svg" version="1.1">
 <metadata>
  <rdf:RDF xmlns:dc="http://purl.org/dc/elements/1.1/" xmlns:cc="http://creativecommons.org/ns#" xmlns:rdf="http://www.w3.org/1999/02/22-rdf-syntax-ns#">
   <cc:Work>
    <dc:type rdf:resource="http://purl.org/dc/dcmitype/StillImage"/>
    <dc:date>2022-05-07T12:22:15.703838</dc:date>
    <dc:format>image/svg+xml</dc:format>
    <dc:creator>
     <cc:Agent>
      <dc:title>Matplotlib v3.5.2, https://matplotlib.org/</dc:title>
     </cc:Agent>
    </dc:creator>
   </cc:Work>
  </rdf:RDF>
 </metadata>
 <defs>
  <style type="text/css">*{stroke-linejoin: round; stroke-linecap: butt}</style>
 </defs>
 <g id="figure_1">
  <g id="patch_1">
   <path d="M 0 720 
L 720 720 
L 720 0 
L 0 0 
z
" style="fill: #ffffff"/>
  </g>
  <g id="axes_1">
   <g id="patch_2">
    <path d="M 90 640.8 
L 648 640.8 
L 648 86.4 
L 90 86.4 
z
" style="fill: #ffffff"/>
   </g>
   <g id="patch_3">
    <path d="M 373.284729 640.8 
L 373.444122 640.8 
L 373.444122 348.073779 
L 373.284729 348.073779 
z
" clip-path="url(#pc85acc6c70)" style="fill: #1f77b4"/>
   </g>
   <g id="patch_4">
    <path d="M 373.444122 640.8 
L 373.603106 640.8 
L 373.603106 640.8 
L 373.444122 640.8 
z
" clip-path="url(#pc85acc6c70)" style="fill: #1f77b4"/>
   </g>
   <g id="patch_5">
    <path d="M 373.603106 640.8 
L 373.761682 640.8 
L 373.761682 640.8 
L 373.603106 640.8 
z
" clip-path="url(#pc85acc6c70)" style="fill: #1f77b4"/>
   </g>
   <g id="patch_6">
    <path d="M 373.761682 640.8 
L 373.919853 640.8 
L 373.919853 640.8 
L 373.761682 640.8 
z
" clip-path="url(#pc85acc6c70)" style="fill: #1f77b4"/>
   </g>
   <g id="patch_7">
    <path d="M 373.919853 640.8 
L 374.077622 640.8 
L 374.077622 341.886593 
L 373.919853 341.886593 
z
" clip-path="url(#pc85acc6c70)" style="fill: #1f77b4"/>
   </g>
   <g id="patch_8">
    <path d="M 374.077622 640.8 
L 374.234989 640.8 
L 374.234989 640.8 
L 374.077622 640.8 
z
" clip-path="url(#pc85acc6c70)" style="fill: #1f77b4"/>
   </g>
   <g id="patch_9">
    <path d="M 374.234989 640.8 
L 374.391958 640.8 
L 374.391958 640.8 
L 374.234989 640.8 
z
" clip-path="url(#pc85acc6c70)" style="fill: #1f77b4"/>
   </g>
   <g id="patch_10">
    <path d="M 374.391958 640.8 
L 374.54853 640.8 
L 374.54853 640.8 
L 374.391958 640.8 
z
" clip-path="url(#pc85acc6c70)" style="fill: #1f77b4"/>
   </g>
   <g id="patch_11">
    <path d="M 374.54853 640.8 
L 374.704706 640.8 
L 374.704706 112.8 
L 374.54853 112.8 
z
" clip-path="url(#pc85acc6c70)" style="fill: #1f77b4"/>
   </g>
   <g id="patch_12">
    <path d="M 374.704706 640.8 
L 374.86049 640.8 
L 374.86049 640.8 
L 374.704706 640.8 
z
" clip-path="url(#pc85acc6c70)" style="fill: #1f77b4"/>
   </g>
   <g id="patch_13">
    <path d="M 374.86049 640.8 
L 375.015883 640.8 
L 375.015883 640.8 
L 374.86049 640.8 
z
" clip-path="url(#pc85acc6c70)" style="fill: #1f77b4"/>
   </g>
   <g id="patch_14">
    <path d="M 375.015883 640.8 
L 375.170887 640.8 
L 375.170887 640.8 
L 375.015883 640.8 
z
" clip-path="url(#pc85acc6c70)" style="fill: #1f77b4"/>
   </g>
   <g id="patch_15">
    <path d="M 375.170887 640.8 
L 375.325504 640.8 
L 375.325504 260.569289 
L 375.170887 260.569289 
z
" clip-path="url(#pc85acc6c70)" style="fill: #1f77b4"/>
   </g>
   <g id="patch_16">
    <path d="M 375.325504 640.8 
L 375.479736 640.8 
L 375.479736 640.8 
L 375.325504 640.8 
z
" clip-path="url(#pc85acc6c70)" style="fill: #1f77b4"/>
   </g>
   <g id="patch_17">
    <path d="M 375.479736 640.8 
L 375.633585 640.8 
L 375.633585 640.8 
L 375.479736 640.8 
z
" clip-path="url(#pc85acc6c70)" style="fill: #1f77b4"/>
   </g>
   <g id="patch_18">
    <path d="M 375.633585 640.8 
L 375.787052 640.8 
L 375.787052 640.8 
L 375.633585 640.8 
z
" clip-path="url(#pc85acc6c70)" style="fill: #1f77b4"/>
   </g>
   <g id="patch_19">
    <path d="M 375.787052 640.8 
L 375.94014 640.8 
L 375.94014 430.676731 
L 375.787052 430.676731 
z
" clip-path="url(#pc85acc6c70)" style="fill: #1f77b4"/>
   </g>
   <g id="patch_20">
    <path d="M 375.94014 640.8 
L 376.092851 640.8 
L 376.092851 640.8 
L 375.94014 640.8 
z
" clip-path="url(#pc85acc6c70)" style="fill: #1f77b4"/>
   </g>
   <g id="patch_21">
    <path d="M 376.092851 640.8 
L 376.245186 640.8 
L 376.245186 640.8 
L 376.092851 640.8 
z
" clip-path="url(#pc85acc6c70)" style="fill: #1f77b4"/>
   </g>
   <g id="patch_22">
    <path d="M 376.245186 640.8 
L 376.397147 640.8 
L 376.397147 640.8 
L 376.245186 640.8 
z
" clip-path="url(#pc85acc6c70)" style="fill: #1f77b4"/>
   </g>
   <g id="patch_23">
    <path d="M 376.397147 640.8 
L 376.548736 640.8 
L 376.548736 433.408735 
L 376.397147 433.408735 
z
" clip-path="url(#pc85acc6c70)" style="fill: #1f77b4"/>
   </g>
   <g id="patch_24">
    <path d="M 376.548736 640.8 
L 376.699954 640.8 
L 376.699954 640.8 
L 376.548736 640.8 
z
" clip-path="url(#pc85acc6c70)" style="fill: #1f77b4"/>
   </g>
   <g id="patch_25">
    <path d="M 376.699954 640.8 
L 376.850805 640.8 
L 376.850805 640.8 
L 376.699954 640.8 
z
" clip-path="url(#pc85acc6c70)" style="fill: #1f77b4"/>
   </g>
   <g id="patch_26">
    <path d="M 376.850805 640.8 
L 377.001289 640.8 
L 377.001289 640.8 
L 376.850805 640.8 
z
" clip-path="url(#pc85acc6c70)" style="fill: #1f77b4"/>
   </g>
   <g id="patch_27">
    <path d="M 377.001289 640.8 
L 377.151408 640.8 
L 377.151408 482.102694 
L 377.001289 482.102694 
z
" clip-path="url(#pc85acc6c70)" style="fill: #1f77b4"/>
   </g>
   <g id="patch_28">
    <path d="M 377.151408 640.8 
L 377.301164 640.8 
L 377.301164 640.8 
L 377.151408 640.8 
z
" clip-path="url(#pc85acc6c70)" style="fill: #1f77b4"/>
   </g>
   <g id="patch_29">
    <path d="M 377.301164 640.8 
L 377.450558 640.8 
L 377.450558 640.8 
L 377.301164 640.8 
z
" clip-path="url(#pc85acc6c70)" style="fill: #1f77b4"/>
   </g>
   <g id="patch_30">
    <path d="M 377.450558 640.8 
L 377.599594 640.8 
L 377.599594 640.8 
L 377.450558 640.8 
z
" clip-path="url(#pc85acc6c70)" style="fill: #1f77b4"/>
   </g>
   <g id="patch_31">
    <path d="M 377.599594 640.8 
L 377.748271 640.8 
L 377.748271 452.693471 
L 377.599594 452.693471 
z
" clip-path="url(#pc85acc6c70)" style="fill: #1f77b4"/>
   </g>
   <g id="patch_32">
    <path d="M 377.748271 640.8 
L 377.896592 640.8 
L 377.896592 640.8 
L 377.748271 640.8 
z
" clip-path="url(#pc85acc6c70)" style="fill: #1f77b4"/>
   </g>
   <g id="patch_33">
    <path d="M 377.896592 640.8 
L 378.044559 640.8 
L 378.044559 640.8 
L 377.896592 640.8 
z
" clip-path="url(#pc85acc6c70)" style="fill: #1f77b4"/>
   </g>
   <g id="patch_34">
    <path d="M 378.044559 640.8 
L 378.192173 640.8 
L 378.192173 640.8 
L 378.044559 640.8 
z
" clip-path="url(#pc85acc6c70)" style="fill: #1f77b4"/>
   </g>
   <g id="patch_35">
    <path d="M 378.192173 640.8 
L 378.339436 640.8 
L 378.339436 419.10589 
L 378.192173 419.10589 
z
" clip-path="url(#pc85acc6c70)" style="fill: #1f77b4"/>
   </g>
   <g id="patch_36">
    <path d="M 378.339436 640.8 
L 378.48635 640.8 
L 378.48635 640.8 
L 378.339436 640.8 
z
" clip-path="url(#pc85acc6c70)" style="fill: #1f77b4"/>
   </g>
   <g id="patch_37">
    <path d="M 378.48635 640.8 
L 378.632916 640.8 
L 378.632916 640.8 
L 378.48635 640.8 
z
" clip-path="url(#pc85acc6c70)" style="fill: #1f77b4"/>
   </g>
   <g id="patch_38">
    <path d="M 378.632916 640.8 
L 378.779135 640.8 
L 378.779135 640.8 
L 378.632916 640.8 
z
" clip-path="url(#pc85acc6c70)" style="fill: #1f77b4"/>
   </g>
   <g id="patch_39">
    <path d="M 378.779135 640.8 
L 378.925011 640.8 
L 378.925011 595.882636 
L 378.779135 595.882636 
z
" clip-path="url(#pc85acc6c70)" style="fill: #1f77b4"/>
   </g>
   <g id="patch_40">
    <path d="M 378.925011 640.8 
L 379.070543 640.8 
L 379.070543 640.8 
L 378.925011 640.8 
z
" clip-path="url(#pc85acc6c70)" style="fill: #1f77b4"/>
   </g>
   <g id="patch_41">
    <path d="M 379.070543 640.8 
L 379.215735 640.8 
L 379.215735 640.8 
L 379.070543 640.8 
z
" clip-path="url(#pc85acc6c70)" style="fill: #1f77b4"/>
   </g>
   <g id="patch_42">
    <path d="M 379.215735 640.8 
L 379.360586 640.8 
L 379.360586 640.8 
L 379.215735 640.8 
z
" clip-path="url(#pc85acc6c70)" style="fill: #1f77b4"/>
   </g>
   <g id="patch_43">
    <path d="M 379.360586 640.8 
L 379.5051 640.8 
L 379.5051 602.069822 
L 379.360586 602.069822 
z
" clip-path="url(#pc85acc6c70)" style="fill: #1f77b4"/>
   </g>
   <g id="patch_44">
    <path d="M 379.5051 640.8 
L 379.649277 640.8 
L 379.649277 640.8 
L 379.5051 640.8 
z
" clip-path="url(#pc85acc6c70)" style="fill: #1f77b4"/>
   </g>
   <g id="patch_45">
    <path d="M 379.649277 640.8 
L 379.793119 640.8 
L 379.793119 640.8 
L 379.649277 640.8 
z
" clip-path="url(#pc85acc6c70)" style="fill: #1f77b4"/>
   </g>
   <g id="patch_46">
    <path d="M 379.793119 640.8 
L 379.936628 640.8 
L 379.936628 591.945336 
L 379.793119 591.945336 
z
" clip-path="url(#pc85acc6c70)" style="fill: #1f77b4"/>
   </g>
   <g id="matplotlib.axis_1">
    <g id="xtick_1">
     <g id="line2d_1">
      <defs>
       <path id="m214bffe376" d="M 0 0 
L 0 3.5 
" style="stroke: #000000; stroke-width: 0.8"/>
      </defs>
      <g>
       <use xlink:href="#m214bffe376" x="90" y="640.8" style="stroke: #000000; stroke-width: 0.8"/>
      </g>
     </g>
     <g id="text_1">
      <!-- $\mathdefault{10^{0}}$ -->
      <g transform="translate(81.2 655.398438)scale(0.1 -0.1)">
       <defs>
        <path id="DejaVuSans-31" d="M 794 531 
L 1825 531 
L 1825 4091 
L 703 3866 
L 703 4441 
L 1819 4666 
L 2450 4666 
L 2450 531 
L 3481 531 
L 3481 0 
L 794 0 
L 794 531 
z
" transform="scale(0.015625)"/>
        <path id="DejaVuSans-30" d="M 2034 4250 
Q 1547 4250 1301 3770 
Q 1056 3291 1056 2328 
Q 1056 1369 1301 889 
Q 1547 409 2034 409 
Q 2525 409 2770 889 
Q 3016 1369 3016 2328 
Q 3016 3291 2770 3770 
Q 2525 4250 2034 4250 
z
M 2034 4750 
Q 2819 4750 3233 4129 
Q 3647 3509 3647 2328 
Q 3647 1150 3233 529 
Q 2819 -91 2034 -91 
Q 1250 -91 836 529 
Q 422 1150 422 2328 
Q 422 3509 836 4129 
Q 1250 4750 2034 4750 
z
" transform="scale(0.015625)"/>
       </defs>
       <use xlink:href="#DejaVuSans-31" transform="translate(0 0.765625)"/>
       <use xlink:href="#DejaVuSans-30" transform="translate(63.623047 0.765625)"/>
       <use xlink:href="#DejaVuSans-30" transform="translate(128.203125 39.046875)scale(0.7)"/>
      </g>
     </g>
    </g>
    <g id="xtick_2">
     <g id="line2d_2">
      <g>
       <use xlink:href="#m214bffe376" x="232.585444" y="640.8" style="stroke: #000000; stroke-width: 0.8"/>
      </g>
     </g>
     <g id="text_2">
      <!-- $\mathdefault{10^{1}}$ -->
      <g transform="translate(223.785444 655.398438)scale(0.1 -0.1)">
       <use xlink:href="#DejaVuSans-31" transform="translate(0 0.684375)"/>
       <use xlink:href="#DejaVuSans-30" transform="translate(63.623047 0.684375)"/>
       <use xlink:href="#DejaVuSans-31" transform="translate(128.203125 38.965625)scale(0.7)"/>
      </g>
     </g>
    </g>
    <g id="xtick_3">
     <g id="line2d_3">
      <g>
       <use xlink:href="#m214bffe376" x="375.170887" y="640.8" style="stroke: #000000; stroke-width: 0.8"/>
      </g>
     </g>
     <g id="text_3">
      <!-- $\mathdefault{10^{2}}$ -->
      <g transform="translate(366.370887 655.398438)scale(0.1 -0.1)">
       <defs>
        <path id="DejaVuSans-32" d="M 1228 531 
L 3431 531 
L 3431 0 
L 469 0 
L 469 531 
Q 828 903 1448 1529 
Q 2069 2156 2228 2338 
Q 2531 2678 2651 2914 
Q 2772 3150 2772 3378 
Q 2772 3750 2511 3984 
Q 2250 4219 1831 4219 
Q 1534 4219 1204 4116 
Q 875 4013 500 3803 
L 500 4441 
Q 881 4594 1212 4672 
Q 1544 4750 1819 4750 
Q 2544 4750 2975 4387 
Q 3406 4025 3406 3419 
Q 3406 3131 3298 2873 
Q 3191 2616 2906 2266 
Q 2828 2175 2409 1742 
Q 1991 1309 1228 531 
z
" transform="scale(0.015625)"/>
       </defs>
       <use xlink:href="#DejaVuSans-31" transform="translate(0 0.765625)"/>
       <use xlink:href="#DejaVuSans-30" transform="translate(63.623047 0.765625)"/>
       <use xlink:href="#DejaVuSans-32" transform="translate(128.203125 39.046875)scale(0.7)"/>
      </g>
     </g>
    </g>
    <g id="xtick_4">
     <g id="line2d_4">
      <g>
       <use xlink:href="#m214bffe376" x="517.756331" y="640.8" style="stroke: #000000; stroke-width: 0.8"/>
      </g>
     </g>
     <g id="text_4">
      <!-- $\mathdefault{10^{3}}$ -->
      <g transform="translate(508.956331 655.398438)scale(0.1 -0.1)">
       <defs>
        <path id="DejaVuSans-33" d="M 2597 2516 
Q 3050 2419 3304 2112 
Q 3559 1806 3559 1356 
Q 3559 666 3084 287 
Q 2609 -91 1734 -91 
Q 1441 -91 1130 -33 
Q 819 25 488 141 
L 488 750 
Q 750 597 1062 519 
Q 1375 441 1716 441 
Q 2309 441 2620 675 
Q 2931 909 2931 1356 
Q 2931 1769 2642 2001 
Q 2353 2234 1838 2234 
L 1294 2234 
L 1294 2753 
L 1863 2753 
Q 2328 2753 2575 2939 
Q 2822 3125 2822 3475 
Q 2822 3834 2567 4026 
Q 2313 4219 1838 4219 
Q 1578 4219 1281 4162 
Q 984 4106 628 3988 
L 628 4550 
Q 988 4650 1302 4700 
Q 1616 4750 1894 4750 
Q 2613 4750 3031 4423 
Q 3450 4097 3450 3541 
Q 3450 3153 3228 2886 
Q 3006 2619 2597 2516 
z
" transform="scale(0.015625)"/>
       </defs>
       <use xlink:href="#DejaVuSans-31" transform="translate(0 0.765625)"/>
       <use xlink:href="#DejaVuSans-30" transform="translate(63.623047 0.765625)"/>
       <use xlink:href="#DejaVuSans-33" transform="translate(128.203125 39.046875)scale(0.7)"/>
      </g>
     </g>
    </g>
    <g id="xtick_5">
     <g id="line2d_5">
      <defs>
       <path id="mce239c2515" d="M 0 0 
L 0 2 
" style="stroke: #000000; stroke-width: 0.6"/>
      </defs>
      <g>
       <use xlink:href="#mce239c2515" x="132.922495" y="640.8" style="stroke: #000000; stroke-width: 0.6"/>
      </g>
     </g>
    </g>
    <g id="xtick_6">
     <g id="line2d_6">
      <g>
       <use xlink:href="#mce239c2515" x="158.030546" y="640.8" style="stroke: #000000; stroke-width: 0.6"/>
      </g>
     </g>
    </g>
    <g id="xtick_7">
     <g id="line2d_7">
      <g>
       <use xlink:href="#mce239c2515" x="175.844991" y="640.8" style="stroke: #000000; stroke-width: 0.6"/>
      </g>
     </g>
    </g>
    <g id="xtick_8">
     <g id="line2d_8">
      <g>
       <use xlink:href="#mce239c2515" x="189.662948" y="640.8" style="stroke: #000000; stroke-width: 0.6"/>
      </g>
     </g>
    </g>
    <g id="xtick_9">
     <g id="line2d_9">
      <g>
       <use xlink:href="#mce239c2515" x="200.953041" y="640.8" style="stroke: #000000; stroke-width: 0.6"/>
      </g>
     </g>
    </g>
    <g id="xtick_10">
     <g id="line2d_10">
      <g>
       <use xlink:href="#mce239c2515" x="210.498679" y="640.8" style="stroke: #000000; stroke-width: 0.6"/>
      </g>
     </g>
    </g>
    <g id="xtick_11">
     <g id="line2d_11">
      <g>
       <use xlink:href="#mce239c2515" x="218.767486" y="640.8" style="stroke: #000000; stroke-width: 0.6"/>
      </g>
     </g>
    </g>
    <g id="xtick_12">
     <g id="line2d_12">
      <g>
       <use xlink:href="#mce239c2515" x="226.061092" y="640.8" style="stroke: #000000; stroke-width: 0.6"/>
      </g>
     </g>
    </g>
    <g id="xtick_13">
     <g id="line2d_13">
      <g>
       <use xlink:href="#mce239c2515" x="275.507939" y="640.8" style="stroke: #000000; stroke-width: 0.6"/>
      </g>
     </g>
    </g>
    <g id="xtick_14">
     <g id="line2d_14">
      <g>
       <use xlink:href="#mce239c2515" x="300.615989" y="640.8" style="stroke: #000000; stroke-width: 0.6"/>
      </g>
     </g>
    </g>
    <g id="xtick_15">
     <g id="line2d_15">
      <g>
       <use xlink:href="#mce239c2515" x="318.430435" y="640.8" style="stroke: #000000; stroke-width: 0.6"/>
      </g>
     </g>
    </g>
    <g id="xtick_16">
     <g id="line2d_16">
      <g>
       <use xlink:href="#mce239c2515" x="332.248392" y="640.8" style="stroke: #000000; stroke-width: 0.6"/>
      </g>
     </g>
    </g>
    <g id="xtick_17">
     <g id="line2d_17">
      <g>
       <use xlink:href="#mce239c2515" x="343.538485" y="640.8" style="stroke: #000000; stroke-width: 0.6"/>
      </g>
     </g>
    </g>
    <g id="xtick_18">
     <g id="line2d_18">
      <g>
       <use xlink:href="#mce239c2515" x="353.084123" y="640.8" style="stroke: #000000; stroke-width: 0.6"/>
      </g>
     </g>
    </g>
    <g id="xtick_19">
     <g id="line2d_19">
      <g>
       <use xlink:href="#mce239c2515" x="361.35293" y="640.8" style="stroke: #000000; stroke-width: 0.6"/>
      </g>
     </g>
    </g>
    <g id="xtick_20">
     <g id="line2d_20">
      <g>
       <use xlink:href="#mce239c2515" x="368.646535" y="640.8" style="stroke: #000000; stroke-width: 0.6"/>
      </g>
     </g>
    </g>
    <g id="xtick_21">
     <g id="line2d_21">
      <g>
       <use xlink:href="#mce239c2515" x="418.093383" y="640.8" style="stroke: #000000; stroke-width: 0.6"/>
      </g>
     </g>
    </g>
    <g id="xtick_22">
     <g id="line2d_22">
      <g>
       <use xlink:href="#mce239c2515" x="443.201433" y="640.8" style="stroke: #000000; stroke-width: 0.6"/>
      </g>
     </g>
    </g>
    <g id="xtick_23">
     <g id="line2d_23">
      <g>
       <use xlink:href="#mce239c2515" x="461.015878" y="640.8" style="stroke: #000000; stroke-width: 0.6"/>
      </g>
     </g>
    </g>
    <g id="xtick_24">
     <g id="line2d_24">
      <g>
       <use xlink:href="#mce239c2515" x="474.833836" y="640.8" style="stroke: #000000; stroke-width: 0.6"/>
      </g>
     </g>
    </g>
    <g id="xtick_25">
     <g id="line2d_25">
      <g>
       <use xlink:href="#mce239c2515" x="486.123929" y="640.8" style="stroke: #000000; stroke-width: 0.6"/>
      </g>
     </g>
    </g>
    <g id="xtick_26">
     <g id="line2d_26">
      <g>
       <use xlink:href="#mce239c2515" x="495.669566" y="640.8" style="stroke: #000000; stroke-width: 0.6"/>
      </g>
     </g>
    </g>
    <g id="xtick_27">
     <g id="line2d_27">
      <g>
       <use xlink:href="#mce239c2515" x="503.938374" y="640.8" style="stroke: #000000; stroke-width: 0.6"/>
      </g>
     </g>
    </g>
    <g id="xtick_28">
     <g id="line2d_28">
      <g>
       <use xlink:href="#mce239c2515" x="511.231979" y="640.8" style="stroke: #000000; stroke-width: 0.6"/>
      </g>
     </g>
    </g>
    <g id="xtick_29">
     <g id="line2d_29">
      <g>
       <use xlink:href="#mce239c2515" x="560.678827" y="640.8" style="stroke: #000000; stroke-width: 0.6"/>
      </g>
     </g>
    </g>
    <g id="xtick_30">
     <g id="line2d_30">
      <g>
       <use xlink:href="#mce239c2515" x="585.786877" y="640.8" style="stroke: #000000; stroke-width: 0.6"/>
      </g>
     </g>
    </g>
    <g id="xtick_31">
     <g id="line2d_31">
      <g>
       <use xlink:href="#mce239c2515" x="603.601322" y="640.8" style="stroke: #000000; stroke-width: 0.6"/>
      </g>
     </g>
    </g>
    <g id="xtick_32">
     <g id="line2d_32">
      <g>
       <use xlink:href="#mce239c2515" x="617.419279" y="640.8" style="stroke: #000000; stroke-width: 0.6"/>
      </g>
     </g>
    </g>
    <g id="xtick_33">
     <g id="line2d_33">
      <g>
       <use xlink:href="#mce239c2515" x="628.709372" y="640.8" style="stroke: #000000; stroke-width: 0.6"/>
      </g>
     </g>
    </g>
    <g id="xtick_34">
     <g id="line2d_34">
      <g>
       <use xlink:href="#mce239c2515" x="638.25501" y="640.8" style="stroke: #000000; stroke-width: 0.6"/>
      </g>
     </g>
    </g>
    <g id="xtick_35">
     <g id="line2d_35">
      <g>
       <use xlink:href="#mce239c2515" x="646.523817" y="640.8" style="stroke: #000000; stroke-width: 0.6"/>
      </g>
     </g>
    </g>
   </g>
   <g id="matplotlib.axis_2">
    <g id="ytick_1">
     <g id="line2d_36">
      <defs>
       <path id="m0fd61b24ce" d="M 0 0 
L -3.5 0 
" style="stroke: #000000; stroke-width: 0.8"/>
      </defs>
      <g>
       <use xlink:href="#m0fd61b24ce" x="90" y="640.8" style="stroke: #000000; stroke-width: 0.8"/>
      </g>
     </g>
     <g id="text_5">
      <!-- 0 -->
      <g transform="translate(76.6375 644.599219)scale(0.1 -0.1)">
       <use xlink:href="#DejaVuSans-30"/>
      </g>
     </g>
    </g>
    <g id="ytick_2">
     <g id="line2d_37">
      <g>
       <use xlink:href="#m0fd61b24ce" x="90" y="560.446933" style="stroke: #000000; stroke-width: 0.8"/>
      </g>
     </g>
     <g id="text_6">
      <!-- 1000 -->
      <g transform="translate(57.55 564.246152)scale(0.1 -0.1)">
       <use xlink:href="#DejaVuSans-31"/>
       <use xlink:href="#DejaVuSans-30" x="63.623047"/>
       <use xlink:href="#DejaVuSans-30" x="127.246094"/>
       <use xlink:href="#DejaVuSans-30" x="190.869141"/>
      </g>
     </g>
    </g>
    <g id="ytick_3">
     <g id="line2d_38">
      <g>
       <use xlink:href="#m0fd61b24ce" x="90" y="480.093867" style="stroke: #000000; stroke-width: 0.8"/>
      </g>
     </g>
     <g id="text_7">
      <!-- 2000 -->
      <g transform="translate(57.55 483.893086)scale(0.1 -0.1)">
       <use xlink:href="#DejaVuSans-32"/>
       <use xlink:href="#DejaVuSans-30" x="63.623047"/>
       <use xlink:href="#DejaVuSans-30" x="127.246094"/>
       <use xlink:href="#DejaVuSans-30" x="190.869141"/>
      </g>
     </g>
    </g>
    <g id="ytick_4">
     <g id="line2d_39">
      <g>
       <use xlink:href="#m0fd61b24ce" x="90" y="399.7408" style="stroke: #000000; stroke-width: 0.8"/>
      </g>
     </g>
     <g id="text_8">
      <!-- 3000 -->
      <g transform="translate(57.55 403.540019)scale(0.1 -0.1)">
       <use xlink:href="#DejaVuSans-33"/>
       <use xlink:href="#DejaVuSans-30" x="63.623047"/>
       <use xlink:href="#DejaVuSans-30" x="127.246094"/>
       <use xlink:href="#DejaVuSans-30" x="190.869141"/>
      </g>
     </g>
    </g>
    <g id="ytick_5">
     <g id="line2d_40">
      <g>
       <use xlink:href="#m0fd61b24ce" x="90" y="319.387734" style="stroke: #000000; stroke-width: 0.8"/>
      </g>
     </g>
     <g id="text_9">
      <!-- 4000 -->
      <g transform="translate(57.55 323.186953)scale(0.1 -0.1)">
       <defs>
        <path id="DejaVuSans-34" d="M 2419 4116 
L 825 1625 
L 2419 1625 
L 2419 4116 
z
M 2253 4666 
L 3047 4666 
L 3047 1625 
L 3713 1625 
L 3713 1100 
L 3047 1100 
L 3047 0 
L 2419 0 
L 2419 1100 
L 313 1100 
L 313 1709 
L 2253 4666 
z
" transform="scale(0.015625)"/>
       </defs>
       <use xlink:href="#DejaVuSans-34"/>
       <use xlink:href="#DejaVuSans-30" x="63.623047"/>
       <use xlink:href="#DejaVuSans-30" x="127.246094"/>
       <use xlink:href="#DejaVuSans-30" x="190.869141"/>
      </g>
     </g>
    </g>
    <g id="ytick_6">
     <g id="line2d_41">
      <g>
       <use xlink:href="#m0fd61b24ce" x="90" y="239.034667" style="stroke: #000000; stroke-width: 0.8"/>
      </g>
     </g>
     <g id="text_10">
      <!-- 5000 -->
      <g transform="translate(57.55 242.833886)scale(0.1 -0.1)">
       <defs>
        <path id="DejaVuSans-35" d="M 691 4666 
L 3169 4666 
L 3169 4134 
L 1269 4134 
L 1269 2991 
Q 1406 3038 1543 3061 
Q 1681 3084 1819 3084 
Q 2600 3084 3056 2656 
Q 3513 2228 3513 1497 
Q 3513 744 3044 326 
Q 2575 -91 1722 -91 
Q 1428 -91 1123 -41 
Q 819 9 494 109 
L 494 744 
Q 775 591 1075 516 
Q 1375 441 1709 441 
Q 2250 441 2565 725 
Q 2881 1009 2881 1497 
Q 2881 1984 2565 2268 
Q 2250 2553 1709 2553 
Q 1456 2553 1204 2497 
Q 953 2441 691 2322 
L 691 4666 
z
" transform="scale(0.015625)"/>
       </defs>
       <use xlink:href="#DejaVuSans-35"/>
       <use xlink:href="#DejaVuSans-30" x="63.623047"/>
       <use xlink:href="#DejaVuSans-30" x="127.246094"/>
       <use xlink:href="#DejaVuSans-30" x="190.869141"/>
      </g>
     </g>
    </g>
    <g id="ytick_7">
     <g id="line2d_42">
      <g>
       <use xlink:href="#m0fd61b24ce" x="90" y="158.681601" style="stroke: #000000; stroke-width: 0.8"/>
      </g>
     </g>
     <g id="text_11">
      <!-- 6000 -->
      <g transform="translate(57.55 162.48082)scale(0.1 -0.1)">
       <defs>
        <path id="DejaVuSans-36" d="M 2113 2584 
Q 1688 2584 1439 2293 
Q 1191 2003 1191 1497 
Q 1191 994 1439 701 
Q 1688 409 2113 409 
Q 2538 409 2786 701 
Q 3034 994 3034 1497 
Q 3034 2003 2786 2293 
Q 2538 2584 2113 2584 
z
M 3366 4563 
L 3366 3988 
Q 3128 4100 2886 4159 
Q 2644 4219 2406 4219 
Q 1781 4219 1451 3797 
Q 1122 3375 1075 2522 
Q 1259 2794 1537 2939 
Q 1816 3084 2150 3084 
Q 2853 3084 3261 2657 
Q 3669 2231 3669 1497 
Q 3669 778 3244 343 
Q 2819 -91 2113 -91 
Q 1303 -91 875 529 
Q 447 1150 447 2328 
Q 447 3434 972 4092 
Q 1497 4750 2381 4750 
Q 2619 4750 2861 4703 
Q 3103 4656 3366 4563 
z
" transform="scale(0.015625)"/>
       </defs>
       <use xlink:href="#DejaVuSans-36"/>
       <use xlink:href="#DejaVuSans-30" x="63.623047"/>
       <use xlink:href="#DejaVuSans-30" x="127.246094"/>
       <use xlink:href="#DejaVuSans-30" x="190.869141"/>
      </g>
     </g>
    </g>
   </g>
   <g id="patch_47">
    <path d="M 90 640.8 
L 90 86.4 
" style="fill: none; stroke: #000000; stroke-width: 0.8; stroke-linejoin: miter; stroke-linecap: square"/>
   </g>
   <g id="patch_48">
    <path d="M 648 640.8 
L 648 86.4 
" style="fill: none; stroke: #000000; stroke-width: 0.8; stroke-linejoin: miter; stroke-linecap: square"/>
   </g>
   <g id="patch_49">
    <path d="M 90 640.8 
L 648 640.8 
" style="fill: none; stroke: #000000; stroke-width: 0.8; stroke-linejoin: miter; stroke-linecap: square"/>
   </g>
   <g id="patch_50">
    <path d="M 90 86.4 
L 648 86.4 
" style="fill: none; stroke: #000000; stroke-width: 0.8; stroke-linejoin: miter; stroke-linecap: square"/>
   </g>
   <g id="text_12">
    <!-- First letter ASCII -->
    <g transform="translate(320.694375 80.4)scale(0.12 -0.12)">
     <defs>
      <path id="DejaVuSans-46" d="M 628 4666 
L 3309 4666 
L 3309 4134 
L 1259 4134 
L 1259 2759 
L 3109 2759 
L 3109 2228 
L 1259 2228 
L 1259 0 
L 628 0 
L 628 4666 
z
" transform="scale(0.015625)"/>
      <path id="DejaVuSans-69" d="M 603 3500 
L 1178 3500 
L 1178 0 
L 603 0 
L 603 3500 
z
M 603 4863 
L 1178 4863 
L 1178 4134 
L 603 4134 
L 603 4863 
z
" transform="scale(0.015625)"/>
      <path id="DejaVuSans-72" d="M 2631 2963 
Q 2534 3019 2420 3045 
Q 2306 3072 2169 3072 
Q 1681 3072 1420 2755 
Q 1159 2438 1159 1844 
L 1159 0 
L 581 0 
L 581 3500 
L 1159 3500 
L 1159 2956 
Q 1341 3275 1631 3429 
Q 1922 3584 2338 3584 
Q 2397 3584 2469 3576 
Q 2541 3569 2628 3553 
L 2631 2963 
z
" transform="scale(0.015625)"/>
      <path id="DejaVuSans-73" d="M 2834 3397 
L 2834 2853 
Q 2591 2978 2328 3040 
Q 2066 3103 1784 3103 
Q 1356 3103 1142 2972 
Q 928 2841 928 2578 
Q 928 2378 1081 2264 
Q 1234 2150 1697 2047 
L 1894 2003 
Q 2506 1872 2764 1633 
Q 3022 1394 3022 966 
Q 3022 478 2636 193 
Q 2250 -91 1575 -91 
Q 1294 -91 989 -36 
Q 684 19 347 128 
L 347 722 
Q 666 556 975 473 
Q 1284 391 1588 391 
Q 1994 391 2212 530 
Q 2431 669 2431 922 
Q 2431 1156 2273 1281 
Q 2116 1406 1581 1522 
L 1381 1569 
Q 847 1681 609 1914 
Q 372 2147 372 2553 
Q 372 3047 722 3315 
Q 1072 3584 1716 3584 
Q 2034 3584 2315 3537 
Q 2597 3491 2834 3397 
z
" transform="scale(0.015625)"/>
      <path id="DejaVuSans-74" d="M 1172 4494 
L 1172 3500 
L 2356 3500 
L 2356 3053 
L 1172 3053 
L 1172 1153 
Q 1172 725 1289 603 
Q 1406 481 1766 481 
L 2356 481 
L 2356 0 
L 1766 0 
Q 1100 0 847 248 
Q 594 497 594 1153 
L 594 3053 
L 172 3053 
L 172 3500 
L 594 3500 
L 594 4494 
L 1172 4494 
z
" transform="scale(0.015625)"/>
      <path id="DejaVuSans-20" transform="scale(0.015625)"/>
      <path id="DejaVuSans-6c" d="M 603 4863 
L 1178 4863 
L 1178 0 
L 603 0 
L 603 4863 
z
" transform="scale(0.015625)"/>
      <path id="DejaVuSans-65" d="M 3597 1894 
L 3597 1613 
L 953 1613 
Q 991 1019 1311 708 
Q 1631 397 2203 397 
Q 2534 397 2845 478 
Q 3156 559 3463 722 
L 3463 178 
Q 3153 47 2828 -22 
Q 2503 -91 2169 -91 
Q 1331 -91 842 396 
Q 353 884 353 1716 
Q 353 2575 817 3079 
Q 1281 3584 2069 3584 
Q 2775 3584 3186 3129 
Q 3597 2675 3597 1894 
z
M 3022 2063 
Q 3016 2534 2758 2815 
Q 2500 3097 2075 3097 
Q 1594 3097 1305 2825 
Q 1016 2553 972 2059 
L 3022 2063 
z
" transform="scale(0.015625)"/>
      <path id="DejaVuSans-41" d="M 2188 4044 
L 1331 1722 
L 3047 1722 
L 2188 4044 
z
M 1831 4666 
L 2547 4666 
L 4325 0 
L 3669 0 
L 3244 1197 
L 1141 1197 
L 716 0 
L 50 0 
L 1831 4666 
z
" transform="scale(0.015625)"/>
      <path id="DejaVuSans-53" d="M 3425 4513 
L 3425 3897 
Q 3066 4069 2747 4153 
Q 2428 4238 2131 4238 
Q 1616 4238 1336 4038 
Q 1056 3838 1056 3469 
Q 1056 3159 1242 3001 
Q 1428 2844 1947 2747 
L 2328 2669 
Q 3034 2534 3370 2195 
Q 3706 1856 3706 1288 
Q 3706 609 3251 259 
Q 2797 -91 1919 -91 
Q 1588 -91 1214 -16 
Q 841 59 441 206 
L 441 856 
Q 825 641 1194 531 
Q 1563 422 1919 422 
Q 2459 422 2753 634 
Q 3047 847 3047 1241 
Q 3047 1584 2836 1778 
Q 2625 1972 2144 2069 
L 1759 2144 
Q 1053 2284 737 2584 
Q 422 2884 422 3419 
Q 422 4038 858 4394 
Q 1294 4750 2059 4750 
Q 2388 4750 2728 4690 
Q 3069 4631 3425 4513 
z
" transform="scale(0.015625)"/>
      <path id="DejaVuSans-43" d="M 4122 4306 
L 4122 3641 
Q 3803 3938 3442 4084 
Q 3081 4231 2675 4231 
Q 1875 4231 1450 3742 
Q 1025 3253 1025 2328 
Q 1025 1406 1450 917 
Q 1875 428 2675 428 
Q 3081 428 3442 575 
Q 3803 722 4122 1019 
L 4122 359 
Q 3791 134 3420 21 
Q 3050 -91 2638 -91 
Q 1578 -91 968 557 
Q 359 1206 359 2328 
Q 359 3453 968 4101 
Q 1578 4750 2638 4750 
Q 3056 4750 3426 4639 
Q 3797 4528 4122 4306 
z
" transform="scale(0.015625)"/>
      <path id="DejaVuSans-49" d="M 628 4666 
L 1259 4666 
L 1259 0 
L 628 0 
L 628 4666 
z
" transform="scale(0.015625)"/>
     </defs>
     <use xlink:href="#DejaVuSans-46"/>
     <use xlink:href="#DejaVuSans-69" x="50.269531"/>
     <use xlink:href="#DejaVuSans-72" x="78.052734"/>
     <use xlink:href="#DejaVuSans-73" x="119.166016"/>
     <use xlink:href="#DejaVuSans-74" x="171.265625"/>
     <use xlink:href="#DejaVuSans-20" x="210.474609"/>
     <use xlink:href="#DejaVuSans-6c" x="242.261719"/>
     <use xlink:href="#DejaVuSans-65" x="270.044922"/>
     <use xlink:href="#DejaVuSans-74" x="331.568359"/>
     <use xlink:href="#DejaVuSans-74" x="370.777344"/>
     <use xlink:href="#DejaVuSans-65" x="409.986328"/>
     <use xlink:href="#DejaVuSans-72" x="471.509766"/>
     <use xlink:href="#DejaVuSans-20" x="512.623047"/>
     <use xlink:href="#DejaVuSans-41" x="544.410156"/>
     <use xlink:href="#DejaVuSans-53" x="612.818359"/>
     <use xlink:href="#DejaVuSans-43" x="676.294922"/>
     <use xlink:href="#DejaVuSans-49" x="746.119141"/>
     <use xlink:href="#DejaVuSans-49" x="775.611328"/>
    </g>
   </g>
  </g>
 </g>
 <defs>
  <clipPath id="pc85acc6c70">
   <rect x="90" y="86.4" width="558" height="554.4"/>
  </clipPath>
 </defs>
</svg>
