<?xml version="1.0" encoding="utf-8" standalone="no"?>
<!DOCTYPE svg PUBLIC "-//W3C//DTD SVG 1.1//EN"
  "http://www.w3.org/Graphics/SVG/1.1/DTD/svg11.dtd">
<svg xmlns:xlink="http://www.w3.org/1999/xlink" width="720pt" height="720pt" viewBox="0 0 720 720" xmlns="http://www.w3.org/2000/svg" version="1.1">
 <metadata>
  <rdf:RDF xmlns:dc="http://purl.org/dc/elements/1.1/" xmlns:cc="http://creativecommons.org/ns#" xmlns:rdf="http://www.w3.org/1999/02/22-rdf-syntax-ns#">
   <cc:Work>
    <dc:type rdf:resource="http://purl.org/dc/dcmitype/StillImage"/>
    <dc:date>2022-05-07T12:20:35.747763</dc:date>
    <dc:format>image/svg+xml</dc:format>
    <dc:creator>
     <cc:Agent>
      <dc:title>Matplotlib v3.5.2, https://matplotlib.org/</dc:title>
     </cc:Agent>
    </dc:creator>
   </cc:Work>
  </rdf:RDF>
 </metadata>
 <defs>
  <style type="text/css">*{stroke-linejoin: round; stroke-linecap: butt}</style>
 </defs>
 <g id="figure_1">
  <g id="patch_1">
   <path d="M 0 720 
L 720 720 
L 720 0 
L 0 0 
z
" style="fill: #ffffff"/>
  </g>
  <g id="axes_1">
   <g id="patch_2">
    <path d="M 90 640.8 
L 648 640.8 
L 648 86.4 
L 90 86.4 
z
" style="fill: #ffffff"/>
   </g>
   <g id="patch_3">
    <path d="M 89.931885 640.8 
L 104.237831 640.8 
L 104.237831 469.795334 
L 89.931885 469.795334 
z
" clip-path="url(#p90f5f80818)" style="fill: #1f77b4"/>
   </g>
   <g id="patch_4">
    <path d="M 104.237831 640.8 
L 118.543776 640.8 
L 118.543776 388.090824 
L 104.237831 388.090824 
z
" clip-path="url(#p90f5f80818)" style="fill: #1f77b4"/>
   </g>
   <g id="patch_5">
    <path d="M 118.543776 640.8 
L 132.849722 640.8 
L 132.849722 235.356765 
L 118.543776 235.356765 
z
" clip-path="url(#p90f5f80818)" style="fill: #1f77b4"/>
   </g>
   <g id="patch_6">
    <path d="M 132.849722 640.8 
L 147.155668 640.8 
L 147.155668 414.367652 
L 132.849722 414.367652 
z
" clip-path="url(#p90f5f80818)" style="fill: #1f77b4"/>
   </g>
   <g id="patch_7">
    <path d="M 147.155668 640.8 
L 161.461614 640.8 
L 161.461614 385.422084 
L 147.155668 385.422084 
z
" clip-path="url(#p90f5f80818)" style="fill: #1f77b4"/>
   </g>
   <g id="patch_8">
    <path d="M 161.461614 640.8 
L 175.767559 640.8 
L 175.767559 112.8 
L 161.461614 112.8 
z
" clip-path="url(#p90f5f80818)" style="fill: #1f77b4"/>
   </g>
   <g id="patch_9">
    <path d="M 175.767559 640.8 
L 190.073505 640.8 
L 190.073505 447.008398 
L 175.767559 447.008398 
z
" clip-path="url(#p90f5f80818)" style="fill: #1f77b4"/>
   </g>
   <g id="patch_10">
    <path d="M 190.073505 640.8 
L 204.379451 640.8 
L 204.379451 483.344323 
L 190.073505 483.344323 
z
" clip-path="url(#p90f5f80818)" style="fill: #1f77b4"/>
   </g>
   <g id="patch_11">
    <path d="M 204.379451 640.8 
L 218.685397 640.8 
L 218.685397 468.563608 
L 204.379451 468.563608 
z
" clip-path="url(#p90f5f80818)" style="fill: #1f77b4"/>
   </g>
   <g id="patch_12">
    <path d="M 218.685397 640.8 
L 232.991342 640.8 
L 232.991342 415.39409 
L 218.685397 415.39409 
z
" clip-path="url(#p90f5f80818)" style="fill: #1f77b4"/>
   </g>
   <g id="patch_13">
    <path d="M 232.991342 640.8 
L 247.297288 640.8 
L 247.297288 230.019285 
L 232.991342 230.019285 
z
" clip-path="url(#p90f5f80818)" style="fill: #1f77b4"/>
   </g>
   <g id="patch_14">
    <path d="M 247.297288 640.8 
L 261.603234 640.8 
L 261.603234 328.146812 
L 247.297288 328.146812 
z
" clip-path="url(#p90f5f80818)" style="fill: #1f77b4"/>
   </g>
   <g id="patch_15">
    <path d="M 261.603234 640.8 
L 275.90918 640.8 
L 275.90918 516.190358 
L 261.603234 516.190358 
z
" clip-path="url(#p90f5f80818)" style="fill: #1f77b4"/>
   </g>
   <g id="patch_16">
    <path d="M 275.90918 640.8 
L 290.215125 640.8 
L 290.215125 580.6507 
L 275.90918 580.6507 
z
" clip-path="url(#p90f5f80818)" style="fill: #1f77b4"/>
   </g>
   <g id="patch_17">
    <path d="M 290.215125 640.8 
L 304.521071 640.8 
L 304.521071 566.691135 
L 290.215125 566.691135 
z
" clip-path="url(#p90f5f80818)" style="fill: #1f77b4"/>
   </g>
   <g id="patch_18">
    <path d="M 304.521071 640.8 
L 318.827017 640.8 
L 318.827017 580.855988 
L 304.521071 580.855988 
z
" clip-path="url(#p90f5f80818)" style="fill: #1f77b4"/>
   </g>
   <g id="patch_19">
    <path d="M 318.827017 640.8 
L 333.132963 640.8 
L 333.132963 567.717574 
L 318.827017 567.717574 
z
" clip-path="url(#p90f5f80818)" style="fill: #1f77b4"/>
   </g>
   <g id="patch_20">
    <path d="M 333.132963 640.8 
L 347.438909 640.8 
L 347.438909 577.776672 
L 333.132963 577.776672 
z
" clip-path="url(#p90f5f80818)" style="fill: #1f77b4"/>
   </g>
   <g id="patch_21">
    <path d="M 347.438909 640.8 
L 361.744854 640.8 
L 361.744854 572.644479 
L 347.438909 572.644479 
z
" clip-path="url(#p90f5f80818)" style="fill: #1f77b4"/>
   </g>
   <g id="patch_22">
    <path d="M 361.744854 640.8 
L 376.0508 640.8 
L 376.0508 485.191913 
L 361.744854 485.191913 
z
" clip-path="url(#p90f5f80818)" style="fill: #1f77b4"/>
   </g>
   <g id="patch_23">
    <path d="M 376.0508 640.8 
L 390.356746 640.8 
L 390.356746 399.792224 
L 376.0508 399.792224 
z
" clip-path="url(#p90f5f80818)" style="fill: #1f77b4"/>
   </g>
   <g id="patch_24">
    <path d="M 390.356746 640.8 
L 404.662692 640.8 
L 404.662692 367.972628 
L 390.356746 367.972628 
z
" clip-path="url(#p90f5f80818)" style="fill: #1f77b4"/>
   </g>
   <g id="patch_25">
    <path d="M 404.662692 640.8 
L 418.968637 640.8 
L 418.968637 468.153033 
L 404.662692 468.153033 
z
" clip-path="url(#p90f5f80818)" style="fill: #1f77b4"/>
   </g>
   <g id="patch_26">
    <path d="M 418.968637 640.8 
L 433.274583 640.8 
L 433.274583 451.524728 
L 418.968637 451.524728 
z
" clip-path="url(#p90f5f80818)" style="fill: #1f77b4"/>
   </g>
   <g id="patch_27">
    <path d="M 433.274583 640.8 
L 447.580529 640.8 
L 447.580529 557.042613 
L 433.274583 557.042613 
z
" clip-path="url(#p90f5f80818)" style="fill: #1f77b4"/>
   </g>
   <g id="patch_28">
    <path d="M 447.580529 640.8 
L 461.886475 640.8 
L 461.886475 605.079938 
L 447.580529 605.079938 
z
" clip-path="url(#p90f5f80818)" style="fill: #1f77b4"/>
   </g>
   <g id="patch_29">
    <path d="M 461.886475 640.8 
L 476.19242 640.8 
L 476.19242 611.443857 
L 461.886475 611.443857 
z
" clip-path="url(#p90f5f80818)" style="fill: #1f77b4"/>
   </g>
   <g id="patch_30">
    <path d="M 476.19242 640.8 
L 490.498366 640.8 
L 490.498366 618.628927 
L 476.19242 618.628927 
z
" clip-path="url(#p90f5f80818)" style="fill: #1f77b4"/>
   </g>
   <g id="patch_31">
    <path d="M 490.498366 640.8 
L 504.804312 640.8 
L 504.804312 612.05972 
L 490.498366 612.05972 
z
" clip-path="url(#p90f5f80818)" style="fill: #1f77b4"/>
   </g>
   <g id="patch_32">
    <path d="M 504.804312 640.8 
L 519.110258 640.8 
L 519.110258 600.153033 
L 504.804312 600.153033 
z
" clip-path="url(#p90f5f80818)" style="fill: #1f77b4"/>
   </g>
   <g id="patch_33">
    <path d="M 519.110258 640.8 
L 533.416203 640.8 
L 533.416203 622.734681 
L 519.110258 622.734681 
z
" clip-path="url(#p90f5f80818)" style="fill: #1f77b4"/>
   </g>
   <g id="patch_34">
    <path d="M 533.416203 640.8 
L 547.722149 640.8 
L 547.722149 609.39098 
L 533.416203 609.39098 
z
" clip-path="url(#p90f5f80818)" style="fill: #1f77b4"/>
   </g>
   <g id="patch_35">
    <path d="M 547.722149 640.8 
L 562.028095 640.8 
L 562.028095 611.854432 
L 547.722149 611.854432 
z
" clip-path="url(#p90f5f80818)" style="fill: #1f77b4"/>
   </g>
   <g id="patch_36">
    <path d="M 562.028095 640.8 
L 576.334041 640.8 
L 576.334041 610.212131 
L 562.028095 610.212131 
z
" clip-path="url(#p90f5f80818)" style="fill: #1f77b4"/>
   </g>
   <g id="patch_37">
    <path d="M 576.334041 640.8 
L 590.639986 640.8 
L 590.639986 616.781337 
L 576.334041 616.781337 
z
" clip-path="url(#p90f5f80818)" style="fill: #1f77b4"/>
   </g>
   <g id="patch_38">
    <path d="M 590.639986 640.8 
L 604.945932 640.8 
L 604.945932 606.516952 
L 590.639986 606.516952 
z
" clip-path="url(#p90f5f80818)" style="fill: #1f77b4"/>
   </g>
   <g id="patch_39">
    <path d="M 604.945932 640.8 
L 619.251878 640.8 
L 619.251878 606.516952 
L 604.945932 606.516952 
z
" clip-path="url(#p90f5f80818)" style="fill: #1f77b4"/>
   </g>
   <g id="patch_40">
    <path d="M 619.251878 640.8 
L 633.557824 640.8 
L 633.557824 610.417418 
L 619.251878 610.417418 
z
" clip-path="url(#p90f5f80818)" style="fill: #1f77b4"/>
   </g>
   <g id="patch_41">
    <path d="M 633.557824 640.8 
L 647.86377 640.8 
L 647.86377 610.212131 
L 633.557824 610.212131 
z
" clip-path="url(#p90f5f80818)" style="fill: #1f77b4"/>
   </g>
   <g id="matplotlib.axis_1">
    <g id="xtick_1">
     <g id="line2d_1">
      <defs>
       <path id="m841754b6ba" d="M 0 0 
L 0 3.5 
" style="stroke: #000000; stroke-width: 0.8"/>
      </defs>
      <g>
       <use xlink:href="#m841754b6ba" x="158.047119" y="640.8" style="stroke: #000000; stroke-width: 0.8"/>
      </g>
     </g>
     <g id="text_1">
      <!-- 1000 -->
      <g transform="translate(145.322119 655.398438)scale(0.1 -0.1)">
       <defs>
        <path id="DejaVuSans-31" d="M 794 531 
L 1825 531 
L 1825 4091 
L 703 3866 
L 703 4441 
L 1819 4666 
L 2450 4666 
L 2450 531 
L 3481 531 
L 3481 0 
L 794 0 
L 794 531 
z
" transform="scale(0.015625)"/>
        <path id="DejaVuSans-30" d="M 2034 4250 
Q 1547 4250 1301 3770 
Q 1056 3291 1056 2328 
Q 1056 1369 1301 889 
Q 1547 409 2034 409 
Q 2525 409 2770 889 
Q 3016 1369 3016 2328 
Q 3016 3291 2770 3770 
Q 2525 4250 2034 4250 
z
M 2034 4750 
Q 2819 4750 3233 4129 
Q 3647 3509 3647 2328 
Q 3647 1150 3233 529 
Q 2819 -91 2034 -91 
Q 1250 -91 836 529 
Q 422 1150 422 2328 
Q 422 3509 836 4129 
Q 1250 4750 2034 4750 
z
" transform="scale(0.015625)"/>
       </defs>
       <use xlink:href="#DejaVuSans-31"/>
       <use xlink:href="#DejaVuSans-30" x="63.623047"/>
       <use xlink:href="#DejaVuSans-30" x="127.246094"/>
       <use xlink:href="#DejaVuSans-30" x="190.869141"/>
      </g>
     </g>
    </g>
    <g id="xtick_2">
     <g id="line2d_2">
      <g>
       <use xlink:href="#m841754b6ba" x="226.162354" y="640.8" style="stroke: #000000; stroke-width: 0.8"/>
      </g>
     </g>
     <g id="text_2">
      <!-- 2000 -->
      <g transform="translate(213.437354 655.398438)scale(0.1 -0.1)">
       <defs>
        <path id="DejaVuSans-32" d="M 1228 531 
L 3431 531 
L 3431 0 
L 469 0 
L 469 531 
Q 828 903 1448 1529 
Q 2069 2156 2228 2338 
Q 2531 2678 2651 2914 
Q 2772 3150 2772 3378 
Q 2772 3750 2511 3984 
Q 2250 4219 1831 4219 
Q 1534 4219 1204 4116 
Q 875 4013 500 3803 
L 500 4441 
Q 881 4594 1212 4672 
Q 1544 4750 1819 4750 
Q 2544 4750 2975 4387 
Q 3406 4025 3406 3419 
Q 3406 3131 3298 2873 
Q 3191 2616 2906 2266 
Q 2828 2175 2409 1742 
Q 1991 1309 1228 531 
z
" transform="scale(0.015625)"/>
       </defs>
       <use xlink:href="#DejaVuSans-32"/>
       <use xlink:href="#DejaVuSans-30" x="63.623047"/>
       <use xlink:href="#DejaVuSans-30" x="127.246094"/>
       <use xlink:href="#DejaVuSans-30" x="190.869141"/>
      </g>
     </g>
    </g>
    <g id="xtick_3">
     <g id="line2d_3">
      <g>
       <use xlink:href="#m841754b6ba" x="294.277588" y="640.8" style="stroke: #000000; stroke-width: 0.8"/>
      </g>
     </g>
     <g id="text_3">
      <!-- 3000 -->
      <g transform="translate(281.552588 655.398438)scale(0.1 -0.1)">
       <defs>
        <path id="DejaVuSans-33" d="M 2597 2516 
Q 3050 2419 3304 2112 
Q 3559 1806 3559 1356 
Q 3559 666 3084 287 
Q 2609 -91 1734 -91 
Q 1441 -91 1130 -33 
Q 819 25 488 141 
L 488 750 
Q 750 597 1062 519 
Q 1375 441 1716 441 
Q 2309 441 2620 675 
Q 2931 909 2931 1356 
Q 2931 1769 2642 2001 
Q 2353 2234 1838 2234 
L 1294 2234 
L 1294 2753 
L 1863 2753 
Q 2328 2753 2575 2939 
Q 2822 3125 2822 3475 
Q 2822 3834 2567 4026 
Q 2313 4219 1838 4219 
Q 1578 4219 1281 4162 
Q 984 4106 628 3988 
L 628 4550 
Q 988 4650 1302 4700 
Q 1616 4750 1894 4750 
Q 2613 4750 3031 4423 
Q 3450 4097 3450 3541 
Q 3450 3153 3228 2886 
Q 3006 2619 2597 2516 
z
" transform="scale(0.015625)"/>
       </defs>
       <use xlink:href="#DejaVuSans-33"/>
       <use xlink:href="#DejaVuSans-30" x="63.623047"/>
       <use xlink:href="#DejaVuSans-30" x="127.246094"/>
       <use xlink:href="#DejaVuSans-30" x="190.869141"/>
      </g>
     </g>
    </g>
    <g id="xtick_4">
     <g id="line2d_4">
      <g>
       <use xlink:href="#m841754b6ba" x="362.392822" y="640.8" style="stroke: #000000; stroke-width: 0.8"/>
      </g>
     </g>
     <g id="text_4">
      <!-- 4000 -->
      <g transform="translate(349.667822 655.398438)scale(0.1 -0.1)">
       <defs>
        <path id="DejaVuSans-34" d="M 2419 4116 
L 825 1625 
L 2419 1625 
L 2419 4116 
z
M 2253 4666 
L 3047 4666 
L 3047 1625 
L 3713 1625 
L 3713 1100 
L 3047 1100 
L 3047 0 
L 2419 0 
L 2419 1100 
L 313 1100 
L 313 1709 
L 2253 4666 
z
" transform="scale(0.015625)"/>
       </defs>
       <use xlink:href="#DejaVuSans-34"/>
       <use xlink:href="#DejaVuSans-30" x="63.623047"/>
       <use xlink:href="#DejaVuSans-30" x="127.246094"/>
       <use xlink:href="#DejaVuSans-30" x="190.869141"/>
      </g>
     </g>
    </g>
    <g id="xtick_5">
     <g id="line2d_5">
      <g>
       <use xlink:href="#m841754b6ba" x="430.508057" y="640.8" style="stroke: #000000; stroke-width: 0.8"/>
      </g>
     </g>
     <g id="text_5">
      <!-- 5000 -->
      <g transform="translate(417.783057 655.398438)scale(0.1 -0.1)">
       <defs>
        <path id="DejaVuSans-35" d="M 691 4666 
L 3169 4666 
L 3169 4134 
L 1269 4134 
L 1269 2991 
Q 1406 3038 1543 3061 
Q 1681 3084 1819 3084 
Q 2600 3084 3056 2656 
Q 3513 2228 3513 1497 
Q 3513 744 3044 326 
Q 2575 -91 1722 -91 
Q 1428 -91 1123 -41 
Q 819 9 494 109 
L 494 744 
Q 775 591 1075 516 
Q 1375 441 1709 441 
Q 2250 441 2565 725 
Q 2881 1009 2881 1497 
Q 2881 1984 2565 2268 
Q 2250 2553 1709 2553 
Q 1456 2553 1204 2497 
Q 953 2441 691 2322 
L 691 4666 
z
" transform="scale(0.015625)"/>
       </defs>
       <use xlink:href="#DejaVuSans-35"/>
       <use xlink:href="#DejaVuSans-30" x="63.623047"/>
       <use xlink:href="#DejaVuSans-30" x="127.246094"/>
       <use xlink:href="#DejaVuSans-30" x="190.869141"/>
      </g>
     </g>
    </g>
    <g id="xtick_6">
     <g id="line2d_6">
      <g>
       <use xlink:href="#m841754b6ba" x="498.623291" y="640.8" style="stroke: #000000; stroke-width: 0.8"/>
      </g>
     </g>
     <g id="text_6">
      <!-- 6000 -->
      <g transform="translate(485.898291 655.398438)scale(0.1 -0.1)">
       <defs>
        <path id="DejaVuSans-36" d="M 2113 2584 
Q 1688 2584 1439 2293 
Q 1191 2003 1191 1497 
Q 1191 994 1439 701 
Q 1688 409 2113 409 
Q 2538 409 2786 701 
Q 3034 994 3034 1497 
Q 3034 2003 2786 2293 
Q 2538 2584 2113 2584 
z
M 3366 4563 
L 3366 3988 
Q 3128 4100 2886 4159 
Q 2644 4219 2406 4219 
Q 1781 4219 1451 3797 
Q 1122 3375 1075 2522 
Q 1259 2794 1537 2939 
Q 1816 3084 2150 3084 
Q 2853 3084 3261 2657 
Q 3669 2231 3669 1497 
Q 3669 778 3244 343 
Q 2819 -91 2113 -91 
Q 1303 -91 875 529 
Q 447 1150 447 2328 
Q 447 3434 972 4092 
Q 1497 4750 2381 4750 
Q 2619 4750 2861 4703 
Q 3103 4656 3366 4563 
z
" transform="scale(0.015625)"/>
       </defs>
       <use xlink:href="#DejaVuSans-36"/>
       <use xlink:href="#DejaVuSans-30" x="63.623047"/>
       <use xlink:href="#DejaVuSans-30" x="127.246094"/>
       <use xlink:href="#DejaVuSans-30" x="190.869141"/>
      </g>
     </g>
    </g>
    <g id="xtick_7">
     <g id="line2d_7">
      <g>
       <use xlink:href="#m841754b6ba" x="566.738525" y="640.8" style="stroke: #000000; stroke-width: 0.8"/>
      </g>
     </g>
     <g id="text_7">
      <!-- 7000 -->
      <g transform="translate(554.013525 655.398438)scale(0.1 -0.1)">
       <defs>
        <path id="DejaVuSans-37" d="M 525 4666 
L 3525 4666 
L 3525 4397 
L 1831 0 
L 1172 0 
L 2766 4134 
L 525 4134 
L 525 4666 
z
" transform="scale(0.015625)"/>
       </defs>
       <use xlink:href="#DejaVuSans-37"/>
       <use xlink:href="#DejaVuSans-30" x="63.623047"/>
       <use xlink:href="#DejaVuSans-30" x="127.246094"/>
       <use xlink:href="#DejaVuSans-30" x="190.869141"/>
      </g>
     </g>
    </g>
    <g id="xtick_8">
     <g id="line2d_8">
      <g>
       <use xlink:href="#m841754b6ba" x="634.85376" y="640.8" style="stroke: #000000; stroke-width: 0.8"/>
      </g>
     </g>
     <g id="text_8">
      <!-- 8000 -->
      <g transform="translate(622.12876 655.398438)scale(0.1 -0.1)">
       <defs>
        <path id="DejaVuSans-38" d="M 2034 2216 
Q 1584 2216 1326 1975 
Q 1069 1734 1069 1313 
Q 1069 891 1326 650 
Q 1584 409 2034 409 
Q 2484 409 2743 651 
Q 3003 894 3003 1313 
Q 3003 1734 2745 1975 
Q 2488 2216 2034 2216 
z
M 1403 2484 
Q 997 2584 770 2862 
Q 544 3141 544 3541 
Q 544 4100 942 4425 
Q 1341 4750 2034 4750 
Q 2731 4750 3128 4425 
Q 3525 4100 3525 3541 
Q 3525 3141 3298 2862 
Q 3072 2584 2669 2484 
Q 3125 2378 3379 2068 
Q 3634 1759 3634 1313 
Q 3634 634 3220 271 
Q 2806 -91 2034 -91 
Q 1263 -91 848 271 
Q 434 634 434 1313 
Q 434 1759 690 2068 
Q 947 2378 1403 2484 
z
M 1172 3481 
Q 1172 3119 1398 2916 
Q 1625 2713 2034 2713 
Q 2441 2713 2670 2916 
Q 2900 3119 2900 3481 
Q 2900 3844 2670 4047 
Q 2441 4250 2034 4250 
Q 1625 4250 1398 4047 
Q 1172 3844 1172 3481 
z
" transform="scale(0.015625)"/>
       </defs>
       <use xlink:href="#DejaVuSans-38"/>
       <use xlink:href="#DejaVuSans-30" x="63.623047"/>
       <use xlink:href="#DejaVuSans-30" x="127.246094"/>
       <use xlink:href="#DejaVuSans-30" x="190.869141"/>
      </g>
     </g>
    </g>
   </g>
   <g id="matplotlib.axis_2">
    <g id="ytick_1">
     <g id="line2d_9">
      <defs>
       <path id="m3252ec2924" d="M 0 0 
L -3.5 0 
" style="stroke: #000000; stroke-width: 0.8"/>
      </defs>
      <g>
       <use xlink:href="#m3252ec2924" x="90" y="640.8" style="stroke: #000000; stroke-width: 0.8"/>
      </g>
     </g>
     <g id="text_9">
      <!-- 0 -->
      <g transform="translate(76.6375 644.599219)scale(0.1 -0.1)">
       <use xlink:href="#DejaVuSans-30"/>
      </g>
     </g>
    </g>
    <g id="ytick_2">
     <g id="line2d_10">
      <g>
       <use xlink:href="#m3252ec2924" x="90" y="538.156143" style="stroke: #000000; stroke-width: 0.8"/>
      </g>
     </g>
     <g id="text_10">
      <!-- 500 -->
      <g transform="translate(63.9125 541.955362)scale(0.1 -0.1)">
       <use xlink:href="#DejaVuSans-35"/>
       <use xlink:href="#DejaVuSans-30" x="63.623047"/>
       <use xlink:href="#DejaVuSans-30" x="127.246094"/>
      </g>
     </g>
    </g>
    <g id="ytick_3">
     <g id="line2d_11">
      <g>
       <use xlink:href="#m3252ec2924" x="90" y="435.512286" style="stroke: #000000; stroke-width: 0.8"/>
      </g>
     </g>
     <g id="text_11">
      <!-- 1000 -->
      <g transform="translate(57.55 439.311505)scale(0.1 -0.1)">
       <use xlink:href="#DejaVuSans-31"/>
       <use xlink:href="#DejaVuSans-30" x="63.623047"/>
       <use xlink:href="#DejaVuSans-30" x="127.246094"/>
       <use xlink:href="#DejaVuSans-30" x="190.869141"/>
      </g>
     </g>
    </g>
    <g id="ytick_4">
     <g id="line2d_12">
      <g>
       <use xlink:href="#m3252ec2924" x="90" y="332.868429" style="stroke: #000000; stroke-width: 0.8"/>
      </g>
     </g>
     <g id="text_12">
      <!-- 1500 -->
      <g transform="translate(57.55 336.667648)scale(0.1 -0.1)">
       <use xlink:href="#DejaVuSans-31"/>
       <use xlink:href="#DejaVuSans-35" x="63.623047"/>
       <use xlink:href="#DejaVuSans-30" x="127.246094"/>
       <use xlink:href="#DejaVuSans-30" x="190.869141"/>
      </g>
     </g>
    </g>
    <g id="ytick_5">
     <g id="line2d_13">
      <g>
       <use xlink:href="#m3252ec2924" x="90" y="230.224572" style="stroke: #000000; stroke-width: 0.8"/>
      </g>
     </g>
     <g id="text_13">
      <!-- 2000 -->
      <g transform="translate(57.55 234.023791)scale(0.1 -0.1)">
       <use xlink:href="#DejaVuSans-32"/>
       <use xlink:href="#DejaVuSans-30" x="63.623047"/>
       <use xlink:href="#DejaVuSans-30" x="127.246094"/>
       <use xlink:href="#DejaVuSans-30" x="190.869141"/>
      </g>
     </g>
    </g>
    <g id="ytick_6">
     <g id="line2d_14">
      <g>
       <use xlink:href="#m3252ec2924" x="90" y="127.580715" style="stroke: #000000; stroke-width: 0.8"/>
      </g>
     </g>
     <g id="text_14">
      <!-- 2500 -->
      <g transform="translate(57.55 131.379934)scale(0.1 -0.1)">
       <use xlink:href="#DejaVuSans-32"/>
       <use xlink:href="#DejaVuSans-35" x="63.623047"/>
       <use xlink:href="#DejaVuSans-30" x="127.246094"/>
       <use xlink:href="#DejaVuSans-30" x="190.869141"/>
      </g>
     </g>
    </g>
   </g>
   <g id="patch_42">
    <path d="M 90 640.8 
L 90 86.4 
" style="fill: none; stroke: #000000; stroke-width: 0.8; stroke-linejoin: miter; stroke-linecap: square"/>
   </g>
   <g id="patch_43">
    <path d="M 648 640.8 
L 648 86.4 
" style="fill: none; stroke: #000000; stroke-width: 0.8; stroke-linejoin: miter; stroke-linecap: square"/>
   </g>
   <g id="patch_44">
    <path d="M 90 640.8 
L 648 640.8 
" style="fill: none; stroke: #000000; stroke-width: 0.8; stroke-linejoin: miter; stroke-linecap: square"/>
   </g>
   <g id="patch_45">
    <path d="M 90 86.4 
L 648 86.4 
" style="fill: none; stroke: #000000; stroke-width: 0.8; stroke-linejoin: miter; stroke-linecap: square"/>
   </g>
   <g id="text_15">
    <!-- Ror hash -->
    <g transform="translate(342.64875 80.4)scale(0.12 -0.12)">
     <defs>
      <path id="DejaVuSans-52" d="M 2841 2188 
Q 3044 2119 3236 1894 
Q 3428 1669 3622 1275 
L 4263 0 
L 3584 0 
L 2988 1197 
Q 2756 1666 2539 1819 
Q 2322 1972 1947 1972 
L 1259 1972 
L 1259 0 
L 628 0 
L 628 4666 
L 2053 4666 
Q 2853 4666 3247 4331 
Q 3641 3997 3641 3322 
Q 3641 2881 3436 2590 
Q 3231 2300 2841 2188 
z
M 1259 4147 
L 1259 2491 
L 2053 2491 
Q 2509 2491 2742 2702 
Q 2975 2913 2975 3322 
Q 2975 3731 2742 3939 
Q 2509 4147 2053 4147 
L 1259 4147 
z
" transform="scale(0.015625)"/>
      <path id="DejaVuSans-6f" d="M 1959 3097 
Q 1497 3097 1228 2736 
Q 959 2375 959 1747 
Q 959 1119 1226 758 
Q 1494 397 1959 397 
Q 2419 397 2687 759 
Q 2956 1122 2956 1747 
Q 2956 2369 2687 2733 
Q 2419 3097 1959 3097 
z
M 1959 3584 
Q 2709 3584 3137 3096 
Q 3566 2609 3566 1747 
Q 3566 888 3137 398 
Q 2709 -91 1959 -91 
Q 1206 -91 779 398 
Q 353 888 353 1747 
Q 353 2609 779 3096 
Q 1206 3584 1959 3584 
z
" transform="scale(0.015625)"/>
      <path id="DejaVuSans-72" d="M 2631 2963 
Q 2534 3019 2420 3045 
Q 2306 3072 2169 3072 
Q 1681 3072 1420 2755 
Q 1159 2438 1159 1844 
L 1159 0 
L 581 0 
L 581 3500 
L 1159 3500 
L 1159 2956 
Q 1341 3275 1631 3429 
Q 1922 3584 2338 3584 
Q 2397 3584 2469 3576 
Q 2541 3569 2628 3553 
L 2631 2963 
z
" transform="scale(0.015625)"/>
      <path id="DejaVuSans-20" transform="scale(0.015625)"/>
      <path id="DejaVuSans-68" d="M 3513 2113 
L 3513 0 
L 2938 0 
L 2938 2094 
Q 2938 2591 2744 2837 
Q 2550 3084 2163 3084 
Q 1697 3084 1428 2787 
Q 1159 2491 1159 1978 
L 1159 0 
L 581 0 
L 581 4863 
L 1159 4863 
L 1159 2956 
Q 1366 3272 1645 3428 
Q 1925 3584 2291 3584 
Q 2894 3584 3203 3211 
Q 3513 2838 3513 2113 
z
" transform="scale(0.015625)"/>
      <path id="DejaVuSans-61" d="M 2194 1759 
Q 1497 1759 1228 1600 
Q 959 1441 959 1056 
Q 959 750 1161 570 
Q 1363 391 1709 391 
Q 2188 391 2477 730 
Q 2766 1069 2766 1631 
L 2766 1759 
L 2194 1759 
z
M 3341 1997 
L 3341 0 
L 2766 0 
L 2766 531 
Q 2569 213 2275 61 
Q 1981 -91 1556 -91 
Q 1019 -91 701 211 
Q 384 513 384 1019 
Q 384 1609 779 1909 
Q 1175 2209 1959 2209 
L 2766 2209 
L 2766 2266 
Q 2766 2663 2505 2880 
Q 2244 3097 1772 3097 
Q 1472 3097 1187 3025 
Q 903 2953 641 2809 
L 641 3341 
Q 956 3463 1253 3523 
Q 1550 3584 1831 3584 
Q 2591 3584 2966 3190 
Q 3341 2797 3341 1997 
z
" transform="scale(0.015625)"/>
      <path id="DejaVuSans-73" d="M 2834 3397 
L 2834 2853 
Q 2591 2978 2328 3040 
Q 2066 3103 1784 3103 
Q 1356 3103 1142 2972 
Q 928 2841 928 2578 
Q 928 2378 1081 2264 
Q 1234 2150 1697 2047 
L 1894 2003 
Q 2506 1872 2764 1633 
Q 3022 1394 3022 966 
Q 3022 478 2636 193 
Q 2250 -91 1575 -91 
Q 1294 -91 989 -36 
Q 684 19 347 128 
L 347 722 
Q 666 556 975 473 
Q 1284 391 1588 391 
Q 1994 391 2212 530 
Q 2431 669 2431 922 
Q 2431 1156 2273 1281 
Q 2116 1406 1581 1522 
L 1381 1569 
Q 847 1681 609 1914 
Q 372 2147 372 2553 
Q 372 3047 722 3315 
Q 1072 3584 1716 3584 
Q 2034 3584 2315 3537 
Q 2597 3491 2834 3397 
z
" transform="scale(0.015625)"/>
     </defs>
     <use xlink:href="#DejaVuSans-52"/>
     <use xlink:href="#DejaVuSans-6f" x="64.982422"/>
     <use xlink:href="#DejaVuSans-72" x="126.164062"/>
     <use xlink:href="#DejaVuSans-20" x="167.277344"/>
     <use xlink:href="#DejaVuSans-68" x="199.064453"/>
     <use xlink:href="#DejaVuSans-61" x="262.443359"/>
     <use xlink:href="#DejaVuSans-73" x="323.722656"/>
     <use xlink:href="#DejaVuSans-68" x="375.822266"/>
    </g>
   </g>
  </g>
 </g>
 <defs>
  <clipPath id="p90f5f80818">
   <rect x="90" y="86.4" width="558" height="554.4"/>
  </clipPath>
 </defs>
</svg>
