<?xml version="1.0" encoding="utf-8" standalone="no"?>
<!DOCTYPE svg PUBLIC "-//W3C//DTD SVG 1.1//EN"
  "http://www.w3.org/Graphics/SVG/1.1/DTD/svg11.dtd">
<svg xmlns:xlink="http://www.w3.org/1999/xlink" width="720pt" height="720pt" viewBox="0 0 720 720" xmlns="http://www.w3.org/2000/svg" version="1.1">
 <metadata>
  <rdf:RDF xmlns:dc="http://purl.org/dc/elements/1.1/" xmlns:cc="http://creativecommons.org/ns#" xmlns:rdf="http://www.w3.org/1999/02/22-rdf-syntax-ns#">
   <cc:Work>
    <dc:type rdf:resource="http://purl.org/dc/dcmitype/StillImage"/>
    <dc:date>2022-05-14T13:11:53.279067</dc:date>
    <dc:format>image/svg+xml</dc:format>
    <dc:creator>
     <cc:Agent>
      <dc:title>Matplotlib v3.5.2, https://matplotlib.org/</dc:title>
     </cc:Agent>
    </dc:creator>
   </cc:Work>
  </rdf:RDF>
 </metadata>
 <defs>
  <style type="text/css">*{stroke-linejoin: round; stroke-linecap: butt}</style>
 </defs>
 <g id="figure_1">
  <g id="patch_1">
   <path d="M 0 720 
L 720 720 
L 720 0 
L 0 0 
z
" style="fill: #ffffff"/>
  </g>
  <g id="axes_1">
   <g id="patch_2">
    <path d="M 90 640.8 
L 648 640.8 
L 648 86.4 
L 90 86.4 
z
" style="fill: #ffffff"/>
   </g>
   <g id="patch_3">
    <path d="M 103.078125 640.8 
L 105.447768 640.8 
L 105.447768 638.194022 
L 103.078125 638.194022 
z
" clip-path="url(#p164bfceaf0)" style="fill: #1f77b4"/>
   </g>
   <g id="patch_4">
    <path d="M 105.447768 640.8 
L 107.81741 640.8 
L 107.81741 639.641788 
L 105.447768 639.641788 
z
" clip-path="url(#p164bfceaf0)" style="fill: #1f77b4"/>
   </g>
   <g id="patch_5">
    <path d="M 107.81741 640.8 
L 110.187053 640.8 
L 110.187053 640.8 
L 107.81741 640.8 
z
" clip-path="url(#p164bfceaf0)" style="fill: #1f77b4"/>
   </g>
   <g id="patch_6">
    <path d="M 110.187053 640.8 
L 112.556696 640.8 
L 112.556696 640.8 
L 110.187053 640.8 
z
" clip-path="url(#p164bfceaf0)" style="fill: #1f77b4"/>
   </g>
   <g id="patch_7">
    <path d="M 112.556696 640.8 
L 114.926338 640.8 
L 114.926338 640.8 
L 112.556696 640.8 
z
" clip-path="url(#p164bfceaf0)" style="fill: #1f77b4"/>
   </g>
   <g id="patch_8">
    <path d="M 114.926338 640.8 
L 117.295981 640.8 
L 117.295981 638.773129 
L 114.926338 638.773129 
z
" clip-path="url(#p164bfceaf0)" style="fill: #1f77b4"/>
   </g>
   <g id="patch_9">
    <path d="M 117.295981 640.8 
L 119.665624 640.8 
L 119.665624 632.547738 
L 117.295981 632.547738 
z
" clip-path="url(#p164bfceaf0)" style="fill: #1f77b4"/>
   </g>
   <g id="patch_10">
    <path d="M 119.665624 640.8 
L 122.035266 640.8 
L 122.035266 635.153715 
L 119.665624 635.153715 
z
" clip-path="url(#p164bfceaf0)" style="fill: #1f77b4"/>
   </g>
   <g id="patch_11">
    <path d="M 122.035266 640.8 
L 124.404909 640.8 
L 124.404909 640.220894 
L 122.035266 640.220894 
z
" clip-path="url(#p164bfceaf0)" style="fill: #1f77b4"/>
   </g>
   <g id="patch_12">
    <path d="M 124.404909 640.8 
L 126.774552 640.8 
L 126.774552 640.8 
L 124.404909 640.8 
z
" clip-path="url(#p164bfceaf0)" style="fill: #1f77b4"/>
   </g>
   <g id="patch_13">
    <path d="M 126.774552 640.8 
L 129.144194 640.8 
L 129.144194 640.8 
L 126.774552 640.8 
z
" clip-path="url(#p164bfceaf0)" style="fill: #1f77b4"/>
   </g>
   <g id="patch_14">
    <path d="M 129.144194 640.8 
L 131.513837 640.8 
L 131.513837 632.402961 
L 129.144194 632.402961 
z
" clip-path="url(#p164bfceaf0)" style="fill: #1f77b4"/>
   </g>
   <g id="patch_15">
    <path d="M 131.513837 640.8 
L 133.88348 640.8 
L 133.88348 596.932712 
L 131.513837 596.932712 
z
" clip-path="url(#p164bfceaf0)" style="fill: #1f77b4"/>
   </g>
   <g id="patch_16">
    <path d="M 133.88348 640.8 
L 136.253122 640.8 
L 136.253122 600.552125 
L 133.88348 600.552125 
z
" clip-path="url(#p164bfceaf0)" style="fill: #1f77b4"/>
   </g>
   <g id="patch_17">
    <path d="M 136.253122 640.8 
L 138.622765 640.8 
L 138.622765 632.258185 
L 136.253122 632.258185 
z
" clip-path="url(#p164bfceaf0)" style="fill: #1f77b4"/>
   </g>
   <g id="patch_18">
    <path d="M 138.622765 640.8 
L 140.992408 640.8 
L 140.992408 639.641788 
L 138.622765 639.641788 
z
" clip-path="url(#p164bfceaf0)" style="fill: #1f77b4"/>
   </g>
   <g id="patch_19">
    <path d="M 140.992408 640.8 
L 143.36205 640.8 
L 143.36205 640.655223 
L 140.992408 640.655223 
z
" clip-path="url(#p164bfceaf0)" style="fill: #1f77b4"/>
   </g>
   <g id="patch_20">
    <path d="M 143.36205 640.8 
L 145.731693 640.8 
L 145.731693 621.255169 
L 143.36205 621.255169 
z
" clip-path="url(#p164bfceaf0)" style="fill: #1f77b4"/>
   </g>
   <g id="patch_21">
    <path d="M 145.731693 640.8 
L 148.101336 640.8 
L 148.101336 519.766822 
L 145.731693 519.766822 
z
" clip-path="url(#p164bfceaf0)" style="fill: #1f77b4"/>
   </g>
   <g id="patch_22">
    <path d="M 148.101336 640.8 
L 150.470978 640.8 
L 150.470978 488.350315 
L 148.101336 488.350315 
z
" clip-path="url(#p164bfceaf0)" style="fill: #1f77b4"/>
   </g>
   <g id="patch_23">
    <path d="M 150.470978 640.8 
L 152.840621 640.8 
L 152.840621 580.138634 
L 150.470978 580.138634 
z
" clip-path="url(#p164bfceaf0)" style="fill: #1f77b4"/>
   </g>
   <g id="patch_24">
    <path d="M 152.840621 640.8 
L 155.210264 640.8 
L 155.210264 638.194022 
L 152.840621 638.194022 
z
" clip-path="url(#p164bfceaf0)" style="fill: #1f77b4"/>
   </g>
   <g id="patch_25">
    <path d="M 155.210264 640.8 
L 157.579906 640.8 
L 157.579906 640.076117 
L 155.210264 640.076117 
z
" clip-path="url(#p164bfceaf0)" style="fill: #1f77b4"/>
   </g>
   <g id="patch_26">
    <path d="M 157.579906 640.8 
L 159.949549 640.8 
L 159.949549 612.85813 
L 157.579906 612.85813 
z
" clip-path="url(#p164bfceaf0)" style="fill: #1f77b4"/>
   </g>
   <g id="patch_27">
    <path d="M 159.949549 640.8 
L 162.319192 640.8 
L 162.319192 475.030875 
L 159.949549 475.030875 
z
" clip-path="url(#p164bfceaf0)" style="fill: #1f77b4"/>
   </g>
   <g id="patch_28">
    <path d="M 162.319192 640.8 
L 164.688834 640.8 
L 164.688834 341.402139 
L 162.319192 341.402139 
z
" clip-path="url(#p164bfceaf0)" style="fill: #1f77b4"/>
   </g>
   <g id="patch_29">
    <path d="M 164.688834 640.8 
L 167.058477 640.8 
L 167.058477 482.993584 
L 164.688834 482.993584 
z
" clip-path="url(#p164bfceaf0)" style="fill: #1f77b4"/>
   </g>
   <g id="patch_30">
    <path d="M 167.058477 640.8 
L 169.428119 640.8 
L 169.428119 613.002906 
L 167.058477 613.002906 
z
" clip-path="url(#p164bfceaf0)" style="fill: #1f77b4"/>
   </g>
   <g id="patch_31">
    <path d="M 169.428119 640.8 
L 171.797762 640.8 
L 171.797762 637.904469 
L 169.428119 637.904469 
z
" clip-path="url(#p164bfceaf0)" style="fill: #1f77b4"/>
   </g>
   <g id="patch_32">
    <path d="M 171.797762 640.8 
L 174.167405 640.8 
L 174.167405 588.24612 
L 171.797762 588.24612 
z
" clip-path="url(#p164bfceaf0)" style="fill: #1f77b4"/>
   </g>
   <g id="patch_33">
    <path d="M 174.167405 640.8 
L 176.537047 640.8 
L 176.537047 380.636578 
L 174.167405 380.636578 
z
" clip-path="url(#p164bfceaf0)" style="fill: #1f77b4"/>
   </g>
   <g id="patch_34">
    <path d="M 176.537047 640.8 
L 178.90669 640.8 
L 178.90669 230.068988 
L 176.537047 230.068988 
z
" clip-path="url(#p164bfceaf0)" style="fill: #1f77b4"/>
   </g>
   <g id="patch_35">
    <path d="M 178.90669 640.8 
L 181.276333 640.8 
L 181.276333 344.008116 
L 178.90669 344.008116 
z
" clip-path="url(#p164bfceaf0)" style="fill: #1f77b4"/>
   </g>
   <g id="patch_36">
    <path d="M 181.276333 640.8 
L 183.645975 640.8 
L 183.645975 577.532657 
L 181.276333 577.532657 
z
" clip-path="url(#p164bfceaf0)" style="fill: #1f77b4"/>
   </g>
   <g id="patch_37">
    <path d="M 183.645975 640.8 
L 186.015618 640.8 
L 186.015618 633.995503 
L 183.645975 633.995503 
z
" clip-path="url(#p164bfceaf0)" style="fill: #1f77b4"/>
   </g>
   <g id="patch_38">
    <path d="M 186.015618 640.8 
L 188.385261 640.8 
L 188.385261 584.192377 
L 186.015618 584.192377 
z
" clip-path="url(#p164bfceaf0)" style="fill: #1f77b4"/>
   </g>
   <g id="patch_39">
    <path d="M 188.385261 640.8 
L 190.754903 640.8 
L 190.754903 367.317137 
L 188.385261 367.317137 
z
" clip-path="url(#p164bfceaf0)" style="fill: #1f77b4"/>
   </g>
   <g id="patch_40">
    <path d="M 190.754903 640.8 
L 193.124546 640.8 
L 193.124546 112.8 
L 190.754903 112.8 
z
" clip-path="url(#p164bfceaf0)" style="fill: #1f77b4"/>
   </g>
   <g id="patch_41">
    <path d="M 193.124546 640.8 
L 195.494189 640.8 
L 195.494189 192.716644 
L 193.124546 192.716644 
z
" clip-path="url(#p164bfceaf0)" style="fill: #1f77b4"/>
   </g>
   <g id="patch_42">
    <path d="M 195.494189 640.8 
L 197.863831 640.8 
L 197.863831 511.369783 
L 195.494189 511.369783 
z
" clip-path="url(#p164bfceaf0)" style="fill: #1f77b4"/>
   </g>
   <g id="patch_43">
    <path d="M 197.863831 640.8 
L 200.233474 640.8 
L 200.233474 626.467124 
L 197.863831 626.467124 
z
" clip-path="url(#p164bfceaf0)" style="fill: #1f77b4"/>
   </g>
   <g id="patch_44">
    <path d="M 200.233474 640.8 
L 202.603117 640.8 
L 202.603117 597.511818 
L 200.233474 597.511818 
z
" clip-path="url(#p164bfceaf0)" style="fill: #1f77b4"/>
   </g>
   <g id="patch_45">
    <path d="M 202.603117 640.8 
L 204.972759 640.8 
L 204.972759 412.197861 
L 202.603117 412.197861 
z
" clip-path="url(#p164bfceaf0)" style="fill: #1f77b4"/>
   </g>
   <g id="patch_46">
    <path d="M 204.972759 640.8 
L 207.342402 640.8 
L 207.342402 123.22391 
L 204.972759 123.22391 
z
" clip-path="url(#p164bfceaf0)" style="fill: #1f77b4"/>
   </g>
   <g id="patch_47">
    <path d="M 207.342402 640.8 
L 209.712045 640.8 
L 209.712045 194.164409 
L 207.342402 194.164409 
z
" clip-path="url(#p164bfceaf0)" style="fill: #1f77b4"/>
   </g>
   <g id="patch_48">
    <path d="M 209.712045 640.8 
L 212.081687 640.8 
L 212.081687 448.826323 
L 209.712045 448.826323 
z
" clip-path="url(#p164bfceaf0)" style="fill: #1f77b4"/>
   </g>
   <g id="patch_49">
    <path d="M 212.081687 640.8 
L 214.45133 640.8 
L 214.45133 615.029778 
L 212.081687 615.029778 
z
" clip-path="url(#p164bfceaf0)" style="fill: #1f77b4"/>
   </g>
   <g id="patch_50">
    <path d="M 214.45133 640.8 
L 216.820973 640.8 
L 216.820973 611.555141 
L 214.45133 611.555141 
z
" clip-path="url(#p164bfceaf0)" style="fill: #1f77b4"/>
   </g>
   <g id="patch_51">
    <path d="M 216.820973 640.8 
L 219.190615 640.8 
L 219.190615 466.633836 
L 216.820973 466.633836 
z
" clip-path="url(#p164bfceaf0)" style="fill: #1f77b4"/>
   </g>
   <g id="patch_52">
    <path d="M 219.190615 640.8 
L 221.560258 640.8 
L 221.560258 256.852646 
L 219.190615 256.852646 
z
" clip-path="url(#p164bfceaf0)" style="fill: #1f77b4"/>
   </g>
   <g id="patch_53">
    <path d="M 221.560258 640.8 
L 223.929901 640.8 
L 223.929901 174.040472 
L 221.560258 174.040472 
z
" clip-path="url(#p164bfceaf0)" style="fill: #1f77b4"/>
   </g>
   <g id="patch_54">
    <path d="M 223.929901 640.8 
L 226.299543 640.8 
L 226.299543 420.739676 
L 223.929901 420.739676 
z
" clip-path="url(#p164bfceaf0)" style="fill: #1f77b4"/>
   </g>
   <g id="patch_55">
    <path d="M 226.299543 640.8 
L 228.669186 640.8 
L 228.669186 593.747628 
L 226.299543 593.747628 
z
" clip-path="url(#p164bfceaf0)" style="fill: #1f77b4"/>
   </g>
   <g id="patch_56">
    <path d="M 228.669186 640.8 
L 231.038829 640.8 
L 231.038829 618.793968 
L 228.669186 618.793968 
z
" clip-path="url(#p164bfceaf0)" style="fill: #1f77b4"/>
   </g>
   <g id="patch_57">
    <path d="M 231.038829 640.8 
L 233.408471 640.8 
L 233.408471 533.375816 
L 231.038829 533.375816 
z
" clip-path="url(#p164bfceaf0)" style="fill: #1f77b4"/>
   </g>
   <g id="patch_58">
    <path d="M 233.408471 640.8 
L 235.778114 640.8 
L 235.778114 350.08873 
L 233.408471 350.08873 
z
" clip-path="url(#p164bfceaf0)" style="fill: #1f77b4"/>
   </g>
   <g id="patch_59">
    <path d="M 235.778114 640.8 
L 238.147757 640.8 
L 238.147757 279.003455 
L 235.778114 279.003455 
z
" clip-path="url(#p164bfceaf0)" style="fill: #1f77b4"/>
   </g>
   <g id="patch_60">
    <path d="M 238.147757 640.8 
L 240.517399 640.8 
L 240.517399 400.615739 
L 238.147757 400.615739 
z
" clip-path="url(#p164bfceaf0)" style="fill: #1f77b4"/>
   </g>
   <g id="patch_61">
    <path d="M 240.517399 640.8 
L 242.887042 640.8 
L 242.887042 575.361009 
L 240.517399 575.361009 
z
" clip-path="url(#p164bfceaf0)" style="fill: #1f77b4"/>
   </g>
   <g id="patch_62">
    <path d="M 242.887042 640.8 
L 245.256685 640.8 
L 245.256685 627.335783 
L 242.887042 627.335783 
z
" clip-path="url(#p164bfceaf0)" style="fill: #1f77b4"/>
   </g>
   <g id="patch_63">
    <path d="M 245.256685 640.8 
L 247.626327 640.8 
L 247.626327 582.310282 
L 245.256685 582.310282 
z
" clip-path="url(#p164bfceaf0)" style="fill: #1f77b4"/>
   </g>
   <g id="patch_64">
    <path d="M 247.626327 640.8 
L 249.99597 640.8 
L 249.99597 477.202523 
L 247.626327 477.202523 
z
" clip-path="url(#p164bfceaf0)" style="fill: #1f77b4"/>
   </g>
   <g id="patch_65">
    <path d="M 249.99597 640.8 
L 252.365613 640.8 
L 252.365613 391.639594 
L 249.99597 391.639594 
z
" clip-path="url(#p164bfceaf0)" style="fill: #1f77b4"/>
   </g>
   <g id="patch_66">
    <path d="M 252.365613 640.8 
L 254.735255 640.8 
L 254.735255 437.533754 
L 252.365613 437.533754 
z
" clip-path="url(#p164bfceaf0)" style="fill: #1f77b4"/>
   </g>
   <g id="patch_67">
    <path d="M 254.735255 640.8 
L 257.104898 640.8 
L 257.104898 568.701289 
L 254.735255 568.701289 
z
" clip-path="url(#p164bfceaf0)" style="fill: #1f77b4"/>
   </g>
   <g id="patch_68">
    <path d="M 257.104898 640.8 
L 259.474541 640.8 
L 259.474541 624.585029 
L 257.104898 624.585029 
z
" clip-path="url(#p164bfceaf0)" style="fill: #1f77b4"/>
   </g>
   <g id="patch_69">
    <path d="M 259.474541 640.8 
L 261.844183 640.8 
L 261.844183 612.279024 
L 259.474541 612.279024 
z
" clip-path="url(#p164bfceaf0)" style="fill: #1f77b4"/>
   </g>
   <g id="patch_70">
    <path d="M 261.844183 640.8 
L 264.213826 640.8 
L 264.213826 550.169893 
L 261.844183 550.169893 
z
" clip-path="url(#p164bfceaf0)" style="fill: #1f77b4"/>
   </g>
   <g id="patch_71">
    <path d="M 264.213826 640.8 
L 266.583469 640.8 
L 266.583469 476.768193 
L 264.213826 476.768193 
z
" clip-path="url(#p164bfceaf0)" style="fill: #1f77b4"/>
   </g>
   <g id="patch_72">
    <path d="M 266.583469 640.8 
L 268.953111 640.8 
L 268.953111 501.524979 
L 266.583469 501.524979 
z
" clip-path="url(#p164bfceaf0)" style="fill: #1f77b4"/>
   </g>
   <g id="patch_73">
    <path d="M 268.953111 640.8 
L 271.322754 640.8 
L 271.322754 572.899808 
L 268.953111 572.899808 
z
" clip-path="url(#p164bfceaf0)" style="fill: #1f77b4"/>
   </g>
   <g id="patch_74">
    <path d="M 271.322754 640.8 
L 273.692397 640.8 
L 273.692397 625.598464 
L 271.322754 625.598464 
z
" clip-path="url(#p164bfceaf0)" style="fill: #1f77b4"/>
   </g>
   <g id="patch_75">
    <path d="M 273.692397 640.8 
L 276.062039 640.8 
L 276.062039 629.217878 
L 273.692397 629.217878 
z
" clip-path="url(#p164bfceaf0)" style="fill: #1f77b4"/>
   </g>
   <g id="patch_76">
    <path d="M 276.062039 640.8 
L 278.431682 640.8 
L 278.431682 599.538689 
L 276.062039 599.538689 
z
" clip-path="url(#p164bfceaf0)" style="fill: #1f77b4"/>
   </g>
   <g id="patch_77">
    <path d="M 278.431682 640.8 
L 280.801325 640.8 
L 280.801325 553.065424 
L 278.431682 553.065424 
z
" clip-path="url(#p164bfceaf0)" style="fill: #1f77b4"/>
   </g>
   <g id="patch_78">
    <path d="M 280.801325 640.8 
L 283.170967 640.8 
L 283.170967 550.748999 
L 280.801325 550.748999 
z
" clip-path="url(#p164bfceaf0)" style="fill: #1f77b4"/>
   </g>
   <g id="patch_79">
    <path d="M 283.170967 640.8 
L 285.54061 640.8 
L 285.54061 580.862517 
L 283.170967 580.862517 
z
" clip-path="url(#p164bfceaf0)" style="fill: #1f77b4"/>
   </g>
   <g id="patch_80">
    <path d="M 285.54061 640.8 
L 287.910253 640.8 
L 287.910253 623.71637 
L 285.54061 623.71637 
z
" clip-path="url(#p164bfceaf0)" style="fill: #1f77b4"/>
   </g>
   <g id="patch_81">
    <path d="M 287.910253 640.8 
L 290.279895 640.8 
L 290.279895 634.285056 
L 287.910253 634.285056 
z
" clip-path="url(#p164bfceaf0)" style="fill: #1f77b4"/>
   </g>
   <g id="patch_82">
    <path d="M 290.279895 640.8 
L 292.649538 640.8 
L 292.649538 625.308911 
L 290.279895 625.308911 
z
" clip-path="url(#p164bfceaf0)" style="fill: #1f77b4"/>
   </g>
   <g id="patch_83">
    <path d="M 292.649538 640.8 
L 295.019181 640.8 
L 295.019181 605.184974 
L 292.649538 605.184974 
z
" clip-path="url(#p164bfceaf0)" style="fill: #1f77b4"/>
   </g>
   <g id="patch_84">
    <path d="M 295.019181 640.8 
L 297.388823 640.8 
L 297.388823 594.90584 
L 295.019181 594.90584 
z
" clip-path="url(#p164bfceaf0)" style="fill: #1f77b4"/>
   </g>
   <g id="patch_85">
    <path d="M 297.388823 640.8 
L 299.758466 640.8 
L 299.758466 604.026762 
L 297.388823 604.026762 
z
" clip-path="url(#p164bfceaf0)" style="fill: #1f77b4"/>
   </g>
   <g id="patch_86">
    <path d="M 299.758466 640.8 
L 302.128108 640.8 
L 302.128108 627.914889 
L 299.758466 627.914889 
z
" clip-path="url(#p164bfceaf0)" style="fill: #1f77b4"/>
   </g>
   <g id="patch_87">
    <path d="M 302.128108 640.8 
L 304.497751 640.8 
L 304.497751 636.456704 
L 302.128108 636.456704 
z
" clip-path="url(#p164bfceaf0)" style="fill: #1f77b4"/>
   </g>
   <g id="patch_88">
    <path d="M 304.497751 640.8 
L 306.867394 640.8 
L 306.867394 635.877598 
L 304.497751 635.877598 
z
" clip-path="url(#p164bfceaf0)" style="fill: #1f77b4"/>
   </g>
   <g id="patch_89">
    <path d="M 306.867394 640.8 
L 309.237036 640.8 
L 309.237036 624.729805 
L 306.867394 624.729805 
z
" clip-path="url(#p164bfceaf0)" style="fill: #1f77b4"/>
   </g>
   <g id="patch_90">
    <path d="M 309.237036 640.8 
L 311.606679 640.8 
L 311.606679 618.070085 
L 309.237036 618.070085 
z
" clip-path="url(#p164bfceaf0)" style="fill: #1f77b4"/>
   </g>
   <g id="patch_91">
    <path d="M 311.606679 640.8 
L 313.976322 640.8 
L 313.976322 618.504415 
L 311.606679 618.504415 
z
" clip-path="url(#p164bfceaf0)" style="fill: #1f77b4"/>
   </g>
   <g id="patch_92">
    <path d="M 313.976322 640.8 
L 316.345964 640.8 
L 316.345964 630.665643 
L 313.976322 630.665643 
z
" clip-path="url(#p164bfceaf0)" style="fill: #1f77b4"/>
   </g>
   <g id="patch_93">
    <path d="M 316.345964 640.8 
L 318.715607 640.8 
L 318.715607 638.049246 
L 316.345964 638.049246 
z
" clip-path="url(#p164bfceaf0)" style="fill: #1f77b4"/>
   </g>
   <g id="patch_94">
    <path d="M 318.715607 640.8 
L 321.08525 640.8 
L 321.08525 638.338799 
L 318.715607 638.338799 
z
" clip-path="url(#p164bfceaf0)" style="fill: #1f77b4"/>
   </g>
   <g id="patch_95">
    <path d="M 321.08525 640.8 
L 323.454892 640.8 
L 323.454892 636.311928 
L 321.08525 636.311928 
z
" clip-path="url(#p164bfceaf0)" style="fill: #1f77b4"/>
   </g>
   <g id="patch_96">
    <path d="M 323.454892 640.8 
L 325.824535 640.8 
L 325.824535 632.547738 
L 323.454892 632.547738 
z
" clip-path="url(#p164bfceaf0)" style="fill: #1f77b4"/>
   </g>
   <g id="patch_97">
    <path d="M 325.824535 640.8 
L 328.194178 640.8 
L 328.194178 634.719386 
L 325.824535 634.719386 
z
" clip-path="url(#p164bfceaf0)" style="fill: #1f77b4"/>
   </g>
   <g id="patch_98">
    <path d="M 328.194178 640.8 
L 330.56382 640.8 
L 330.56382 635.008939 
L 328.194178 635.008939 
z
" clip-path="url(#p164bfceaf0)" style="fill: #1f77b4"/>
   </g>
   <g id="patch_99">
    <path d="M 330.56382 640.8 
L 332.933463 640.8 
L 332.933463 639.062682 
L 330.56382 639.062682 
z
" clip-path="url(#p164bfceaf0)" style="fill: #1f77b4"/>
   </g>
   <g id="patch_100">
    <path d="M 332.933463 640.8 
L 335.303106 640.8 
L 335.303106 640.220894 
L 332.933463 640.220894 
z
" clip-path="url(#p164bfceaf0)" style="fill: #1f77b4"/>
   </g>
   <g id="patch_101">
    <path d="M 335.303106 640.8 
L 337.672748 640.8 
L 337.672748 639.352235 
L 335.303106 639.352235 
z
" clip-path="url(#p164bfceaf0)" style="fill: #1f77b4"/>
   </g>
   <g id="patch_102">
    <path d="M 337.672748 640.8 
L 340.042391 640.8 
L 340.042391 636.601481 
L 337.672748 636.601481 
z
" clip-path="url(#p164bfceaf0)" style="fill: #1f77b4"/>
   </g>
   <g id="patch_103">
    <path d="M 340.042391 640.8 
L 342.412034 640.8 
L 342.412034 637.180587 
L 340.042391 637.180587 
z
" clip-path="url(#p164bfceaf0)" style="fill: #1f77b4"/>
   </g>
   <g id="patch_104">
    <path d="M 342.412034 640.8 
L 344.781676 640.8 
L 344.781676 637.47014 
L 342.412034 637.47014 
z
" clip-path="url(#p164bfceaf0)" style="fill: #1f77b4"/>
   </g>
   <g id="patch_105">
    <path d="M 344.781676 640.8 
L 347.151319 640.8 
L 347.151319 639.497011 
L 344.781676 639.497011 
z
" clip-path="url(#p164bfceaf0)" style="fill: #1f77b4"/>
   </g>
   <g id="patch_106">
    <path d="M 347.151319 640.8 
L 349.520962 640.8 
L 349.520962 640.655223 
L 347.151319 640.655223 
z
" clip-path="url(#p164bfceaf0)" style="fill: #1f77b4"/>
   </g>
   <g id="patch_107">
    <path d="M 349.520962 640.8 
L 351.890604 640.8 
L 351.890604 639.931341 
L 349.520962 639.931341 
z
" clip-path="url(#p164bfceaf0)" style="fill: #1f77b4"/>
   </g>
   <g id="patch_108">
    <path d="M 351.890604 640.8 
L 354.260247 640.8 
L 354.260247 640.076117 
L 351.890604 640.076117 
z
" clip-path="url(#p164bfceaf0)" style="fill: #1f77b4"/>
   </g>
   <g id="patch_109">
    <path d="M 354.260247 640.8 
L 356.62989 640.8 
L 356.62989 640.220894 
L 354.260247 640.220894 
z
" clip-path="url(#p164bfceaf0)" style="fill: #1f77b4"/>
   </g>
   <g id="patch_110">
    <path d="M 356.62989 640.8 
L 358.999532 640.8 
L 358.999532 640.076117 
L 356.62989 640.076117 
z
" clip-path="url(#p164bfceaf0)" style="fill: #1f77b4"/>
   </g>
   <g id="patch_111">
    <path d="M 358.999532 640.8 
L 361.369175 640.8 
L 361.369175 640.220894 
L 358.999532 640.220894 
z
" clip-path="url(#p164bfceaf0)" style="fill: #1f77b4"/>
   </g>
   <g id="patch_112">
    <path d="M 361.369175 640.8 
L 363.738818 640.8 
L 363.738818 640.8 
L 361.369175 640.8 
z
" clip-path="url(#p164bfceaf0)" style="fill: #1f77b4"/>
   </g>
   <g id="patch_113">
    <path d="M 363.738818 640.8 
L 366.10846 640.8 
L 366.10846 640.8 
L 363.738818 640.8 
z
" clip-path="url(#p164bfceaf0)" style="fill: #1f77b4"/>
   </g>
   <g id="patch_114">
    <path d="M 366.10846 640.8 
L 368.478103 640.8 
L 368.478103 640.510447 
L 366.10846 640.510447 
z
" clip-path="url(#p164bfceaf0)" style="fill: #1f77b4"/>
   </g>
   <g id="patch_115">
    <path d="M 368.478103 640.8 
L 370.847746 640.8 
L 370.847746 640.655223 
L 368.478103 640.655223 
z
" clip-path="url(#p164bfceaf0)" style="fill: #1f77b4"/>
   </g>
   <g id="patch_116">
    <path d="M 370.847746 640.8 
L 373.217388 640.8 
L 373.217388 640.36567 
L 370.847746 640.36567 
z
" clip-path="url(#p164bfceaf0)" style="fill: #1f77b4"/>
   </g>
   <g id="patch_117">
    <path d="M 373.217388 640.8 
L 375.587031 640.8 
L 375.587031 640.655223 
L 373.217388 640.655223 
z
" clip-path="url(#p164bfceaf0)" style="fill: #1f77b4"/>
   </g>
   <g id="patch_118">
    <path d="M 375.587031 640.8 
L 377.956674 640.8 
L 377.956674 640.8 
L 375.587031 640.8 
z
" clip-path="url(#p164bfceaf0)" style="fill: #1f77b4"/>
   </g>
   <g id="patch_119">
    <path d="M 377.956674 640.8 
L 380.326316 640.8 
L 380.326316 640.8 
L 377.956674 640.8 
z
" clip-path="url(#p164bfceaf0)" style="fill: #1f77b4"/>
   </g>
   <g id="patch_120">
    <path d="M 380.326316 640.8 
L 382.695959 640.8 
L 382.695959 640.655223 
L 380.326316 640.655223 
z
" clip-path="url(#p164bfceaf0)" style="fill: #1f77b4"/>
   </g>
   <g id="patch_121">
    <path d="M 382.695959 640.8 
L 385.065602 640.8 
L 385.065602 640.655223 
L 382.695959 640.655223 
z
" clip-path="url(#p164bfceaf0)" style="fill: #1f77b4"/>
   </g>
   <g id="patch_122">
    <path d="M 385.065602 640.8 
L 387.435244 640.8 
L 387.435244 640.8 
L 385.065602 640.8 
z
" clip-path="url(#p164bfceaf0)" style="fill: #1f77b4"/>
   </g>
   <g id="patch_123">
    <path d="M 387.435244 640.8 
L 389.804887 640.8 
L 389.804887 640.510447 
L 387.435244 640.510447 
z
" clip-path="url(#p164bfceaf0)" style="fill: #1f77b4"/>
   </g>
   <g id="patch_124">
    <path d="M 389.804887 640.8 
L 392.17453 640.8 
L 392.17453 640.8 
L 389.804887 640.8 
z
" clip-path="url(#p164bfceaf0)" style="fill: #1f77b4"/>
   </g>
   <g id="patch_125">
    <path d="M 392.17453 640.8 
L 394.544172 640.8 
L 394.544172 640.8 
L 392.17453 640.8 
z
" clip-path="url(#p164bfceaf0)" style="fill: #1f77b4"/>
   </g>
   <g id="patch_126">
    <path d="M 394.544172 640.8 
L 396.913815 640.8 
L 396.913815 640.655223 
L 394.544172 640.655223 
z
" clip-path="url(#p164bfceaf0)" style="fill: #1f77b4"/>
   </g>
   <g id="patch_127">
    <path d="M 396.913815 640.8 
L 399.283458 640.8 
L 399.283458 640.8 
L 396.913815 640.8 
z
" clip-path="url(#p164bfceaf0)" style="fill: #1f77b4"/>
   </g>
   <g id="patch_128">
    <path d="M 399.283458 640.8 
L 401.6531 640.8 
L 401.6531 640.655223 
L 399.283458 640.655223 
z
" clip-path="url(#p164bfceaf0)" style="fill: #1f77b4"/>
   </g>
   <g id="patch_129">
    <path d="M 401.6531 640.8 
L 404.022743 640.8 
L 404.022743 640.8 
L 401.6531 640.8 
z
" clip-path="url(#p164bfceaf0)" style="fill: #1f77b4"/>
   </g>
   <g id="patch_130">
    <path d="M 404.022743 640.8 
L 406.392386 640.8 
L 406.392386 640.8 
L 404.022743 640.8 
z
" clip-path="url(#p164bfceaf0)" style="fill: #1f77b4"/>
   </g>
   <g id="patch_131">
    <path d="M 406.392386 640.8 
L 408.762028 640.8 
L 408.762028 640.8 
L 406.392386 640.8 
z
" clip-path="url(#p164bfceaf0)" style="fill: #1f77b4"/>
   </g>
   <g id="patch_132">
    <path d="M 408.762028 640.8 
L 411.131671 640.8 
L 411.131671 640.8 
L 408.762028 640.8 
z
" clip-path="url(#p164bfceaf0)" style="fill: #1f77b4"/>
   </g>
   <g id="patch_133">
    <path d="M 411.131671 640.8 
L 413.501314 640.8 
L 413.501314 640.8 
L 411.131671 640.8 
z
" clip-path="url(#p164bfceaf0)" style="fill: #1f77b4"/>
   </g>
   <g id="patch_134">
    <path d="M 413.501314 640.8 
L 415.870956 640.8 
L 415.870956 640.8 
L 413.501314 640.8 
z
" clip-path="url(#p164bfceaf0)" style="fill: #1f77b4"/>
   </g>
   <g id="patch_135">
    <path d="M 415.870956 640.8 
L 418.240599 640.8 
L 418.240599 640.8 
L 415.870956 640.8 
z
" clip-path="url(#p164bfceaf0)" style="fill: #1f77b4"/>
   </g>
   <g id="patch_136">
    <path d="M 418.240599 640.8 
L 420.610242 640.8 
L 420.610242 640.8 
L 418.240599 640.8 
z
" clip-path="url(#p164bfceaf0)" style="fill: #1f77b4"/>
   </g>
   <g id="patch_137">
    <path d="M 420.610242 640.8 
L 422.979884 640.8 
L 422.979884 640.8 
L 420.610242 640.8 
z
" clip-path="url(#p164bfceaf0)" style="fill: #1f77b4"/>
   </g>
   <g id="patch_138">
    <path d="M 422.979884 640.8 
L 425.349527 640.8 
L 425.349527 640.8 
L 422.979884 640.8 
z
" clip-path="url(#p164bfceaf0)" style="fill: #1f77b4"/>
   </g>
   <g id="patch_139">
    <path d="M 425.349527 640.8 
L 427.71917 640.8 
L 427.71917 640.8 
L 425.349527 640.8 
z
" clip-path="url(#p164bfceaf0)" style="fill: #1f77b4"/>
   </g>
   <g id="patch_140">
    <path d="M 427.71917 640.8 
L 430.088812 640.8 
L 430.088812 640.8 
L 427.71917 640.8 
z
" clip-path="url(#p164bfceaf0)" style="fill: #1f77b4"/>
   </g>
   <g id="patch_141">
    <path d="M 430.088812 640.8 
L 432.458455 640.8 
L 432.458455 640.8 
L 430.088812 640.8 
z
" clip-path="url(#p164bfceaf0)" style="fill: #1f77b4"/>
   </g>
   <g id="patch_142">
    <path d="M 432.458455 640.8 
L 434.828097 640.8 
L 434.828097 640.8 
L 432.458455 640.8 
z
" clip-path="url(#p164bfceaf0)" style="fill: #1f77b4"/>
   </g>
   <g id="patch_143">
    <path d="M 434.828097 640.8 
L 437.19774 640.8 
L 437.19774 640.8 
L 434.828097 640.8 
z
" clip-path="url(#p164bfceaf0)" style="fill: #1f77b4"/>
   </g>
   <g id="patch_144">
    <path d="M 437.19774 640.8 
L 439.567383 640.8 
L 439.567383 640.655223 
L 437.19774 640.655223 
z
" clip-path="url(#p164bfceaf0)" style="fill: #1f77b4"/>
   </g>
   <g id="matplotlib.axis_1">
    <g id="xtick_1">
     <g id="line2d_1">
      <defs>
       <path id="m047e5dce3c" d="M 0 0 
L 0 3.5 
" style="stroke: #000000; stroke-width: 0.8"/>
      </defs>
      <g>
       <use xlink:href="#m047e5dce3c" x="157.979004" y="640.8" style="stroke: #000000; stroke-width: 0.8"/>
      </g>
     </g>
     <g id="text_1">
      <!-- 500 -->
      <g transform="translate(148.435254 655.398438)scale(0.1 -0.1)">
       <defs>
        <path id="DejaVuSans-35" d="M 691 4666 
L 3169 4666 
L 3169 4134 
L 1269 4134 
L 1269 2991 
Q 1406 3038 1543 3061 
Q 1681 3084 1819 3084 
Q 2600 3084 3056 2656 
Q 3513 2228 3513 1497 
Q 3513 744 3044 326 
Q 2575 -91 1722 -91 
Q 1428 -91 1123 -41 
Q 819 9 494 109 
L 494 744 
Q 775 591 1075 516 
Q 1375 441 1709 441 
Q 2250 441 2565 725 
Q 2881 1009 2881 1497 
Q 2881 1984 2565 2268 
Q 2250 2553 1709 2553 
Q 1456 2553 1204 2497 
Q 953 2441 691 2322 
L 691 4666 
z
" transform="scale(0.015625)"/>
        <path id="DejaVuSans-30" d="M 2034 4250 
Q 1547 4250 1301 3770 
Q 1056 3291 1056 2328 
Q 1056 1369 1301 889 
Q 1547 409 2034 409 
Q 2525 409 2770 889 
Q 3016 1369 3016 2328 
Q 3016 3291 2770 3770 
Q 2525 4250 2034 4250 
z
M 2034 4750 
Q 2819 4750 3233 4129 
Q 3647 3509 3647 2328 
Q 3647 1150 3233 529 
Q 2819 -91 2034 -91 
Q 1250 -91 836 529 
Q 422 1150 422 2328 
Q 422 3509 836 4129 
Q 1250 4750 2034 4750 
z
" transform="scale(0.015625)"/>
       </defs>
       <use xlink:href="#DejaVuSans-35"/>
       <use xlink:href="#DejaVuSans-30" x="63.623047"/>
       <use xlink:href="#DejaVuSans-30" x="127.246094"/>
      </g>
     </g>
    </g>
    <g id="xtick_2">
     <g id="line2d_2">
      <g>
       <use xlink:href="#m047e5dce3c" x="226.094238" y="640.8" style="stroke: #000000; stroke-width: 0.8"/>
      </g>
     </g>
     <g id="text_2">
      <!-- 1000 -->
      <g transform="translate(213.369238 655.398438)scale(0.1 -0.1)">
       <defs>
        <path id="DejaVuSans-31" d="M 794 531 
L 1825 531 
L 1825 4091 
L 703 3866 
L 703 4441 
L 1819 4666 
L 2450 4666 
L 2450 531 
L 3481 531 
L 3481 0 
L 794 0 
L 794 531 
z
" transform="scale(0.015625)"/>
       </defs>
       <use xlink:href="#DejaVuSans-31"/>
       <use xlink:href="#DejaVuSans-30" x="63.623047"/>
       <use xlink:href="#DejaVuSans-30" x="127.246094"/>
       <use xlink:href="#DejaVuSans-30" x="190.869141"/>
      </g>
     </g>
    </g>
    <g id="xtick_3">
     <g id="line2d_3">
      <g>
       <use xlink:href="#m047e5dce3c" x="294.209473" y="640.8" style="stroke: #000000; stroke-width: 0.8"/>
      </g>
     </g>
     <g id="text_3">
      <!-- 1500 -->
      <g transform="translate(281.484473 655.398438)scale(0.1 -0.1)">
       <use xlink:href="#DejaVuSans-31"/>
       <use xlink:href="#DejaVuSans-35" x="63.623047"/>
       <use xlink:href="#DejaVuSans-30" x="127.246094"/>
       <use xlink:href="#DejaVuSans-30" x="190.869141"/>
      </g>
     </g>
    </g>
    <g id="xtick_4">
     <g id="line2d_4">
      <g>
       <use xlink:href="#m047e5dce3c" x="362.324707" y="640.8" style="stroke: #000000; stroke-width: 0.8"/>
      </g>
     </g>
     <g id="text_4">
      <!-- 2000 -->
      <g transform="translate(349.599707 655.398438)scale(0.1 -0.1)">
       <defs>
        <path id="DejaVuSans-32" d="M 1228 531 
L 3431 531 
L 3431 0 
L 469 0 
L 469 531 
Q 828 903 1448 1529 
Q 2069 2156 2228 2338 
Q 2531 2678 2651 2914 
Q 2772 3150 2772 3378 
Q 2772 3750 2511 3984 
Q 2250 4219 1831 4219 
Q 1534 4219 1204 4116 
Q 875 4013 500 3803 
L 500 4441 
Q 881 4594 1212 4672 
Q 1544 4750 1819 4750 
Q 2544 4750 2975 4387 
Q 3406 4025 3406 3419 
Q 3406 3131 3298 2873 
Q 3191 2616 2906 2266 
Q 2828 2175 2409 1742 
Q 1991 1309 1228 531 
z
" transform="scale(0.015625)"/>
       </defs>
       <use xlink:href="#DejaVuSans-32"/>
       <use xlink:href="#DejaVuSans-30" x="63.623047"/>
       <use xlink:href="#DejaVuSans-30" x="127.246094"/>
       <use xlink:href="#DejaVuSans-30" x="190.869141"/>
      </g>
     </g>
    </g>
    <g id="xtick_5">
     <g id="line2d_5">
      <g>
       <use xlink:href="#m047e5dce3c" x="430.439941" y="640.8" style="stroke: #000000; stroke-width: 0.8"/>
      </g>
     </g>
     <g id="text_5">
      <!-- 2500 -->
      <g transform="translate(417.714941 655.398438)scale(0.1 -0.1)">
       <use xlink:href="#DejaVuSans-32"/>
       <use xlink:href="#DejaVuSans-35" x="63.623047"/>
       <use xlink:href="#DejaVuSans-30" x="127.246094"/>
       <use xlink:href="#DejaVuSans-30" x="190.869141"/>
      </g>
     </g>
    </g>
    <g id="xtick_6">
     <g id="line2d_6">
      <g>
       <use xlink:href="#m047e5dce3c" x="498.555176" y="640.8" style="stroke: #000000; stroke-width: 0.8"/>
      </g>
     </g>
     <g id="text_6">
      <!-- 3000 -->
      <g transform="translate(485.830176 655.398438)scale(0.1 -0.1)">
       <defs>
        <path id="DejaVuSans-33" d="M 2597 2516 
Q 3050 2419 3304 2112 
Q 3559 1806 3559 1356 
Q 3559 666 3084 287 
Q 2609 -91 1734 -91 
Q 1441 -91 1130 -33 
Q 819 25 488 141 
L 488 750 
Q 750 597 1062 519 
Q 1375 441 1716 441 
Q 2309 441 2620 675 
Q 2931 909 2931 1356 
Q 2931 1769 2642 2001 
Q 2353 2234 1838 2234 
L 1294 2234 
L 1294 2753 
L 1863 2753 
Q 2328 2753 2575 2939 
Q 2822 3125 2822 3475 
Q 2822 3834 2567 4026 
Q 2313 4219 1838 4219 
Q 1578 4219 1281 4162 
Q 984 4106 628 3988 
L 628 4550 
Q 988 4650 1302 4700 
Q 1616 4750 1894 4750 
Q 2613 4750 3031 4423 
Q 3450 4097 3450 3541 
Q 3450 3153 3228 2886 
Q 3006 2619 2597 2516 
z
" transform="scale(0.015625)"/>
       </defs>
       <use xlink:href="#DejaVuSans-33"/>
       <use xlink:href="#DejaVuSans-30" x="63.623047"/>
       <use xlink:href="#DejaVuSans-30" x="127.246094"/>
       <use xlink:href="#DejaVuSans-30" x="190.869141"/>
      </g>
     </g>
    </g>
    <g id="xtick_7">
     <g id="line2d_7">
      <g>
       <use xlink:href="#m047e5dce3c" x="566.67041" y="640.8" style="stroke: #000000; stroke-width: 0.8"/>
      </g>
     </g>
     <g id="text_7">
      <!-- 3500 -->
      <g transform="translate(553.94541 655.398438)scale(0.1 -0.1)">
       <use xlink:href="#DejaVuSans-33"/>
       <use xlink:href="#DejaVuSans-35" x="63.623047"/>
       <use xlink:href="#DejaVuSans-30" x="127.246094"/>
       <use xlink:href="#DejaVuSans-30" x="190.869141"/>
      </g>
     </g>
    </g>
    <g id="xtick_8">
     <g id="line2d_8">
      <g>
       <use xlink:href="#m047e5dce3c" x="634.785645" y="640.8" style="stroke: #000000; stroke-width: 0.8"/>
      </g>
     </g>
     <g id="text_8">
      <!-- 4000 -->
      <g transform="translate(622.060645 655.398438)scale(0.1 -0.1)">
       <defs>
        <path id="DejaVuSans-34" d="M 2419 4116 
L 825 1625 
L 2419 1625 
L 2419 4116 
z
M 2253 4666 
L 3047 4666 
L 3047 1625 
L 3713 1625 
L 3713 1100 
L 3047 1100 
L 3047 0 
L 2419 0 
L 2419 1100 
L 313 1100 
L 313 1709 
L 2253 4666 
z
" transform="scale(0.015625)"/>
       </defs>
       <use xlink:href="#DejaVuSans-34"/>
       <use xlink:href="#DejaVuSans-30" x="63.623047"/>
       <use xlink:href="#DejaVuSans-30" x="127.246094"/>
       <use xlink:href="#DejaVuSans-30" x="190.869141"/>
      </g>
     </g>
    </g>
    <g id="text_9">
     <!-- Collisions for hash table's cell -->
     <g transform="translate(220.942187 676.675)scale(0.2 -0.2)">
      <defs>
       <path id="DejaVuSans-43" d="M 4122 4306 
L 4122 3641 
Q 3803 3938 3442 4084 
Q 3081 4231 2675 4231 
Q 1875 4231 1450 3742 
Q 1025 3253 1025 2328 
Q 1025 1406 1450 917 
Q 1875 428 2675 428 
Q 3081 428 3442 575 
Q 3803 722 4122 1019 
L 4122 359 
Q 3791 134 3420 21 
Q 3050 -91 2638 -91 
Q 1578 -91 968 557 
Q 359 1206 359 2328 
Q 359 3453 968 4101 
Q 1578 4750 2638 4750 
Q 3056 4750 3426 4639 
Q 3797 4528 4122 4306 
z
" transform="scale(0.015625)"/>
       <path id="DejaVuSans-6f" d="M 1959 3097 
Q 1497 3097 1228 2736 
Q 959 2375 959 1747 
Q 959 1119 1226 758 
Q 1494 397 1959 397 
Q 2419 397 2687 759 
Q 2956 1122 2956 1747 
Q 2956 2369 2687 2733 
Q 2419 3097 1959 3097 
z
M 1959 3584 
Q 2709 3584 3137 3096 
Q 3566 2609 3566 1747 
Q 3566 888 3137 398 
Q 2709 -91 1959 -91 
Q 1206 -91 779 398 
Q 353 888 353 1747 
Q 353 2609 779 3096 
Q 1206 3584 1959 3584 
z
" transform="scale(0.015625)"/>
       <path id="DejaVuSans-6c" d="M 603 4863 
L 1178 4863 
L 1178 0 
L 603 0 
L 603 4863 
z
" transform="scale(0.015625)"/>
       <path id="DejaVuSans-69" d="M 603 3500 
L 1178 3500 
L 1178 0 
L 603 0 
L 603 3500 
z
M 603 4863 
L 1178 4863 
L 1178 4134 
L 603 4134 
L 603 4863 
z
" transform="scale(0.015625)"/>
       <path id="DejaVuSans-73" d="M 2834 3397 
L 2834 2853 
Q 2591 2978 2328 3040 
Q 2066 3103 1784 3103 
Q 1356 3103 1142 2972 
Q 928 2841 928 2578 
Q 928 2378 1081 2264 
Q 1234 2150 1697 2047 
L 1894 2003 
Q 2506 1872 2764 1633 
Q 3022 1394 3022 966 
Q 3022 478 2636 193 
Q 2250 -91 1575 -91 
Q 1294 -91 989 -36 
Q 684 19 347 128 
L 347 722 
Q 666 556 975 473 
Q 1284 391 1588 391 
Q 1994 391 2212 530 
Q 2431 669 2431 922 
Q 2431 1156 2273 1281 
Q 2116 1406 1581 1522 
L 1381 1569 
Q 847 1681 609 1914 
Q 372 2147 372 2553 
Q 372 3047 722 3315 
Q 1072 3584 1716 3584 
Q 2034 3584 2315 3537 
Q 2597 3491 2834 3397 
z
" transform="scale(0.015625)"/>
       <path id="DejaVuSans-6e" d="M 3513 2113 
L 3513 0 
L 2938 0 
L 2938 2094 
Q 2938 2591 2744 2837 
Q 2550 3084 2163 3084 
Q 1697 3084 1428 2787 
Q 1159 2491 1159 1978 
L 1159 0 
L 581 0 
L 581 3500 
L 1159 3500 
L 1159 2956 
Q 1366 3272 1645 3428 
Q 1925 3584 2291 3584 
Q 2894 3584 3203 3211 
Q 3513 2838 3513 2113 
z
" transform="scale(0.015625)"/>
       <path id="DejaVuSans-20" transform="scale(0.015625)"/>
       <path id="DejaVuSans-66" d="M 2375 4863 
L 2375 4384 
L 1825 4384 
Q 1516 4384 1395 4259 
Q 1275 4134 1275 3809 
L 1275 3500 
L 2222 3500 
L 2222 3053 
L 1275 3053 
L 1275 0 
L 697 0 
L 697 3053 
L 147 3053 
L 147 3500 
L 697 3500 
L 697 3744 
Q 697 4328 969 4595 
Q 1241 4863 1831 4863 
L 2375 4863 
z
" transform="scale(0.015625)"/>
       <path id="DejaVuSans-72" d="M 2631 2963 
Q 2534 3019 2420 3045 
Q 2306 3072 2169 3072 
Q 1681 3072 1420 2755 
Q 1159 2438 1159 1844 
L 1159 0 
L 581 0 
L 581 3500 
L 1159 3500 
L 1159 2956 
Q 1341 3275 1631 3429 
Q 1922 3584 2338 3584 
Q 2397 3584 2469 3576 
Q 2541 3569 2628 3553 
L 2631 2963 
z
" transform="scale(0.015625)"/>
       <path id="DejaVuSans-68" d="M 3513 2113 
L 3513 0 
L 2938 0 
L 2938 2094 
Q 2938 2591 2744 2837 
Q 2550 3084 2163 3084 
Q 1697 3084 1428 2787 
Q 1159 2491 1159 1978 
L 1159 0 
L 581 0 
L 581 4863 
L 1159 4863 
L 1159 2956 
Q 1366 3272 1645 3428 
Q 1925 3584 2291 3584 
Q 2894 3584 3203 3211 
Q 3513 2838 3513 2113 
z
" transform="scale(0.015625)"/>
       <path id="DejaVuSans-61" d="M 2194 1759 
Q 1497 1759 1228 1600 
Q 959 1441 959 1056 
Q 959 750 1161 570 
Q 1363 391 1709 391 
Q 2188 391 2477 730 
Q 2766 1069 2766 1631 
L 2766 1759 
L 2194 1759 
z
M 3341 1997 
L 3341 0 
L 2766 0 
L 2766 531 
Q 2569 213 2275 61 
Q 1981 -91 1556 -91 
Q 1019 -91 701 211 
Q 384 513 384 1019 
Q 384 1609 779 1909 
Q 1175 2209 1959 2209 
L 2766 2209 
L 2766 2266 
Q 2766 2663 2505 2880 
Q 2244 3097 1772 3097 
Q 1472 3097 1187 3025 
Q 903 2953 641 2809 
L 641 3341 
Q 956 3463 1253 3523 
Q 1550 3584 1831 3584 
Q 2591 3584 2966 3190 
Q 3341 2797 3341 1997 
z
" transform="scale(0.015625)"/>
       <path id="DejaVuSans-74" d="M 1172 4494 
L 1172 3500 
L 2356 3500 
L 2356 3053 
L 1172 3053 
L 1172 1153 
Q 1172 725 1289 603 
Q 1406 481 1766 481 
L 2356 481 
L 2356 0 
L 1766 0 
Q 1100 0 847 248 
Q 594 497 594 1153 
L 594 3053 
L 172 3053 
L 172 3500 
L 594 3500 
L 594 4494 
L 1172 4494 
z
" transform="scale(0.015625)"/>
       <path id="DejaVuSans-62" d="M 3116 1747 
Q 3116 2381 2855 2742 
Q 2594 3103 2138 3103 
Q 1681 3103 1420 2742 
Q 1159 2381 1159 1747 
Q 1159 1113 1420 752 
Q 1681 391 2138 391 
Q 2594 391 2855 752 
Q 3116 1113 3116 1747 
z
M 1159 2969 
Q 1341 3281 1617 3432 
Q 1894 3584 2278 3584 
Q 2916 3584 3314 3078 
Q 3713 2572 3713 1747 
Q 3713 922 3314 415 
Q 2916 -91 2278 -91 
Q 1894 -91 1617 61 
Q 1341 213 1159 525 
L 1159 0 
L 581 0 
L 581 4863 
L 1159 4863 
L 1159 2969 
z
" transform="scale(0.015625)"/>
       <path id="DejaVuSans-65" d="M 3597 1894 
L 3597 1613 
L 953 1613 
Q 991 1019 1311 708 
Q 1631 397 2203 397 
Q 2534 397 2845 478 
Q 3156 559 3463 722 
L 3463 178 
Q 3153 47 2828 -22 
Q 2503 -91 2169 -91 
Q 1331 -91 842 396 
Q 353 884 353 1716 
Q 353 2575 817 3079 
Q 1281 3584 2069 3584 
Q 2775 3584 3186 3129 
Q 3597 2675 3597 1894 
z
M 3022 2063 
Q 3016 2534 2758 2815 
Q 2500 3097 2075 3097 
Q 1594 3097 1305 2825 
Q 1016 2553 972 2059 
L 3022 2063 
z
" transform="scale(0.015625)"/>
       <path id="DejaVuSans-27" d="M 1147 4666 
L 1147 2931 
L 616 2931 
L 616 4666 
L 1147 4666 
z
" transform="scale(0.015625)"/>
       <path id="DejaVuSans-63" d="M 3122 3366 
L 3122 2828 
Q 2878 2963 2633 3030 
Q 2388 3097 2138 3097 
Q 1578 3097 1268 2742 
Q 959 2388 959 1747 
Q 959 1106 1268 751 
Q 1578 397 2138 397 
Q 2388 397 2633 464 
Q 2878 531 3122 666 
L 3122 134 
Q 2881 22 2623 -34 
Q 2366 -91 2075 -91 
Q 1284 -91 818 406 
Q 353 903 353 1747 
Q 353 2603 823 3093 
Q 1294 3584 2113 3584 
Q 2378 3584 2631 3529 
Q 2884 3475 3122 3366 
z
" transform="scale(0.015625)"/>
      </defs>
      <use xlink:href="#DejaVuSans-43"/>
      <use xlink:href="#DejaVuSans-6f" x="69.824219"/>
      <use xlink:href="#DejaVuSans-6c" x="131.005859"/>
      <use xlink:href="#DejaVuSans-6c" x="158.789062"/>
      <use xlink:href="#DejaVuSans-69" x="186.572266"/>
      <use xlink:href="#DejaVuSans-73" x="214.355469"/>
      <use xlink:href="#DejaVuSans-69" x="266.455078"/>
      <use xlink:href="#DejaVuSans-6f" x="294.238281"/>
      <use xlink:href="#DejaVuSans-6e" x="355.419922"/>
      <use xlink:href="#DejaVuSans-73" x="418.798828"/>
      <use xlink:href="#DejaVuSans-20" x="470.898438"/>
      <use xlink:href="#DejaVuSans-66" x="502.685547"/>
      <use xlink:href="#DejaVuSans-6f" x="537.890625"/>
      <use xlink:href="#DejaVuSans-72" x="599.072266"/>
      <use xlink:href="#DejaVuSans-20" x="640.185547"/>
      <use xlink:href="#DejaVuSans-68" x="671.972656"/>
      <use xlink:href="#DejaVuSans-61" x="735.351562"/>
      <use xlink:href="#DejaVuSans-73" x="796.630859"/>
      <use xlink:href="#DejaVuSans-68" x="848.730469"/>
      <use xlink:href="#DejaVuSans-20" x="912.109375"/>
      <use xlink:href="#DejaVuSans-74" x="943.896484"/>
      <use xlink:href="#DejaVuSans-61" x="983.105469"/>
      <use xlink:href="#DejaVuSans-62" x="1044.384766"/>
      <use xlink:href="#DejaVuSans-6c" x="1107.861328"/>
      <use xlink:href="#DejaVuSans-65" x="1135.644531"/>
      <use xlink:href="#DejaVuSans-27" x="1197.167969"/>
      <use xlink:href="#DejaVuSans-73" x="1224.658203"/>
      <use xlink:href="#DejaVuSans-20" x="1276.757812"/>
      <use xlink:href="#DejaVuSans-63" x="1308.544922"/>
      <use xlink:href="#DejaVuSans-65" x="1363.525391"/>
      <use xlink:href="#DejaVuSans-6c" x="1425.048828"/>
      <use xlink:href="#DejaVuSans-6c" x="1452.832031"/>
     </g>
    </g>
   </g>
   <g id="matplotlib.axis_2"/>
   <g id="patch_145">
    <path d="M 90 640.8 
L 90 86.4 
" style="fill: none; stroke: #000000; stroke-width: 0.8; stroke-linejoin: miter; stroke-linecap: square"/>
   </g>
   <g id="patch_146">
    <path d="M 648 640.8 
L 648 86.4 
" style="fill: none; stroke: #000000; stroke-width: 0.8; stroke-linejoin: miter; stroke-linecap: square"/>
   </g>
   <g id="patch_147">
    <path d="M 90 640.8 
L 648 640.8 
" style="fill: none; stroke: #000000; stroke-width: 0.8; stroke-linejoin: miter; stroke-linecap: square"/>
   </g>
   <g id="patch_148">
    <path d="M 90 86.4 
L 648 86.4 
" style="fill: none; stroke: #000000; stroke-width: 0.8; stroke-linejoin: miter; stroke-linecap: square"/>
   </g>
   <g id="text_10">
    <!-- Distribution: Check sum hash -->
    <g transform="translate(280.618125 80.4)scale(0.12 -0.12)">
     <defs>
      <path id="DejaVuSans-44" d="M 1259 4147 
L 1259 519 
L 2022 519 
Q 2988 519 3436 956 
Q 3884 1394 3884 2338 
Q 3884 3275 3436 3711 
Q 2988 4147 2022 4147 
L 1259 4147 
z
M 628 4666 
L 1925 4666 
Q 3281 4666 3915 4102 
Q 4550 3538 4550 2338 
Q 4550 1131 3912 565 
Q 3275 0 1925 0 
L 628 0 
L 628 4666 
z
" transform="scale(0.015625)"/>
      <path id="DejaVuSans-75" d="M 544 1381 
L 544 3500 
L 1119 3500 
L 1119 1403 
Q 1119 906 1312 657 
Q 1506 409 1894 409 
Q 2359 409 2629 706 
Q 2900 1003 2900 1516 
L 2900 3500 
L 3475 3500 
L 3475 0 
L 2900 0 
L 2900 538 
Q 2691 219 2414 64 
Q 2138 -91 1772 -91 
Q 1169 -91 856 284 
Q 544 659 544 1381 
z
M 1991 3584 
L 1991 3584 
z
" transform="scale(0.015625)"/>
      <path id="DejaVuSans-3a" d="M 750 794 
L 1409 794 
L 1409 0 
L 750 0 
L 750 794 
z
M 750 3309 
L 1409 3309 
L 1409 2516 
L 750 2516 
L 750 3309 
z
" transform="scale(0.015625)"/>
      <path id="DejaVuSans-6b" d="M 581 4863 
L 1159 4863 
L 1159 1991 
L 2875 3500 
L 3609 3500 
L 1753 1863 
L 3688 0 
L 2938 0 
L 1159 1709 
L 1159 0 
L 581 0 
L 581 4863 
z
" transform="scale(0.015625)"/>
      <path id="DejaVuSans-6d" d="M 3328 2828 
Q 3544 3216 3844 3400 
Q 4144 3584 4550 3584 
Q 5097 3584 5394 3201 
Q 5691 2819 5691 2113 
L 5691 0 
L 5113 0 
L 5113 2094 
Q 5113 2597 4934 2840 
Q 4756 3084 4391 3084 
Q 3944 3084 3684 2787 
Q 3425 2491 3425 1978 
L 3425 0 
L 2847 0 
L 2847 2094 
Q 2847 2600 2669 2842 
Q 2491 3084 2119 3084 
Q 1678 3084 1418 2786 
Q 1159 2488 1159 1978 
L 1159 0 
L 581 0 
L 581 3500 
L 1159 3500 
L 1159 2956 
Q 1356 3278 1631 3431 
Q 1906 3584 2284 3584 
Q 2666 3584 2933 3390 
Q 3200 3197 3328 2828 
z
" transform="scale(0.015625)"/>
     </defs>
     <use xlink:href="#DejaVuSans-44"/>
     <use xlink:href="#DejaVuSans-69" x="77.001953"/>
     <use xlink:href="#DejaVuSans-73" x="104.785156"/>
     <use xlink:href="#DejaVuSans-74" x="156.884766"/>
     <use xlink:href="#DejaVuSans-72" x="196.09375"/>
     <use xlink:href="#DejaVuSans-69" x="237.207031"/>
     <use xlink:href="#DejaVuSans-62" x="264.990234"/>
     <use xlink:href="#DejaVuSans-75" x="328.466797"/>
     <use xlink:href="#DejaVuSans-74" x="391.845703"/>
     <use xlink:href="#DejaVuSans-69" x="431.054688"/>
     <use xlink:href="#DejaVuSans-6f" x="458.837891"/>
     <use xlink:href="#DejaVuSans-6e" x="520.019531"/>
     <use xlink:href="#DejaVuSans-3a" x="583.398438"/>
     <use xlink:href="#DejaVuSans-20" x="617.089844"/>
     <use xlink:href="#DejaVuSans-43" x="648.876953"/>
     <use xlink:href="#DejaVuSans-68" x="718.701172"/>
     <use xlink:href="#DejaVuSans-65" x="782.080078"/>
     <use xlink:href="#DejaVuSans-63" x="843.603516"/>
     <use xlink:href="#DejaVuSans-6b" x="898.583984"/>
     <use xlink:href="#DejaVuSans-20" x="956.494141"/>
     <use xlink:href="#DejaVuSans-73" x="988.28125"/>
     <use xlink:href="#DejaVuSans-75" x="1040.380859"/>
     <use xlink:href="#DejaVuSans-6d" x="1103.759766"/>
     <use xlink:href="#DejaVuSans-20" x="1201.171875"/>
     <use xlink:href="#DejaVuSans-68" x="1232.958984"/>
     <use xlink:href="#DejaVuSans-61" x="1296.337891"/>
     <use xlink:href="#DejaVuSans-73" x="1357.617188"/>
     <use xlink:href="#DejaVuSans-68" x="1409.716797"/>
    </g>
   </g>
  </g>
 </g>
 <defs>
  <clipPath id="p164bfceaf0">
   <rect x="90" y="86.4" width="558" height="554.4"/>
  </clipPath>
 </defs>
</svg>
