<?xml version="1.0" encoding="utf-8" standalone="no"?>
<!DOCTYPE svg PUBLIC "-//W3C//DTD SVG 1.1//EN"
  "http://www.w3.org/Graphics/SVG/1.1/DTD/svg11.dtd">
<svg xmlns:xlink="http://www.w3.org/1999/xlink" width="720pt" height="720pt" viewBox="0 0 720 720" xmlns="http://www.w3.org/2000/svg" version="1.1">
 <metadata>
  <rdf:RDF xmlns:dc="http://purl.org/dc/elements/1.1/" xmlns:cc="http://creativecommons.org/ns#" xmlns:rdf="http://www.w3.org/1999/02/22-rdf-syntax-ns#">
   <cc:Work>
    <dc:type rdf:resource="http://purl.org/dc/dcmitype/StillImage"/>
    <dc:date>2022-05-14T14:33:47.600652</dc:date>
    <dc:format>image/svg+xml</dc:format>
    <dc:creator>
     <cc:Agent>
      <dc:title>Matplotlib v3.5.2, https://matplotlib.org/</dc:title>
     </cc:Agent>
    </dc:creator>
   </cc:Work>
  </rdf:RDF>
 </metadata>
 <defs>
  <style type="text/css">*{stroke-linejoin: round; stroke-linecap: butt}</style>
 </defs>
 <g id="figure_1">
  <g id="patch_1">
   <path d="M 0 720 
L 720 720 
L 720 0 
L 0 0 
z
" style="fill: #ffffff"/>
  </g>
  <g id="axes_1">
   <g id="patch_2">
    <path d="M 90 640.8 
L 648 640.8 
L 648 86.4 
L 90 86.4 
z
" style="fill: #ffffff"/>
   </g>
   <g id="patch_3">
    <path d="M 115.363636 640.8 
L 130.283422 640.8 
L 130.283422 356.221979 
L 115.363636 356.221979 
z
" clip-path="url(#pd880df9301)" style="fill: #1f77b4"/>
   </g>
   <g id="patch_4">
    <path d="M 130.283422 640.8 
L 145.203209 640.8 
L 145.203209 350.208667 
L 130.283422 350.208667 
z
" clip-path="url(#pd880df9301)" style="fill: #1f77b4"/>
   </g>
   <g id="patch_5">
    <path d="M 145.203209 640.8 
L 160.122995 640.8 
L 160.122995 127.559947 
L 145.203209 127.559947 
z
" clip-path="url(#pd880df9301)" style="fill: #1f77b4"/>
   </g>
   <g id="patch_6">
    <path d="M 160.122995 640.8 
L 175.042781 640.8 
L 175.042781 640.8 
L 160.122995 640.8 
z
" clip-path="url(#pd880df9301)" style="fill: #1f77b4"/>
   </g>
   <g id="patch_7">
    <path d="M 175.042781 640.8 
L 189.962567 640.8 
L 189.962567 271.176572 
L 175.042781 271.176572 
z
" clip-path="url(#pd880df9301)" style="fill: #1f77b4"/>
   </g>
   <g id="patch_8">
    <path d="M 189.962567 640.8 
L 204.882353 640.8 
L 204.882353 436.503594 
L 189.962567 436.503594 
z
" clip-path="url(#pd880df9301)" style="fill: #1f77b4"/>
   </g>
   <g id="patch_9">
    <path d="M 204.882353 640.8 
L 219.802139 640.8 
L 219.802139 439.158823 
L 204.882353 439.158823 
z
" clip-path="url(#pd880df9301)" style="fill: #1f77b4"/>
   </g>
   <g id="patch_10">
    <path d="M 219.802139 640.8 
L 234.721925 640.8 
L 234.721925 640.8 
L 219.802139 640.8 
z
" clip-path="url(#pd880df9301)" style="fill: #1f77b4"/>
   </g>
   <g id="patch_11">
    <path d="M 234.721925 640.8 
L 249.641711 640.8 
L 249.641711 486.484366 
L 234.721925 486.484366 
z
" clip-path="url(#pd880df9301)" style="fill: #1f77b4"/>
   </g>
   <g id="patch_12">
    <path d="M 249.641711 640.8 
L 264.561497 640.8 
L 264.561497 457.901612 
L 249.641711 457.901612 
z
" clip-path="url(#pd880df9301)" style="fill: #1f77b4"/>
   </g>
   <g id="patch_13">
    <path d="M 264.561497 640.8 
L 279.481283 640.8 
L 279.481283 425.25792 
L 264.561497 425.25792 
z
" clip-path="url(#pd880df9301)" style="fill: #1f77b4"/>
   </g>
   <g id="patch_14">
    <path d="M 279.481283 640.8 
L 294.40107 640.8 
L 294.40107 640.8 
L 279.481283 640.8 
z
" clip-path="url(#pd880df9301)" style="fill: #1f77b4"/>
   </g>
   <g id="patch_15">
    <path d="M 294.40107 640.8 
L 309.320856 640.8 
L 309.320856 597.066824 
L 294.40107 597.066824 
z
" clip-path="url(#pd880df9301)" style="fill: #1f77b4"/>
   </g>
   <g id="patch_16">
    <path d="M 309.320856 640.8 
L 324.240642 640.8 
L 324.240642 603.080136 
L 309.320856 603.080136 
z
" clip-path="url(#pd880df9301)" style="fill: #1f77b4"/>
   </g>
   <g id="patch_17">
    <path d="M 324.240642 640.8 
L 339.160428 640.8 
L 339.160428 489.920544 
L 324.240642 489.920544 
z
" clip-path="url(#pd880df9301)" style="fill: #1f77b4"/>
   </g>
   <g id="patch_18">
    <path d="M 339.160428 640.8 
L 354.080214 640.8 
L 354.080214 640.8 
L 339.160428 640.8 
z
" clip-path="url(#pd880df9301)" style="fill: #1f77b4"/>
   </g>
   <g id="patch_19">
    <path d="M 354.080214 640.8 
L 369 640.8 
L 369 387.381867 
L 354.080214 387.381867 
z
" clip-path="url(#pd880df9301)" style="fill: #1f77b4"/>
   </g>
   <g id="patch_20">
    <path d="M 369 640.8 
L 383.919786 640.8 
L 383.919786 554.661263 
L 369 554.661263 
z
" clip-path="url(#pd880df9301)" style="fill: #1f77b4"/>
   </g>
   <g id="patch_21">
    <path d="M 383.919786 640.8 
L 398.839572 640.8 
L 398.839572 640.8 
L 383.919786 640.8 
z
" clip-path="url(#pd880df9301)" style="fill: #1f77b4"/>
   </g>
   <g id="patch_22">
    <path d="M 398.839572 640.8 
L 413.759358 640.8 
L 413.759358 511.396657 
L 398.839572 511.396657 
z
" clip-path="url(#pd880df9301)" style="fill: #1f77b4"/>
   </g>
   <g id="patch_23">
    <path d="M 413.759358 640.8 
L 428.679144 640.8 
L 428.679144 290.466026 
L 413.759358 290.466026 
z
" clip-path="url(#pd880df9301)" style="fill: #1f77b4"/>
   </g>
   <g id="patch_24">
    <path d="M 428.679144 640.8 
L 443.59893 640.8 
L 443.59893 613.07629 
L 428.679144 613.07629 
z
" clip-path="url(#pd880df9301)" style="fill: #1f77b4"/>
   </g>
   <g id="patch_25">
    <path d="M 443.59893 640.8 
L 458.518717 640.8 
L 458.518717 640.8 
L 443.59893 640.8 
z
" clip-path="url(#pd880df9301)" style="fill: #1f77b4"/>
   </g>
   <g id="patch_26">
    <path d="M 458.518717 640.8 
L 473.438503 640.8 
L 473.438503 347.943914 
L 458.518717 347.943914 
z
" clip-path="url(#pd880df9301)" style="fill: #1f77b4"/>
   </g>
   <g id="patch_27">
    <path d="M 473.438503 640.8 
L 488.358289 640.8 
L 488.358289 112.8 
L 473.438503 112.8 
z
" clip-path="url(#pd880df9301)" style="fill: #1f77b4"/>
   </g>
   <g id="patch_28">
    <path d="M 488.358289 640.8 
L 503.278075 640.8 
L 503.278075 380.587605 
L 488.358289 380.587605 
z
" clip-path="url(#pd880df9301)" style="fill: #1f77b4"/>
   </g>
   <g id="patch_29">
    <path d="M 503.278075 640.8 
L 518.197861 640.8 
L 518.197861 640.8 
L 503.278075 640.8 
z
" clip-path="url(#pd880df9301)" style="fill: #1f77b4"/>
   </g>
   <g id="patch_30">
    <path d="M 518.197861 640.8 
L 533.117647 640.8 
L 533.117647 371.294306 
L 518.197861 371.294306 
z
" clip-path="url(#pd880df9301)" style="fill: #1f77b4"/>
   </g>
   <g id="patch_31">
    <path d="M 533.117647 640.8 
L 548.037433 640.8 
L 548.037433 554.895548 
L 533.117647 554.895548 
z
" clip-path="url(#pd880df9301)" style="fill: #1f77b4"/>
   </g>
   <g id="patch_32">
    <path d="M 548.037433 640.8 
L 562.957219 640.8 
L 562.957219 506.789055 
L 548.037433 506.789055 
z
" clip-path="url(#pd880df9301)" style="fill: #1f77b4"/>
   </g>
   <g id="patch_33">
    <path d="M 562.957219 640.8 
L 577.877005 640.8 
L 577.877005 640.8 
L 562.957219 640.8 
z
" clip-path="url(#pd880df9301)" style="fill: #1f77b4"/>
   </g>
   <g id="patch_34">
    <path d="M 577.877005 640.8 
L 592.796791 640.8 
L 592.796791 637.988582 
L 577.877005 637.988582 
z
" clip-path="url(#pd880df9301)" style="fill: #1f77b4"/>
   </g>
   <g id="patch_35">
    <path d="M 592.796791 640.8 
L 607.716578 640.8 
L 607.716578 626.821003 
L 592.796791 626.821003 
z
" clip-path="url(#pd880df9301)" style="fill: #1f77b4"/>
   </g>
   <g id="patch_36">
    <path d="M 607.716578 640.8 
L 622.636364 640.8 
L 622.636364 632.60003 
L 607.716578 632.60003 
z
" clip-path="url(#pd880df9301)" style="fill: #1f77b4"/>
   </g>
   <g id="matplotlib.axis_1">
    <g id="xtick_1">
     <g id="line2d_1">
      <defs>
       <path id="m38a98f5bf2" d="M 0 0 
L 0 3.5 
" style="stroke: #000000; stroke-width: 0.8"/>
      </defs>
      <g>
       <use xlink:href="#m38a98f5bf2" x="176.236364" y="640.8" style="stroke: #000000; stroke-width: 0.8"/>
      </g>
     </g>
     <g id="text_1">
      <!-- 100 -->
      <g transform="translate(166.692614 655.398438)scale(0.1 -0.1)">
       <defs>
        <path id="DejaVuSans-31" d="M 794 531 
L 1825 531 
L 1825 4091 
L 703 3866 
L 703 4441 
L 1819 4666 
L 2450 4666 
L 2450 531 
L 3481 531 
L 3481 0 
L 794 0 
L 794 531 
z
" transform="scale(0.015625)"/>
        <path id="DejaVuSans-30" d="M 2034 4250 
Q 1547 4250 1301 3770 
Q 1056 3291 1056 2328 
Q 1056 1369 1301 889 
Q 1547 409 2034 409 
Q 2525 409 2770 889 
Q 3016 1369 3016 2328 
Q 3016 3291 2770 3770 
Q 2525 4250 2034 4250 
z
M 2034 4750 
Q 2819 4750 3233 4129 
Q 3647 3509 3647 2328 
Q 3647 1150 3233 529 
Q 2819 -91 2034 -91 
Q 1250 -91 836 529 
Q 422 1150 422 2328 
Q 422 3509 836 4129 
Q 1250 4750 2034 4750 
z
" transform="scale(0.015625)"/>
       </defs>
       <use xlink:href="#DejaVuSans-31"/>
       <use xlink:href="#DejaVuSans-30" x="63.623047"/>
       <use xlink:href="#DejaVuSans-30" x="127.246094"/>
      </g>
     </g>
    </g>
    <g id="xtick_2">
     <g id="line2d_2">
      <g>
       <use xlink:href="#m38a98f5bf2" x="277.690909" y="640.8" style="stroke: #000000; stroke-width: 0.8"/>
      </g>
     </g>
     <g id="text_2">
      <!-- 105 -->
      <g transform="translate(268.147159 655.398438)scale(0.1 -0.1)">
       <defs>
        <path id="DejaVuSans-35" d="M 691 4666 
L 3169 4666 
L 3169 4134 
L 1269 4134 
L 1269 2991 
Q 1406 3038 1543 3061 
Q 1681 3084 1819 3084 
Q 2600 3084 3056 2656 
Q 3513 2228 3513 1497 
Q 3513 744 3044 326 
Q 2575 -91 1722 -91 
Q 1428 -91 1123 -41 
Q 819 9 494 109 
L 494 744 
Q 775 591 1075 516 
Q 1375 441 1709 441 
Q 2250 441 2565 725 
Q 2881 1009 2881 1497 
Q 2881 1984 2565 2268 
Q 2250 2553 1709 2553 
Q 1456 2553 1204 2497 
Q 953 2441 691 2322 
L 691 4666 
z
" transform="scale(0.015625)"/>
       </defs>
       <use xlink:href="#DejaVuSans-31"/>
       <use xlink:href="#DejaVuSans-30" x="63.623047"/>
       <use xlink:href="#DejaVuSans-35" x="127.246094"/>
      </g>
     </g>
    </g>
    <g id="xtick_3">
     <g id="line2d_3">
      <g>
       <use xlink:href="#m38a98f5bf2" x="379.145455" y="640.8" style="stroke: #000000; stroke-width: 0.8"/>
      </g>
     </g>
     <g id="text_3">
      <!-- 110 -->
      <g transform="translate(369.601705 655.398438)scale(0.1 -0.1)">
       <use xlink:href="#DejaVuSans-31"/>
       <use xlink:href="#DejaVuSans-31" x="63.623047"/>
       <use xlink:href="#DejaVuSans-30" x="127.246094"/>
      </g>
     </g>
    </g>
    <g id="xtick_4">
     <g id="line2d_4">
      <g>
       <use xlink:href="#m38a98f5bf2" x="480.6" y="640.8" style="stroke: #000000; stroke-width: 0.8"/>
      </g>
     </g>
     <g id="text_4">
      <!-- 115 -->
      <g transform="translate(471.05625 655.398438)scale(0.1 -0.1)">
       <use xlink:href="#DejaVuSans-31"/>
       <use xlink:href="#DejaVuSans-31" x="63.623047"/>
       <use xlink:href="#DejaVuSans-35" x="127.246094"/>
      </g>
     </g>
    </g>
    <g id="xtick_5">
     <g id="line2d_5">
      <g>
       <use xlink:href="#m38a98f5bf2" x="582.054545" y="640.8" style="stroke: #000000; stroke-width: 0.8"/>
      </g>
     </g>
     <g id="text_5">
      <!-- 120 -->
      <g transform="translate(572.510795 655.398438)scale(0.1 -0.1)">
       <defs>
        <path id="DejaVuSans-32" d="M 1228 531 
L 3431 531 
L 3431 0 
L 469 0 
L 469 531 
Q 828 903 1448 1529 
Q 2069 2156 2228 2338 
Q 2531 2678 2651 2914 
Q 2772 3150 2772 3378 
Q 2772 3750 2511 3984 
Q 2250 4219 1831 4219 
Q 1534 4219 1204 4116 
Q 875 4013 500 3803 
L 500 4441 
Q 881 4594 1212 4672 
Q 1544 4750 1819 4750 
Q 2544 4750 2975 4387 
Q 3406 4025 3406 3419 
Q 3406 3131 3298 2873 
Q 3191 2616 2906 2266 
Q 2828 2175 2409 1742 
Q 1991 1309 1228 531 
z
" transform="scale(0.015625)"/>
       </defs>
       <use xlink:href="#DejaVuSans-31"/>
       <use xlink:href="#DejaVuSans-32" x="63.623047"/>
       <use xlink:href="#DejaVuSans-30" x="127.246094"/>
      </g>
     </g>
    </g>
    <g id="text_6">
     <!-- Collisions for hash table's cell -->
     <g transform="translate(220.942187 676.675)scale(0.2 -0.2)">
      <defs>
       <path id="DejaVuSans-43" d="M 4122 4306 
L 4122 3641 
Q 3803 3938 3442 4084 
Q 3081 4231 2675 4231 
Q 1875 4231 1450 3742 
Q 1025 3253 1025 2328 
Q 1025 1406 1450 917 
Q 1875 428 2675 428 
Q 3081 428 3442 575 
Q 3803 722 4122 1019 
L 4122 359 
Q 3791 134 3420 21 
Q 3050 -91 2638 -91 
Q 1578 -91 968 557 
Q 359 1206 359 2328 
Q 359 3453 968 4101 
Q 1578 4750 2638 4750 
Q 3056 4750 3426 4639 
Q 3797 4528 4122 4306 
z
" transform="scale(0.015625)"/>
       <path id="DejaVuSans-6f" d="M 1959 3097 
Q 1497 3097 1228 2736 
Q 959 2375 959 1747 
Q 959 1119 1226 758 
Q 1494 397 1959 397 
Q 2419 397 2687 759 
Q 2956 1122 2956 1747 
Q 2956 2369 2687 2733 
Q 2419 3097 1959 3097 
z
M 1959 3584 
Q 2709 3584 3137 3096 
Q 3566 2609 3566 1747 
Q 3566 888 3137 398 
Q 2709 -91 1959 -91 
Q 1206 -91 779 398 
Q 353 888 353 1747 
Q 353 2609 779 3096 
Q 1206 3584 1959 3584 
z
" transform="scale(0.015625)"/>
       <path id="DejaVuSans-6c" d="M 603 4863 
L 1178 4863 
L 1178 0 
L 603 0 
L 603 4863 
z
" transform="scale(0.015625)"/>
       <path id="DejaVuSans-69" d="M 603 3500 
L 1178 3500 
L 1178 0 
L 603 0 
L 603 3500 
z
M 603 4863 
L 1178 4863 
L 1178 4134 
L 603 4134 
L 603 4863 
z
" transform="scale(0.015625)"/>
       <path id="DejaVuSans-73" d="M 2834 3397 
L 2834 2853 
Q 2591 2978 2328 3040 
Q 2066 3103 1784 3103 
Q 1356 3103 1142 2972 
Q 928 2841 928 2578 
Q 928 2378 1081 2264 
Q 1234 2150 1697 2047 
L 1894 2003 
Q 2506 1872 2764 1633 
Q 3022 1394 3022 966 
Q 3022 478 2636 193 
Q 2250 -91 1575 -91 
Q 1294 -91 989 -36 
Q 684 19 347 128 
L 347 722 
Q 666 556 975 473 
Q 1284 391 1588 391 
Q 1994 391 2212 530 
Q 2431 669 2431 922 
Q 2431 1156 2273 1281 
Q 2116 1406 1581 1522 
L 1381 1569 
Q 847 1681 609 1914 
Q 372 2147 372 2553 
Q 372 3047 722 3315 
Q 1072 3584 1716 3584 
Q 2034 3584 2315 3537 
Q 2597 3491 2834 3397 
z
" transform="scale(0.015625)"/>
       <path id="DejaVuSans-6e" d="M 3513 2113 
L 3513 0 
L 2938 0 
L 2938 2094 
Q 2938 2591 2744 2837 
Q 2550 3084 2163 3084 
Q 1697 3084 1428 2787 
Q 1159 2491 1159 1978 
L 1159 0 
L 581 0 
L 581 3500 
L 1159 3500 
L 1159 2956 
Q 1366 3272 1645 3428 
Q 1925 3584 2291 3584 
Q 2894 3584 3203 3211 
Q 3513 2838 3513 2113 
z
" transform="scale(0.015625)"/>
       <path id="DejaVuSans-20" transform="scale(0.015625)"/>
       <path id="DejaVuSans-66" d="M 2375 4863 
L 2375 4384 
L 1825 4384 
Q 1516 4384 1395 4259 
Q 1275 4134 1275 3809 
L 1275 3500 
L 2222 3500 
L 2222 3053 
L 1275 3053 
L 1275 0 
L 697 0 
L 697 3053 
L 147 3053 
L 147 3500 
L 697 3500 
L 697 3744 
Q 697 4328 969 4595 
Q 1241 4863 1831 4863 
L 2375 4863 
z
" transform="scale(0.015625)"/>
       <path id="DejaVuSans-72" d="M 2631 2963 
Q 2534 3019 2420 3045 
Q 2306 3072 2169 3072 
Q 1681 3072 1420 2755 
Q 1159 2438 1159 1844 
L 1159 0 
L 581 0 
L 581 3500 
L 1159 3500 
L 1159 2956 
Q 1341 3275 1631 3429 
Q 1922 3584 2338 3584 
Q 2397 3584 2469 3576 
Q 2541 3569 2628 3553 
L 2631 2963 
z
" transform="scale(0.015625)"/>
       <path id="DejaVuSans-68" d="M 3513 2113 
L 3513 0 
L 2938 0 
L 2938 2094 
Q 2938 2591 2744 2837 
Q 2550 3084 2163 3084 
Q 1697 3084 1428 2787 
Q 1159 2491 1159 1978 
L 1159 0 
L 581 0 
L 581 4863 
L 1159 4863 
L 1159 2956 
Q 1366 3272 1645 3428 
Q 1925 3584 2291 3584 
Q 2894 3584 3203 3211 
Q 3513 2838 3513 2113 
z
" transform="scale(0.015625)"/>
       <path id="DejaVuSans-61" d="M 2194 1759 
Q 1497 1759 1228 1600 
Q 959 1441 959 1056 
Q 959 750 1161 570 
Q 1363 391 1709 391 
Q 2188 391 2477 730 
Q 2766 1069 2766 1631 
L 2766 1759 
L 2194 1759 
z
M 3341 1997 
L 3341 0 
L 2766 0 
L 2766 531 
Q 2569 213 2275 61 
Q 1981 -91 1556 -91 
Q 1019 -91 701 211 
Q 384 513 384 1019 
Q 384 1609 779 1909 
Q 1175 2209 1959 2209 
L 2766 2209 
L 2766 2266 
Q 2766 2663 2505 2880 
Q 2244 3097 1772 3097 
Q 1472 3097 1187 3025 
Q 903 2953 641 2809 
L 641 3341 
Q 956 3463 1253 3523 
Q 1550 3584 1831 3584 
Q 2591 3584 2966 3190 
Q 3341 2797 3341 1997 
z
" transform="scale(0.015625)"/>
       <path id="DejaVuSans-74" d="M 1172 4494 
L 1172 3500 
L 2356 3500 
L 2356 3053 
L 1172 3053 
L 1172 1153 
Q 1172 725 1289 603 
Q 1406 481 1766 481 
L 2356 481 
L 2356 0 
L 1766 0 
Q 1100 0 847 248 
Q 594 497 594 1153 
L 594 3053 
L 172 3053 
L 172 3500 
L 594 3500 
L 594 4494 
L 1172 4494 
z
" transform="scale(0.015625)"/>
       <path id="DejaVuSans-62" d="M 3116 1747 
Q 3116 2381 2855 2742 
Q 2594 3103 2138 3103 
Q 1681 3103 1420 2742 
Q 1159 2381 1159 1747 
Q 1159 1113 1420 752 
Q 1681 391 2138 391 
Q 2594 391 2855 752 
Q 3116 1113 3116 1747 
z
M 1159 2969 
Q 1341 3281 1617 3432 
Q 1894 3584 2278 3584 
Q 2916 3584 3314 3078 
Q 3713 2572 3713 1747 
Q 3713 922 3314 415 
Q 2916 -91 2278 -91 
Q 1894 -91 1617 61 
Q 1341 213 1159 525 
L 1159 0 
L 581 0 
L 581 4863 
L 1159 4863 
L 1159 2969 
z
" transform="scale(0.015625)"/>
       <path id="DejaVuSans-65" d="M 3597 1894 
L 3597 1613 
L 953 1613 
Q 991 1019 1311 708 
Q 1631 397 2203 397 
Q 2534 397 2845 478 
Q 3156 559 3463 722 
L 3463 178 
Q 3153 47 2828 -22 
Q 2503 -91 2169 -91 
Q 1331 -91 842 396 
Q 353 884 353 1716 
Q 353 2575 817 3079 
Q 1281 3584 2069 3584 
Q 2775 3584 3186 3129 
Q 3597 2675 3597 1894 
z
M 3022 2063 
Q 3016 2534 2758 2815 
Q 2500 3097 2075 3097 
Q 1594 3097 1305 2825 
Q 1016 2553 972 2059 
L 3022 2063 
z
" transform="scale(0.015625)"/>
       <path id="DejaVuSans-27" d="M 1147 4666 
L 1147 2931 
L 616 2931 
L 616 4666 
L 1147 4666 
z
" transform="scale(0.015625)"/>
       <path id="DejaVuSans-63" d="M 3122 3366 
L 3122 2828 
Q 2878 2963 2633 3030 
Q 2388 3097 2138 3097 
Q 1578 3097 1268 2742 
Q 959 2388 959 1747 
Q 959 1106 1268 751 
Q 1578 397 2138 397 
Q 2388 397 2633 464 
Q 2878 531 3122 666 
L 3122 134 
Q 2881 22 2623 -34 
Q 2366 -91 2075 -91 
Q 1284 -91 818 406 
Q 353 903 353 1747 
Q 353 2603 823 3093 
Q 1294 3584 2113 3584 
Q 2378 3584 2631 3529 
Q 2884 3475 3122 3366 
z
" transform="scale(0.015625)"/>
      </defs>
      <use xlink:href="#DejaVuSans-43"/>
      <use xlink:href="#DejaVuSans-6f" x="69.824219"/>
      <use xlink:href="#DejaVuSans-6c" x="131.005859"/>
      <use xlink:href="#DejaVuSans-6c" x="158.789062"/>
      <use xlink:href="#DejaVuSans-69" x="186.572266"/>
      <use xlink:href="#DejaVuSans-73" x="214.355469"/>
      <use xlink:href="#DejaVuSans-69" x="266.455078"/>
      <use xlink:href="#DejaVuSans-6f" x="294.238281"/>
      <use xlink:href="#DejaVuSans-6e" x="355.419922"/>
      <use xlink:href="#DejaVuSans-73" x="418.798828"/>
      <use xlink:href="#DejaVuSans-20" x="470.898438"/>
      <use xlink:href="#DejaVuSans-66" x="502.685547"/>
      <use xlink:href="#DejaVuSans-6f" x="537.890625"/>
      <use xlink:href="#DejaVuSans-72" x="599.072266"/>
      <use xlink:href="#DejaVuSans-20" x="640.185547"/>
      <use xlink:href="#DejaVuSans-68" x="671.972656"/>
      <use xlink:href="#DejaVuSans-61" x="735.351562"/>
      <use xlink:href="#DejaVuSans-73" x="796.630859"/>
      <use xlink:href="#DejaVuSans-68" x="848.730469"/>
      <use xlink:href="#DejaVuSans-20" x="912.109375"/>
      <use xlink:href="#DejaVuSans-74" x="943.896484"/>
      <use xlink:href="#DejaVuSans-61" x="983.105469"/>
      <use xlink:href="#DejaVuSans-62" x="1044.384766"/>
      <use xlink:href="#DejaVuSans-6c" x="1107.861328"/>
      <use xlink:href="#DejaVuSans-65" x="1135.644531"/>
      <use xlink:href="#DejaVuSans-27" x="1197.167969"/>
      <use xlink:href="#DejaVuSans-73" x="1224.658203"/>
      <use xlink:href="#DejaVuSans-20" x="1276.757812"/>
      <use xlink:href="#DejaVuSans-63" x="1308.544922"/>
      <use xlink:href="#DejaVuSans-65" x="1363.525391"/>
      <use xlink:href="#DejaVuSans-6c" x="1425.048828"/>
      <use xlink:href="#DejaVuSans-6c" x="1452.832031"/>
     </g>
    </g>
   </g>
   <g id="matplotlib.axis_2"/>
   <g id="patch_37">
    <path d="M 90 640.8 
L 90 86.4 
" style="fill: none; stroke: #000000; stroke-width: 0.8; stroke-linejoin: miter; stroke-linecap: square"/>
   </g>
   <g id="patch_38">
    <path d="M 648 640.8 
L 648 86.4 
" style="fill: none; stroke: #000000; stroke-width: 0.8; stroke-linejoin: miter; stroke-linecap: square"/>
   </g>
   <g id="patch_39">
    <path d="M 90 640.8 
L 648 640.8 
" style="fill: none; stroke: #000000; stroke-width: 0.8; stroke-linejoin: miter; stroke-linecap: square"/>
   </g>
   <g id="patch_40">
    <path d="M 90 86.4 
L 648 86.4 
" style="fill: none; stroke: #000000; stroke-width: 0.8; stroke-linejoin: miter; stroke-linecap: square"/>
   </g>
   <g id="text_7">
    <!-- Distribution: First letter ASCII hash -->
    <g transform="translate(265.449375 80.4)scale(0.12 -0.12)">
     <defs>
      <path id="DejaVuSans-44" d="M 1259 4147 
L 1259 519 
L 2022 519 
Q 2988 519 3436 956 
Q 3884 1394 3884 2338 
Q 3884 3275 3436 3711 
Q 2988 4147 2022 4147 
L 1259 4147 
z
M 628 4666 
L 1925 4666 
Q 3281 4666 3915 4102 
Q 4550 3538 4550 2338 
Q 4550 1131 3912 565 
Q 3275 0 1925 0 
L 628 0 
L 628 4666 
z
" transform="scale(0.015625)"/>
      <path id="DejaVuSans-75" d="M 544 1381 
L 544 3500 
L 1119 3500 
L 1119 1403 
Q 1119 906 1312 657 
Q 1506 409 1894 409 
Q 2359 409 2629 706 
Q 2900 1003 2900 1516 
L 2900 3500 
L 3475 3500 
L 3475 0 
L 2900 0 
L 2900 538 
Q 2691 219 2414 64 
Q 2138 -91 1772 -91 
Q 1169 -91 856 284 
Q 544 659 544 1381 
z
M 1991 3584 
L 1991 3584 
z
" transform="scale(0.015625)"/>
      <path id="DejaVuSans-3a" d="M 750 794 
L 1409 794 
L 1409 0 
L 750 0 
L 750 794 
z
M 750 3309 
L 1409 3309 
L 1409 2516 
L 750 2516 
L 750 3309 
z
" transform="scale(0.015625)"/>
      <path id="DejaVuSans-46" d="M 628 4666 
L 3309 4666 
L 3309 4134 
L 1259 4134 
L 1259 2759 
L 3109 2759 
L 3109 2228 
L 1259 2228 
L 1259 0 
L 628 0 
L 628 4666 
z
" transform="scale(0.015625)"/>
      <path id="DejaVuSans-41" d="M 2188 4044 
L 1331 1722 
L 3047 1722 
L 2188 4044 
z
M 1831 4666 
L 2547 4666 
L 4325 0 
L 3669 0 
L 3244 1197 
L 1141 1197 
L 716 0 
L 50 0 
L 1831 4666 
z
" transform="scale(0.015625)"/>
      <path id="DejaVuSans-53" d="M 3425 4513 
L 3425 3897 
Q 3066 4069 2747 4153 
Q 2428 4238 2131 4238 
Q 1616 4238 1336 4038 
Q 1056 3838 1056 3469 
Q 1056 3159 1242 3001 
Q 1428 2844 1947 2747 
L 2328 2669 
Q 3034 2534 3370 2195 
Q 3706 1856 3706 1288 
Q 3706 609 3251 259 
Q 2797 -91 1919 -91 
Q 1588 -91 1214 -16 
Q 841 59 441 206 
L 441 856 
Q 825 641 1194 531 
Q 1563 422 1919 422 
Q 2459 422 2753 634 
Q 3047 847 3047 1241 
Q 3047 1584 2836 1778 
Q 2625 1972 2144 2069 
L 1759 2144 
Q 1053 2284 737 2584 
Q 422 2884 422 3419 
Q 422 4038 858 4394 
Q 1294 4750 2059 4750 
Q 2388 4750 2728 4690 
Q 3069 4631 3425 4513 
z
" transform="scale(0.015625)"/>
      <path id="DejaVuSans-49" d="M 628 4666 
L 1259 4666 
L 1259 0 
L 628 0 
L 628 4666 
z
" transform="scale(0.015625)"/>
     </defs>
     <use xlink:href="#DejaVuSans-44"/>
     <use xlink:href="#DejaVuSans-69" x="77.001953"/>
     <use xlink:href="#DejaVuSans-73" x="104.785156"/>
     <use xlink:href="#DejaVuSans-74" x="156.884766"/>
     <use xlink:href="#DejaVuSans-72" x="196.09375"/>
     <use xlink:href="#DejaVuSans-69" x="237.207031"/>
     <use xlink:href="#DejaVuSans-62" x="264.990234"/>
     <use xlink:href="#DejaVuSans-75" x="328.466797"/>
     <use xlink:href="#DejaVuSans-74" x="391.845703"/>
     <use xlink:href="#DejaVuSans-69" x="431.054688"/>
     <use xlink:href="#DejaVuSans-6f" x="458.837891"/>
     <use xlink:href="#DejaVuSans-6e" x="520.019531"/>
     <use xlink:href="#DejaVuSans-3a" x="583.398438"/>
     <use xlink:href="#DejaVuSans-20" x="617.089844"/>
     <use xlink:href="#DejaVuSans-46" x="648.876953"/>
     <use xlink:href="#DejaVuSans-69" x="699.146484"/>
     <use xlink:href="#DejaVuSans-72" x="726.929688"/>
     <use xlink:href="#DejaVuSans-73" x="768.042969"/>
     <use xlink:href="#DejaVuSans-74" x="820.142578"/>
     <use xlink:href="#DejaVuSans-20" x="859.351562"/>
     <use xlink:href="#DejaVuSans-6c" x="891.138672"/>
     <use xlink:href="#DejaVuSans-65" x="918.921875"/>
     <use xlink:href="#DejaVuSans-74" x="980.445312"/>
     <use xlink:href="#DejaVuSans-74" x="1019.654297"/>
     <use xlink:href="#DejaVuSans-65" x="1058.863281"/>
     <use xlink:href="#DejaVuSans-72" x="1120.386719"/>
     <use xlink:href="#DejaVuSans-20" x="1161.5"/>
     <use xlink:href="#DejaVuSans-41" x="1193.287109"/>
     <use xlink:href="#DejaVuSans-53" x="1261.695312"/>
     <use xlink:href="#DejaVuSans-43" x="1325.171875"/>
     <use xlink:href="#DejaVuSans-49" x="1394.996094"/>
     <use xlink:href="#DejaVuSans-49" x="1424.488281"/>
     <use xlink:href="#DejaVuSans-20" x="1453.980469"/>
     <use xlink:href="#DejaVuSans-68" x="1485.767578"/>
     <use xlink:href="#DejaVuSans-61" x="1549.146484"/>
     <use xlink:href="#DejaVuSans-73" x="1610.425781"/>
     <use xlink:href="#DejaVuSans-68" x="1662.525391"/>
    </g>
   </g>
  </g>
 </g>
 <defs>
  <clipPath id="pd880df9301">
   <rect x="90" y="86.4" width="558" height="554.4"/>
  </clipPath>
 </defs>
</svg>
