<?xml version="1.0" encoding="utf-8" standalone="no"?>
<!DOCTYPE svg PUBLIC "-//W3C//DTD SVG 1.1//EN"
  "http://www.w3.org/Graphics/SVG/1.1/DTD/svg11.dtd">
<svg xmlns:xlink="http://www.w3.org/1999/xlink" width="720pt" height="720pt" viewBox="0 0 720 720" xmlns="http://www.w3.org/2000/svg" version="1.1">
 <metadata>
  <rdf:RDF xmlns:dc="http://purl.org/dc/elements/1.1/" xmlns:cc="http://creativecommons.org/ns#" xmlns:rdf="http://www.w3.org/1999/02/22-rdf-syntax-ns#">
   <cc:Work>
    <dc:type rdf:resource="http://purl.org/dc/dcmitype/StillImage"/>
    <dc:date>2022-05-14T13:56:41.059170</dc:date>
    <dc:format>image/svg+xml</dc:format>
    <dc:creator>
     <cc:Agent>
      <dc:title>Matplotlib v3.5.2, https://matplotlib.org/</dc:title>
     </cc:Agent>
    </dc:creator>
   </cc:Work>
  </rdf:RDF>
 </metadata>
 <defs>
  <style type="text/css">*{stroke-linejoin: round; stroke-linecap: butt}</style>
 </defs>
 <g id="figure_1">
  <g id="patch_1">
   <path d="M 0 720 
L 720 720 
L 720 0 
L 0 0 
z
" style="fill: #ffffff"/>
  </g>
  <g id="axes_1">
   <g id="patch_2">
    <path d="M 90 640.8 
L 648 640.8 
L 648 86.4 
L 90 86.4 
z
" style="fill: #ffffff"/>
   </g>
   <g id="patch_3">
    <path d="M 90 640.8 
L 99.281547 640.8 
L 99.281547 639.434437 
L 90 639.434437 
z
" clip-path="url(#p2f5fe8183a)" style="fill: #1f77b4"/>
   </g>
   <g id="patch_4">
    <path d="M 99.281547 640.8 
L 107.433607 640.8 
L 107.433607 640.8 
L 99.281547 640.8 
z
" clip-path="url(#p2f5fe8183a)" style="fill: #1f77b4"/>
   </g>
   <g id="patch_5">
    <path d="M 107.433607 640.8 
L 114.701494 640.8 
L 114.701494 640.8 
L 107.433607 640.8 
z
" clip-path="url(#p2f5fe8183a)" style="fill: #1f77b4"/>
   </g>
   <g id="patch_6">
    <path d="M 114.701494 640.8 
L 121.258374 640.8 
L 121.258374 640.8 
L 114.701494 640.8 
z
" clip-path="url(#p2f5fe8183a)" style="fill: #1f77b4"/>
   </g>
   <g id="patch_7">
    <path d="M 121.258374 640.8 
L 127.231048 640.8 
L 127.231048 640.8 
L 121.258374 640.8 
z
" clip-path="url(#p2f5fe8183a)" style="fill: #1f77b4"/>
   </g>
   <g id="patch_8">
    <path d="M 127.231048 640.8 
L 132.715155 640.8 
L 132.715155 640.8 
L 127.231048 640.8 
z
" clip-path="url(#p2f5fe8183a)" style="fill: #1f77b4"/>
   </g>
   <g id="patch_9">
    <path d="M 132.715155 640.8 
L 137.784618 640.8 
L 137.784618 634.917577 
L 132.715155 634.917577 
z
" clip-path="url(#p2f5fe8183a)" style="fill: #1f77b4"/>
   </g>
   <g id="patch_10">
    <path d="M 137.784618 640.8 
L 142.497752 640.8 
L 142.497752 640.8 
L 137.784618 640.8 
z
" clip-path="url(#p2f5fe8183a)" style="fill: #1f77b4"/>
   </g>
   <g id="patch_11">
    <path d="M 142.497752 640.8 
L 146.901379 640.8 
L 146.901379 640.8 
L 142.497752 640.8 
z
" clip-path="url(#p2f5fe8183a)" style="fill: #1f77b4"/>
   </g>
   <g id="patch_12">
    <path d="M 146.901379 640.8 
L 151.033654 640.8 
L 151.033654 640.8 
L 146.901379 640.8 
z
" clip-path="url(#p2f5fe8183a)" style="fill: #1f77b4"/>
   </g>
   <g id="patch_13">
    <path d="M 151.033654 640.8 
L 154.926088 640.8 
L 154.926088 640.8 
L 151.033654 640.8 
z
" clip-path="url(#p2f5fe8183a)" style="fill: #1f77b4"/>
   </g>
   <g id="patch_14">
    <path d="M 154.926088 640.8 
L 158.605 640.8 
L 158.605 640.8 
L 154.926088 640.8 
z
" clip-path="url(#p2f5fe8183a)" style="fill: #1f77b4"/>
   </g>
   <g id="patch_15">
    <path d="M 158.605 640.8 
L 162.092604 640.8 
L 162.092604 640.8 
L 158.605 640.8 
z
" clip-path="url(#p2f5fe8183a)" style="fill: #1f77b4"/>
   </g>
   <g id="patch_16">
    <path d="M 162.092604 640.8 
L 165.407816 640.8 
L 165.407816 603.982334 
L 162.092604 603.982334 
z
" clip-path="url(#p2f5fe8183a)" style="fill: #1f77b4"/>
   </g>
   <g id="patch_17">
    <path d="M 165.407816 640.8 
L 168.566879 640.8 
L 168.566879 640.8 
L 165.407816 640.8 
z
" clip-path="url(#p2f5fe8183a)" style="fill: #1f77b4"/>
   </g>
   <g id="patch_18">
    <path d="M 168.566879 640.8 
L 171.583843 640.8 
L 171.583843 640.8 
L 168.566879 640.8 
z
" clip-path="url(#p2f5fe8183a)" style="fill: #1f77b4"/>
   </g>
   <g id="patch_19">
    <path d="M 171.583843 640.8 
L 174.470943 640.8 
L 174.470943 640.8 
L 171.583843 640.8 
z
" clip-path="url(#p2f5fe8183a)" style="fill: #1f77b4"/>
   </g>
   <g id="patch_20">
    <path d="M 174.470943 640.8 
L 177.2389 640.8 
L 177.2389 640.8 
L 174.470943 640.8 
z
" clip-path="url(#p2f5fe8183a)" style="fill: #1f77b4"/>
   </g>
   <g id="patch_21">
    <path d="M 177.2389 640.8 
L 179.897158 640.8 
L 179.897158 640.8 
L 177.2389 640.8 
z
" clip-path="url(#p2f5fe8183a)" style="fill: #1f77b4"/>
   </g>
   <g id="patch_22">
    <path d="M 179.897158 640.8 
L 182.454083 640.8 
L 182.454083 640.8 
L 179.897158 640.8 
z
" clip-path="url(#p2f5fe8183a)" style="fill: #1f77b4"/>
   </g>
   <g id="patch_23">
    <path d="M 182.454083 640.8 
L 184.917116 640.8 
L 184.917116 511.544255 
L 182.454083 511.544255 
z
" clip-path="url(#p2f5fe8183a)" style="fill: #1f77b4"/>
   </g>
   <g id="patch_24">
    <path d="M 184.917116 640.8 
L 187.29291 640.8 
L 187.29291 640.8 
L 184.917116 640.8 
z
" clip-path="url(#p2f5fe8183a)" style="fill: #1f77b4"/>
   </g>
   <g id="patch_25">
    <path d="M 187.29291 640.8 
L 189.587434 640.8 
L 189.587434 640.8 
L 187.29291 640.8 
z
" clip-path="url(#p2f5fe8183a)" style="fill: #1f77b4"/>
   </g>
   <g id="patch_26">
    <path d="M 189.587434 640.8 
L 191.806065 640.8 
L 191.806065 640.8 
L 189.587434 640.8 
z
" clip-path="url(#p2f5fe8183a)" style="fill: #1f77b4"/>
   </g>
   <g id="patch_27">
    <path d="M 191.806065 640.8 
L 193.953663 640.8 
L 193.953663 640.8 
L 191.806065 640.8 
z
" clip-path="url(#p2f5fe8183a)" style="fill: #1f77b4"/>
   </g>
   <g id="patch_28">
    <path d="M 193.953663 640.8 
L 196.034635 640.8 
L 196.034635 640.8 
L 193.953663 640.8 
z
" clip-path="url(#p2f5fe8183a)" style="fill: #1f77b4"/>
   </g>
   <g id="patch_29">
    <path d="M 196.034635 640.8 
L 198.052991 640.8 
L 198.052991 394.1584 
L 196.034635 394.1584 
z
" clip-path="url(#p2f5fe8183a)" style="fill: #1f77b4"/>
   </g>
   <g id="patch_30">
    <path d="M 198.052991 640.8 
L 200.01239 640.8 
L 200.01239 640.8 
L 198.052991 640.8 
z
" clip-path="url(#p2f5fe8183a)" style="fill: #1f77b4"/>
   </g>
   <g id="patch_31">
    <path d="M 200.01239 640.8 
L 201.916179 640.8 
L 201.916179 640.8 
L 200.01239 640.8 
z
" clip-path="url(#p2f5fe8183a)" style="fill: #1f77b4"/>
   </g>
   <g id="patch_32">
    <path d="M 201.916179 640.8 
L 203.767426 640.8 
L 203.767426 640.8 
L 201.916179 640.8 
z
" clip-path="url(#p2f5fe8183a)" style="fill: #1f77b4"/>
   </g>
   <g id="patch_33">
    <path d="M 203.767426 640.8 
L 205.568956 640.8 
L 205.568956 640.8 
L 203.767426 640.8 
z
" clip-path="url(#p2f5fe8183a)" style="fill: #1f77b4"/>
   </g>
   <g id="patch_34">
    <path d="M 205.568956 640.8 
L 207.323367 640.8 
L 207.323367 640.8 
L 205.568956 640.8 
z
" clip-path="url(#p2f5fe8183a)" style="fill: #1f77b4"/>
   </g>
   <g id="patch_35">
    <path d="M 207.323367 640.8 
L 209.033063 640.8 
L 209.033063 640.8 
L 207.323367 640.8 
z
" clip-path="url(#p2f5fe8183a)" style="fill: #1f77b4"/>
   </g>
   <g id="patch_36">
    <path d="M 209.033063 640.8 
L 210.700266 640.8 
L 210.700266 245.259564 
L 209.033063 245.259564 
z
" clip-path="url(#p2f5fe8183a)" style="fill: #1f77b4"/>
   </g>
   <g id="patch_37">
    <path d="M 210.700266 640.8 
L 212.327038 640.8 
L 212.327038 640.8 
L 210.700266 640.8 
z
" clip-path="url(#p2f5fe8183a)" style="fill: #1f77b4"/>
   </g>
   <g id="patch_38">
    <path d="M 212.327038 640.8 
L 213.915292 640.8 
L 213.915292 640.8 
L 212.327038 640.8 
z
" clip-path="url(#p2f5fe8183a)" style="fill: #1f77b4"/>
   </g>
   <g id="patch_39">
    <path d="M 213.915292 640.8 
L 215.466811 640.8 
L 215.466811 640.8 
L 213.915292 640.8 
z
" clip-path="url(#p2f5fe8183a)" style="fill: #1f77b4"/>
   </g>
   <g id="patch_40">
    <path d="M 215.466811 640.8 
L 216.983256 640.8 
L 216.983256 640.8 
L 215.466811 640.8 
z
" clip-path="url(#p2f5fe8183a)" style="fill: #1f77b4"/>
   </g>
   <g id="patch_41">
    <path d="M 216.983256 640.8 
L 218.466178 640.8 
L 218.466178 640.8 
L 216.983256 640.8 
z
" clip-path="url(#p2f5fe8183a)" style="fill: #1f77b4"/>
   </g>
   <g id="patch_42">
    <path d="M 218.466178 640.8 
L 219.917026 640.8 
L 219.917026 640.8 
L 218.466178 640.8 
z
" clip-path="url(#p2f5fe8183a)" style="fill: #1f77b4"/>
   </g>
   <g id="patch_43">
    <path d="M 219.917026 640.8 
L 221.337159 640.8 
L 221.337159 114.480692 
L 219.917026 114.480692 
z
" clip-path="url(#p2f5fe8183a)" style="fill: #1f77b4"/>
   </g>
   <g id="patch_44">
    <path d="M 221.337159 640.8 
L 222.727851 640.8 
L 222.727851 640.8 
L 221.337159 640.8 
z
" clip-path="url(#p2f5fe8183a)" style="fill: #1f77b4"/>
   </g>
   <g id="patch_45">
    <path d="M 222.727851 640.8 
L 224.090297 640.8 
L 224.090297 640.8 
L 222.727851 640.8 
z
" clip-path="url(#p2f5fe8183a)" style="fill: #1f77b4"/>
   </g>
   <g id="patch_46">
    <path d="M 224.090297 640.8 
L 225.425622 640.8 
L 225.425622 640.8 
L 224.090297 640.8 
z
" clip-path="url(#p2f5fe8183a)" style="fill: #1f77b4"/>
   </g>
   <g id="patch_47">
    <path d="M 225.425622 640.8 
L 226.734885 640.8 
L 226.734885 640.8 
L 225.425622 640.8 
z
" clip-path="url(#p2f5fe8183a)" style="fill: #1f77b4"/>
   </g>
   <g id="patch_48">
    <path d="M 226.734885 640.8 
L 228.019083 640.8 
L 228.019083 640.8 
L 226.734885 640.8 
z
" clip-path="url(#p2f5fe8183a)" style="fill: #1f77b4"/>
   </g>
   <g id="patch_49">
    <path d="M 228.019083 640.8 
L 229.279158 640.8 
L 229.279158 640.8 
L 228.019083 640.8 
z
" clip-path="url(#p2f5fe8183a)" style="fill: #1f77b4"/>
   </g>
   <g id="patch_50">
    <path d="M 229.279158 640.8 
L 230.516001 640.8 
L 230.516001 112.8 
L 229.279158 112.8 
z
" clip-path="url(#p2f5fe8183a)" style="fill: #1f77b4"/>
   </g>
   <g id="patch_51">
    <path d="M 230.516001 640.8 
L 231.730451 640.8 
L 231.730451 640.8 
L 230.516001 640.8 
z
" clip-path="url(#p2f5fe8183a)" style="fill: #1f77b4"/>
   </g>
   <g id="patch_52">
    <path d="M 231.730451 640.8 
L 232.923306 640.8 
L 232.923306 640.8 
L 231.730451 640.8 
z
" clip-path="url(#p2f5fe8183a)" style="fill: #1f77b4"/>
   </g>
   <g id="patch_53">
    <path d="M 232.923306 640.8 
L 234.09532 640.8 
L 234.09532 640.8 
L 232.923306 640.8 
z
" clip-path="url(#p2f5fe8183a)" style="fill: #1f77b4"/>
   </g>
   <g id="patch_54">
    <path d="M 234.09532 640.8 
L 235.247209 640.8 
L 235.247209 640.8 
L 234.09532 640.8 
z
" clip-path="url(#p2f5fe8183a)" style="fill: #1f77b4"/>
   </g>
   <g id="patch_55">
    <path d="M 235.247209 640.8 
L 236.379652 640.8 
L 236.379652 640.8 
L 235.247209 640.8 
z
" clip-path="url(#p2f5fe8183a)" style="fill: #1f77b4"/>
   </g>
   <g id="patch_56">
    <path d="M 236.379652 640.8 
L 237.493295 640.8 
L 237.493295 160.594688 
L 236.379652 160.594688 
z
" clip-path="url(#p2f5fe8183a)" style="fill: #1f77b4"/>
   </g>
   <g id="patch_57">
    <path d="M 237.493295 640.8 
L 238.588752 640.8 
L 238.588752 640.8 
L 237.493295 640.8 
z
" clip-path="url(#p2f5fe8183a)" style="fill: #1f77b4"/>
   </g>
   <g id="patch_58">
    <path d="M 238.588752 640.8 
L 239.666607 640.8 
L 239.666607 640.8 
L 238.588752 640.8 
z
" clip-path="url(#p2f5fe8183a)" style="fill: #1f77b4"/>
   </g>
   <g id="patch_59">
    <path d="M 239.666607 640.8 
L 240.727418 640.8 
L 240.727418 640.8 
L 239.666607 640.8 
z
" clip-path="url(#p2f5fe8183a)" style="fill: #1f77b4"/>
   </g>
   <g id="patch_60">
    <path d="M 240.727418 640.8 
L 241.771715 640.8 
L 241.771715 640.8 
L 240.727418 640.8 
z
" clip-path="url(#p2f5fe8183a)" style="fill: #1f77b4"/>
   </g>
   <g id="patch_61">
    <path d="M 241.771715 640.8 
L 242.800003 640.8 
L 242.800003 640.8 
L 241.771715 640.8 
z
" clip-path="url(#p2f5fe8183a)" style="fill: #1f77b4"/>
   </g>
   <g id="patch_62">
    <path d="M 242.800003 640.8 
L 243.812768 640.8 
L 243.812768 640.8 
L 242.800003 640.8 
z
" clip-path="url(#p2f5fe8183a)" style="fill: #1f77b4"/>
   </g>
   <g id="patch_63">
    <path d="M 243.812768 640.8 
L 244.810469 640.8 
L 244.810469 244.629305 
L 243.812768 244.629305 
z
" clip-path="url(#p2f5fe8183a)" style="fill: #1f77b4"/>
   </g>
   <g id="patch_64">
    <path d="M 244.810469 640.8 
L 245.79355 640.8 
L 245.79355 640.8 
L 244.810469 640.8 
z
" clip-path="url(#p2f5fe8183a)" style="fill: #1f77b4"/>
   </g>
   <g id="patch_65">
    <path d="M 245.79355 640.8 
L 246.762431 640.8 
L 246.762431 640.8 
L 245.79355 640.8 
z
" clip-path="url(#p2f5fe8183a)" style="fill: #1f77b4"/>
   </g>
   <g id="patch_66">
    <path d="M 246.762431 640.8 
L 247.717518 640.8 
L 247.717518 640.8 
L 246.762431 640.8 
z
" clip-path="url(#p2f5fe8183a)" style="fill: #1f77b4"/>
   </g>
   <g id="patch_67">
    <path d="M 247.717518 640.8 
L 248.659198 640.8 
L 248.659198 640.8 
L 247.717518 640.8 
z
" clip-path="url(#p2f5fe8183a)" style="fill: #1f77b4"/>
   </g>
   <g id="patch_68">
    <path d="M 248.659198 640.8 
L 249.587842 640.8 
L 249.587842 640.8 
L 248.659198 640.8 
z
" clip-path="url(#p2f5fe8183a)" style="fill: #1f77b4"/>
   </g>
   <g id="patch_69">
    <path d="M 249.587842 640.8 
L 250.503806 640.8 
L 250.503806 640.8 
L 249.587842 640.8 
z
" clip-path="url(#p2f5fe8183a)" style="fill: #1f77b4"/>
   </g>
   <g id="patch_70">
    <path d="M 250.503806 640.8 
L 251.407431 640.8 
L 251.407431 362.435333 
L 250.503806 362.435333 
z
" clip-path="url(#p2f5fe8183a)" style="fill: #1f77b4"/>
   </g>
   <g id="patch_71">
    <path d="M 251.407431 640.8 
L 252.299046 640.8 
L 252.299046 640.8 
L 251.407431 640.8 
z
" clip-path="url(#p2f5fe8183a)" style="fill: #1f77b4"/>
   </g>
   <g id="patch_72">
    <path d="M 252.299046 640.8 
L 253.178966 640.8 
L 253.178966 640.8 
L 252.299046 640.8 
z
" clip-path="url(#p2f5fe8183a)" style="fill: #1f77b4"/>
   </g>
   <g id="patch_73">
    <path d="M 253.178966 640.8 
L 254.047493 640.8 
L 254.047493 640.8 
L 253.178966 640.8 
z
" clip-path="url(#p2f5fe8183a)" style="fill: #1f77b4"/>
   </g>
   <g id="patch_74">
    <path d="M 254.047493 640.8 
L 254.904919 640.8 
L 254.904919 640.8 
L 254.047493 640.8 
z
" clip-path="url(#p2f5fe8183a)" style="fill: #1f77b4"/>
   </g>
   <g id="patch_75">
    <path d="M 254.904919 640.8 
L 255.751524 640.8 
L 255.751524 640.8 
L 254.904919 640.8 
z
" clip-path="url(#p2f5fe8183a)" style="fill: #1f77b4"/>
   </g>
   <g id="patch_76">
    <path d="M 255.751524 640.8 
L 256.587578 640.8 
L 256.587578 640.8 
L 255.751524 640.8 
z
" clip-path="url(#p2f5fe8183a)" style="fill: #1f77b4"/>
   </g>
   <g id="patch_77">
    <path d="M 256.587578 640.8 
L 257.41334 640.8 
L 257.41334 455.241062 
L 256.587578 455.241062 
z
" clip-path="url(#p2f5fe8183a)" style="fill: #1f77b4"/>
   </g>
   <g id="patch_78">
    <path d="M 257.41334 640.8 
L 258.229061 640.8 
L 258.229061 640.8 
L 257.41334 640.8 
z
" clip-path="url(#p2f5fe8183a)" style="fill: #1f77b4"/>
   </g>
   <g id="patch_79">
    <path d="M 258.229061 640.8 
L 259.034982 640.8 
L 259.034982 640.8 
L 258.229061 640.8 
z
" clip-path="url(#p2f5fe8183a)" style="fill: #1f77b4"/>
   </g>
   <g id="patch_80">
    <path d="M 259.034982 640.8 
L 259.831335 640.8 
L 259.831335 640.8 
L 259.034982 640.8 
z
" clip-path="url(#p2f5fe8183a)" style="fill: #1f77b4"/>
   </g>
   <g id="patch_81">
    <path d="M 259.831335 640.8 
L 260.618346 640.8 
L 260.618346 640.8 
L 259.831335 640.8 
z
" clip-path="url(#p2f5fe8183a)" style="fill: #1f77b4"/>
   </g>
   <g id="patch_82">
    <path d="M 260.618346 640.8 
L 261.396231 640.8 
L 261.396231 640.8 
L 260.618346 640.8 
z
" clip-path="url(#p2f5fe8183a)" style="fill: #1f77b4"/>
   </g>
   <g id="patch_83">
    <path d="M 261.396231 640.8 
L 262.165199 640.8 
L 262.165199 528.981438 
L 261.396231 528.981438 
z
" clip-path="url(#p2f5fe8183a)" style="fill: #1f77b4"/>
   </g>
   <g id="patch_84">
    <path d="M 262.165199 640.8 
L 262.925452 640.8 
L 262.925452 640.8 
L 262.165199 640.8 
z
" clip-path="url(#p2f5fe8183a)" style="fill: #1f77b4"/>
   </g>
   <g id="patch_85">
    <path d="M 262.925452 640.8 
L 263.677185 640.8 
L 263.677185 640.8 
L 262.925452 640.8 
z
" clip-path="url(#p2f5fe8183a)" style="fill: #1f77b4"/>
   </g>
   <g id="patch_86">
    <path d="M 263.677185 640.8 
L 264.420588 640.8 
L 264.420588 640.8 
L 263.677185 640.8 
z
" clip-path="url(#p2f5fe8183a)" style="fill: #1f77b4"/>
   </g>
   <g id="patch_87">
    <path d="M 264.420588 640.8 
L 265.155843 640.8 
L 265.155843 640.8 
L 264.420588 640.8 
z
" clip-path="url(#p2f5fe8183a)" style="fill: #1f77b4"/>
   </g>
   <g id="patch_88">
    <path d="M 265.155843 640.8 
L 265.883127 640.8 
L 265.883127 640.8 
L 265.155843 640.8 
z
" clip-path="url(#p2f5fe8183a)" style="fill: #1f77b4"/>
   </g>
   <g id="patch_89">
    <path d="M 265.883127 640.8 
L 266.60261 640.8 
L 266.60261 640.8 
L 265.883127 640.8 
z
" clip-path="url(#p2f5fe8183a)" style="fill: #1f77b4"/>
   </g>
   <g id="patch_90">
    <path d="M 266.60261 640.8 
L 267.314459 640.8 
L 267.314459 585.23211 
L 266.60261 585.23211 
z
" clip-path="url(#p2f5fe8183a)" style="fill: #1f77b4"/>
   </g>
   <g id="patch_91">
    <path d="M 267.314459 640.8 
L 268.018833 640.8 
L 268.018833 640.8 
L 267.314459 640.8 
z
" clip-path="url(#p2f5fe8183a)" style="fill: #1f77b4"/>
   </g>
   <g id="patch_92">
    <path d="M 268.018833 640.8 
L 268.715888 640.8 
L 268.715888 640.8 
L 268.018833 640.8 
z
" clip-path="url(#p2f5fe8183a)" style="fill: #1f77b4"/>
   </g>
   <g id="patch_93">
    <path d="M 268.715888 640.8 
L 269.405774 640.8 
L 269.405774 640.8 
L 268.715888 640.8 
z
" clip-path="url(#p2f5fe8183a)" style="fill: #1f77b4"/>
   </g>
   <g id="patch_94">
    <path d="M 269.405774 640.8 
L 270.088637 640.8 
L 270.088637 640.8 
L 269.405774 640.8 
z
" clip-path="url(#p2f5fe8183a)" style="fill: #1f77b4"/>
   </g>
   <g id="patch_95">
    <path d="M 270.088637 640.8 
L 270.76462 640.8 
L 270.76462 640.8 
L 270.088637 640.8 
z
" clip-path="url(#p2f5fe8183a)" style="fill: #1f77b4"/>
   </g>
   <g id="patch_96">
    <path d="M 270.76462 640.8 
L 271.433859 640.8 
L 271.433859 640.8 
L 270.76462 640.8 
z
" clip-path="url(#p2f5fe8183a)" style="fill: #1f77b4"/>
   </g>
   <g id="patch_97">
    <path d="M 271.433859 640.8 
L 272.096487 640.8 
L 272.096487 611.703014 
L 271.433859 611.703014 
z
" clip-path="url(#p2f5fe8183a)" style="fill: #1f77b4"/>
   </g>
   <g id="patch_98">
    <path d="M 272.096487 640.8 
L 272.752634 640.8 
L 272.752634 640.8 
L 272.096487 640.8 
z
" clip-path="url(#p2f5fe8183a)" style="fill: #1f77b4"/>
   </g>
   <g id="patch_99">
    <path d="M 272.752634 640.8 
L 273.402425 640.8 
L 273.402425 640.8 
L 272.752634 640.8 
z
" clip-path="url(#p2f5fe8183a)" style="fill: #1f77b4"/>
   </g>
   <g id="patch_100">
    <path d="M 273.402425 640.8 
L 274.045982 640.8 
L 274.045982 640.8 
L 273.402425 640.8 
z
" clip-path="url(#p2f5fe8183a)" style="fill: #1f77b4"/>
   </g>
   <g id="patch_101">
    <path d="M 274.045982 640.8 
L 274.683424 640.8 
L 274.683424 640.8 
L 274.045982 640.8 
z
" clip-path="url(#p2f5fe8183a)" style="fill: #1f77b4"/>
   </g>
   <g id="patch_102">
    <path d="M 274.683424 640.8 
L 275.314866 640.8 
L 275.314866 640.8 
L 274.683424 640.8 
z
" clip-path="url(#p2f5fe8183a)" style="fill: #1f77b4"/>
   </g>
   <g id="patch_103">
    <path d="M 275.314866 640.8 
L 275.94042 640.8 
L 275.94042 640.8 
L 275.314866 640.8 
z
" clip-path="url(#p2f5fe8183a)" style="fill: #1f77b4"/>
   </g>
   <g id="patch_104">
    <path d="M 275.94042 640.8 
L 276.560194 640.8 
L 276.560194 630.348195 
L 275.94042 630.348195 
z
" clip-path="url(#p2f5fe8183a)" style="fill: #1f77b4"/>
   </g>
   <g id="patch_105">
    <path d="M 276.560194 640.8 
L 277.174295 640.8 
L 277.174295 640.8 
L 276.560194 640.8 
z
" clip-path="url(#p2f5fe8183a)" style="fill: #1f77b4"/>
   </g>
   <g id="patch_106">
    <path d="M 277.174295 640.8 
L 277.782825 640.8 
L 277.782825 640.8 
L 277.174295 640.8 
z
" clip-path="url(#p2f5fe8183a)" style="fill: #1f77b4"/>
   </g>
   <g id="patch_107">
    <path d="M 277.782825 640.8 
L 278.385884 640.8 
L 278.385884 640.8 
L 277.782825 640.8 
z
" clip-path="url(#p2f5fe8183a)" style="fill: #1f77b4"/>
   </g>
   <g id="patch_108">
    <path d="M 278.385884 640.8 
L 278.983571 640.8 
L 278.983571 640.8 
L 278.385884 640.8 
z
" clip-path="url(#p2f5fe8183a)" style="fill: #1f77b4"/>
   </g>
   <g id="patch_109">
    <path d="M 278.983571 640.8 
L 279.575979 640.8 
L 279.575979 640.8 
L 278.983571 640.8 
z
" clip-path="url(#p2f5fe8183a)" style="fill: #1f77b4"/>
   </g>
   <g id="patch_110">
    <path d="M 279.575979 640.8 
L 280.163201 640.8 
L 280.163201 635.547836 
L 279.575979 635.547836 
z
" clip-path="url(#p2f5fe8183a)" style="fill: #1f77b4"/>
   </g>
   <g id="patch_111">
    <path d="M 280.163201 640.8 
L 280.745328 640.8 
L 280.745328 640.8 
L 280.163201 640.8 
z
" clip-path="url(#p2f5fe8183a)" style="fill: #1f77b4"/>
   </g>
   <g id="patch_112">
    <path d="M 280.745328 640.8 
L 281.322447 640.8 
L 281.322447 640.8 
L 280.745328 640.8 
z
" clip-path="url(#p2f5fe8183a)" style="fill: #1f77b4"/>
   </g>
   <g id="patch_113">
    <path d="M 281.322447 640.8 
L 281.894643 640.8 
L 281.894643 640.8 
L 281.322447 640.8 
z
" clip-path="url(#p2f5fe8183a)" style="fill: #1f77b4"/>
   </g>
   <g id="patch_114">
    <path d="M 281.894643 640.8 
L 282.461999 640.8 
L 282.461999 640.8 
L 281.894643 640.8 
z
" clip-path="url(#p2f5fe8183a)" style="fill: #1f77b4"/>
   </g>
   <g id="patch_115">
    <path d="M 282.461999 640.8 
L 283.024597 640.8 
L 283.024597 640.8 
L 282.461999 640.8 
z
" clip-path="url(#p2f5fe8183a)" style="fill: #1f77b4"/>
   </g>
   <g id="patch_116">
    <path d="M 283.024597 640.8 
L 283.582517 640.8 
L 283.582517 640.8 
L 283.024597 640.8 
z
" clip-path="url(#p2f5fe8183a)" style="fill: #1f77b4"/>
   </g>
   <g id="patch_117">
    <path d="M 283.582517 640.8 
L 284.135834 640.8 
L 284.135834 639.592002 
L 283.582517 639.592002 
z
" clip-path="url(#p2f5fe8183a)" style="fill: #1f77b4"/>
   </g>
   <g id="patch_118">
    <path d="M 284.135834 640.8 
L 284.684625 640.8 
L 284.684625 640.8 
L 284.135834 640.8 
z
" clip-path="url(#p2f5fe8183a)" style="fill: #1f77b4"/>
   </g>
   <g id="patch_119">
    <path d="M 284.684625 640.8 
L 285.228963 640.8 
L 285.228963 640.8 
L 284.684625 640.8 
z
" clip-path="url(#p2f5fe8183a)" style="fill: #1f77b4"/>
   </g>
   <g id="patch_120">
    <path d="M 285.228963 640.8 
L 285.768919 640.8 
L 285.768919 640.8 
L 285.228963 640.8 
z
" clip-path="url(#p2f5fe8183a)" style="fill: #1f77b4"/>
   </g>
   <g id="patch_121">
    <path d="M 285.768919 640.8 
L 286.304564 640.8 
L 286.304564 640.8 
L 285.768919 640.8 
z
" clip-path="url(#p2f5fe8183a)" style="fill: #1f77b4"/>
   </g>
   <g id="patch_122">
    <path d="M 286.304564 640.8 
L 286.835966 640.8 
L 286.835966 640.8 
L 286.304564 640.8 
z
" clip-path="url(#p2f5fe8183a)" style="fill: #1f77b4"/>
   </g>
   <g id="patch_123">
    <path d="M 286.835966 640.8 
L 287.363192 640.8 
L 287.363192 640.8 
L 286.835966 640.8 
z
" clip-path="url(#p2f5fe8183a)" style="fill: #1f77b4"/>
   </g>
   <g id="patch_124">
    <path d="M 287.363192 640.8 
L 287.886306 640.8 
L 287.886306 640.432349 
L 287.363192 640.432349 
z
" clip-path="url(#p2f5fe8183a)" style="fill: #1f77b4"/>
   </g>
   <g id="patch_125">
    <path d="M 287.886306 640.8 
L 288.405372 640.8 
L 288.405372 640.8 
L 287.886306 640.8 
z
" clip-path="url(#p2f5fe8183a)" style="fill: #1f77b4"/>
   </g>
   <g id="patch_126">
    <path d="M 288.405372 640.8 
L 288.920453 640.8 
L 288.920453 640.8 
L 288.405372 640.8 
z
" clip-path="url(#p2f5fe8183a)" style="fill: #1f77b4"/>
   </g>
   <g id="patch_127">
    <path d="M 288.920453 640.8 
L 289.431609 640.8 
L 289.431609 640.8 
L 288.920453 640.8 
z
" clip-path="url(#p2f5fe8183a)" style="fill: #1f77b4"/>
   </g>
   <g id="patch_128">
    <path d="M 289.431609 640.8 
L 289.938899 640.8 
L 289.938899 640.8 
L 289.431609 640.8 
z
" clip-path="url(#p2f5fe8183a)" style="fill: #1f77b4"/>
   </g>
   <g id="patch_129">
    <path d="M 289.938899 640.8 
L 290.442383 640.8 
L 290.442383 640.8 
L 289.938899 640.8 
z
" clip-path="url(#p2f5fe8183a)" style="fill: #1f77b4"/>
   </g>
   <g id="patch_130">
    <path d="M 290.442383 640.8 
L 290.942115 640.8 
L 290.942115 640.8 
L 290.442383 640.8 
z
" clip-path="url(#p2f5fe8183a)" style="fill: #1f77b4"/>
   </g>
   <g id="patch_131">
    <path d="M 290.942115 640.8 
L 291.438153 640.8 
L 291.438153 640.589913 
L 290.942115 640.589913 
z
" clip-path="url(#p2f5fe8183a)" style="fill: #1f77b4"/>
   </g>
   <g id="patch_132">
    <path d="M 291.438153 640.8 
L 291.930549 640.8 
L 291.930549 640.8 
L 291.438153 640.8 
z
" clip-path="url(#p2f5fe8183a)" style="fill: #1f77b4"/>
   </g>
   <g id="patch_133">
    <path d="M 291.930549 640.8 
L 292.419357 640.8 
L 292.419357 640.8 
L 291.930549 640.8 
z
" clip-path="url(#p2f5fe8183a)" style="fill: #1f77b4"/>
   </g>
   <g id="patch_134">
    <path d="M 292.419357 640.8 
L 292.90463 640.8 
L 292.90463 640.8 
L 292.419357 640.8 
z
" clip-path="url(#p2f5fe8183a)" style="fill: #1f77b4"/>
   </g>
   <g id="patch_135">
    <path d="M 292.90463 640.8 
L 293.386417 640.8 
L 293.386417 640.8 
L 292.90463 640.8 
z
" clip-path="url(#p2f5fe8183a)" style="fill: #1f77b4"/>
   </g>
   <g id="patch_136">
    <path d="M 293.386417 640.8 
L 293.864769 640.8 
L 293.864769 640.8 
L 293.386417 640.8 
z
" clip-path="url(#p2f5fe8183a)" style="fill: #1f77b4"/>
   </g>
   <g id="patch_137">
    <path d="M 293.864769 640.8 
L 294.339734 640.8 
L 294.339734 640.694957 
L 293.864769 640.694957 
z
" clip-path="url(#p2f5fe8183a)" style="fill: #1f77b4"/>
   </g>
   <g id="patch_138">
    <path d="M 294.339734 640.8 
L 294.811359 640.8 
L 294.811359 640.8 
L 294.339734 640.8 
z
" clip-path="url(#p2f5fe8183a)" style="fill: #1f77b4"/>
   </g>
   <g id="patch_139">
    <path d="M 294.811359 640.8 
L 295.279693 640.8 
L 295.279693 640.8 
L 294.811359 640.8 
z
" clip-path="url(#p2f5fe8183a)" style="fill: #1f77b4"/>
   </g>
   <g id="patch_140">
    <path d="M 295.279693 640.8 
L 295.744779 640.8 
L 295.744779 640.8 
L 295.279693 640.8 
z
" clip-path="url(#p2f5fe8183a)" style="fill: #1f77b4"/>
   </g>
   <g id="patch_141">
    <path d="M 295.744779 640.8 
L 296.206663 640.8 
L 296.206663 640.8 
L 295.744779 640.8 
z
" clip-path="url(#p2f5fe8183a)" style="fill: #1f77b4"/>
   </g>
   <g id="patch_142">
    <path d="M 296.206663 640.8 
L 296.665388 640.8 
L 296.665388 640.8 
L 296.206663 640.8 
z
" clip-path="url(#p2f5fe8183a)" style="fill: #1f77b4"/>
   </g>
   <g id="patch_143">
    <path d="M 296.665388 640.8 
L 297.120998 640.8 
L 297.120998 640.8 
L 296.665388 640.8 
z
" clip-path="url(#p2f5fe8183a)" style="fill: #1f77b4"/>
   </g>
   <g id="patch_144">
    <path d="M 297.120998 640.8 
L 297.573534 640.8 
L 297.573534 640.8 
L 297.120998 640.8 
z
" clip-path="url(#p2f5fe8183a)" style="fill: #1f77b4"/>
   </g>
   <g id="patch_145">
    <path d="M 297.573534 640.8 
L 298.023038 640.8 
L 298.023038 640.8 
L 297.573534 640.8 
z
" clip-path="url(#p2f5fe8183a)" style="fill: #1f77b4"/>
   </g>
   <g id="patch_146">
    <path d="M 298.023038 640.8 
L 298.469551 640.8 
L 298.469551 640.8 
L 298.023038 640.8 
z
" clip-path="url(#p2f5fe8183a)" style="fill: #1f77b4"/>
   </g>
   <g id="patch_147">
    <path d="M 298.469551 640.8 
L 298.91311 640.8 
L 298.91311 640.8 
L 298.469551 640.8 
z
" clip-path="url(#p2f5fe8183a)" style="fill: #1f77b4"/>
   </g>
   <g id="patch_148">
    <path d="M 298.91311 640.8 
L 299.353757 640.8 
L 299.353757 640.8 
L 298.91311 640.8 
z
" clip-path="url(#p2f5fe8183a)" style="fill: #1f77b4"/>
   </g>
   <g id="patch_149">
    <path d="M 299.353757 640.8 
L 299.791527 640.8 
L 299.791527 640.8 
L 299.353757 640.8 
z
" clip-path="url(#p2f5fe8183a)" style="fill: #1f77b4"/>
   </g>
   <g id="patch_150">
    <path d="M 299.791527 640.8 
L 300.22646 640.8 
L 300.22646 640.8 
L 299.791527 640.8 
z
" clip-path="url(#p2f5fe8183a)" style="fill: #1f77b4"/>
   </g>
   <g id="patch_151">
    <path d="M 300.22646 640.8 
L 300.65859 640.8 
L 300.65859 640.8 
L 300.22646 640.8 
z
" clip-path="url(#p2f5fe8183a)" style="fill: #1f77b4"/>
   </g>
   <g id="patch_152">
    <path d="M 300.65859 640.8 
L 301.087955 640.8 
L 301.087955 640.8 
L 300.65859 640.8 
z
" clip-path="url(#p2f5fe8183a)" style="fill: #1f77b4"/>
   </g>
   <g id="patch_153">
    <path d="M 301.087955 640.8 
L 301.514589 640.8 
L 301.514589 640.8 
L 301.087955 640.8 
z
" clip-path="url(#p2f5fe8183a)" style="fill: #1f77b4"/>
   </g>
   <g id="patch_154">
    <path d="M 301.514589 640.8 
L 301.938527 640.8 
L 301.938527 640.8 
L 301.514589 640.8 
z
" clip-path="url(#p2f5fe8183a)" style="fill: #1f77b4"/>
   </g>
   <g id="patch_155">
    <path d="M 301.938527 640.8 
L 302.359803 640.8 
L 302.359803 640.8 
L 301.938527 640.8 
z
" clip-path="url(#p2f5fe8183a)" style="fill: #1f77b4"/>
   </g>
   <g id="patch_156">
    <path d="M 302.359803 640.8 
L 302.778449 640.8 
L 302.778449 640.8 
L 302.359803 640.8 
z
" clip-path="url(#p2f5fe8183a)" style="fill: #1f77b4"/>
   </g>
   <g id="patch_157">
    <path d="M 302.778449 640.8 
L 303.194499 640.8 
L 303.194499 640.747478 
L 302.778449 640.747478 
z
" clip-path="url(#p2f5fe8183a)" style="fill: #1f77b4"/>
   </g>
   <g id="matplotlib.axis_1">
    <g id="xtick_1">
     <g id="line2d_1">
      <defs>
       <path id="mf61b5478eb" d="M 0 0 
L 0 3.5 
" style="stroke: #000000; stroke-width: 0.8"/>
      </defs>
      <g>
       <use xlink:href="#mf61b5478eb" x="90" y="640.8" style="stroke: #000000; stroke-width: 0.8"/>
      </g>
     </g>
     <g id="text_1">
      <!-- $\mathdefault{10^{0}}$ -->
      <g transform="translate(81.2 655.398438)scale(0.1 -0.1)">
       <defs>
        <path id="DejaVuSans-31" d="M 794 531 
L 1825 531 
L 1825 4091 
L 703 3866 
L 703 4441 
L 1819 4666 
L 2450 4666 
L 2450 531 
L 3481 531 
L 3481 0 
L 794 0 
L 794 531 
z
" transform="scale(0.015625)"/>
        <path id="DejaVuSans-30" d="M 2034 4250 
Q 1547 4250 1301 3770 
Q 1056 3291 1056 2328 
Q 1056 1369 1301 889 
Q 1547 409 2034 409 
Q 2525 409 2770 889 
Q 3016 1369 3016 2328 
Q 3016 3291 2770 3770 
Q 2525 4250 2034 4250 
z
M 2034 4750 
Q 2819 4750 3233 4129 
Q 3647 3509 3647 2328 
Q 3647 1150 3233 529 
Q 2819 -91 2034 -91 
Q 1250 -91 836 529 
Q 422 1150 422 2328 
Q 422 3509 836 4129 
Q 1250 4750 2034 4750 
z
" transform="scale(0.015625)"/>
       </defs>
       <use xlink:href="#DejaVuSans-31" transform="translate(0 0.765625)"/>
       <use xlink:href="#DejaVuSans-30" transform="translate(63.623047 0.765625)"/>
       <use xlink:href="#DejaVuSans-30" transform="translate(128.203125 39.046875)scale(0.7)"/>
      </g>
     </g>
    </g>
    <g id="xtick_2">
     <g id="line2d_2">
      <g>
       <use xlink:href="#mf61b5478eb" x="244.465123" y="640.8" style="stroke: #000000; stroke-width: 0.8"/>
      </g>
     </g>
     <g id="text_2">
      <!-- $\mathdefault{10^{1}}$ -->
      <g transform="translate(235.665123 655.398438)scale(0.1 -0.1)">
       <use xlink:href="#DejaVuSans-31" transform="translate(0 0.684375)"/>
       <use xlink:href="#DejaVuSans-30" transform="translate(63.623047 0.684375)"/>
       <use xlink:href="#DejaVuSans-31" transform="translate(128.203125 38.965625)scale(0.7)"/>
      </g>
     </g>
    </g>
    <g id="xtick_3">
     <g id="line2d_3">
      <g>
       <use xlink:href="#mf61b5478eb" x="398.930246" y="640.8" style="stroke: #000000; stroke-width: 0.8"/>
      </g>
     </g>
     <g id="text_3">
      <!-- $\mathdefault{10^{2}}$ -->
      <g transform="translate(390.130246 655.398438)scale(0.1 -0.1)">
       <defs>
        <path id="DejaVuSans-32" d="M 1228 531 
L 3431 531 
L 3431 0 
L 469 0 
L 469 531 
Q 828 903 1448 1529 
Q 2069 2156 2228 2338 
Q 2531 2678 2651 2914 
Q 2772 3150 2772 3378 
Q 2772 3750 2511 3984 
Q 2250 4219 1831 4219 
Q 1534 4219 1204 4116 
Q 875 4013 500 3803 
L 500 4441 
Q 881 4594 1212 4672 
Q 1544 4750 1819 4750 
Q 2544 4750 2975 4387 
Q 3406 4025 3406 3419 
Q 3406 3131 3298 2873 
Q 3191 2616 2906 2266 
Q 2828 2175 2409 1742 
Q 1991 1309 1228 531 
z
" transform="scale(0.015625)"/>
       </defs>
       <use xlink:href="#DejaVuSans-31" transform="translate(0 0.765625)"/>
       <use xlink:href="#DejaVuSans-30" transform="translate(63.623047 0.765625)"/>
       <use xlink:href="#DejaVuSans-32" transform="translate(128.203125 39.046875)scale(0.7)"/>
      </g>
     </g>
    </g>
    <g id="xtick_4">
     <g id="line2d_4">
      <g>
       <use xlink:href="#mf61b5478eb" x="553.395369" y="640.8" style="stroke: #000000; stroke-width: 0.8"/>
      </g>
     </g>
     <g id="text_4">
      <!-- $\mathdefault{10^{3}}$ -->
      <g transform="translate(544.595369 655.398438)scale(0.1 -0.1)">
       <defs>
        <path id="DejaVuSans-33" d="M 2597 2516 
Q 3050 2419 3304 2112 
Q 3559 1806 3559 1356 
Q 3559 666 3084 287 
Q 2609 -91 1734 -91 
Q 1441 -91 1130 -33 
Q 819 25 488 141 
L 488 750 
Q 750 597 1062 519 
Q 1375 441 1716 441 
Q 2309 441 2620 675 
Q 2931 909 2931 1356 
Q 2931 1769 2642 2001 
Q 2353 2234 1838 2234 
L 1294 2234 
L 1294 2753 
L 1863 2753 
Q 2328 2753 2575 2939 
Q 2822 3125 2822 3475 
Q 2822 3834 2567 4026 
Q 2313 4219 1838 4219 
Q 1578 4219 1281 4162 
Q 984 4106 628 3988 
L 628 4550 
Q 988 4650 1302 4700 
Q 1616 4750 1894 4750 
Q 2613 4750 3031 4423 
Q 3450 4097 3450 3541 
Q 3450 3153 3228 2886 
Q 3006 2619 2597 2516 
z
" transform="scale(0.015625)"/>
       </defs>
       <use xlink:href="#DejaVuSans-31" transform="translate(0 0.765625)"/>
       <use xlink:href="#DejaVuSans-30" transform="translate(63.623047 0.765625)"/>
       <use xlink:href="#DejaVuSans-33" transform="translate(128.203125 39.046875)scale(0.7)"/>
      </g>
     </g>
    </g>
    <g id="xtick_5">
     <g id="line2d_5">
      <defs>
       <path id="m3931d21f02" d="M 0 0 
L 0 2 
" style="stroke: #000000; stroke-width: 0.6"/>
      </defs>
      <g>
       <use xlink:href="#m3931d21f02" x="136.498635" y="640.8" style="stroke: #000000; stroke-width: 0.6"/>
      </g>
     </g>
    </g>
    <g id="xtick_6">
     <g id="line2d_6">
      <g>
       <use xlink:href="#m3931d21f02" x="163.698593" y="640.8" style="stroke: #000000; stroke-width: 0.6"/>
      </g>
     </g>
    </g>
    <g id="xtick_7">
     <g id="line2d_7">
      <g>
       <use xlink:href="#m3931d21f02" x="182.997271" y="640.8" style="stroke: #000000; stroke-width: 0.6"/>
      </g>
     </g>
    </g>
    <g id="xtick_8">
     <g id="line2d_8">
      <g>
       <use xlink:href="#m3931d21f02" x="197.966488" y="640.8" style="stroke: #000000; stroke-width: 0.6"/>
      </g>
     </g>
    </g>
    <g id="xtick_9">
     <g id="line2d_9">
      <g>
       <use xlink:href="#m3931d21f02" x="210.197229" y="640.8" style="stroke: #000000; stroke-width: 0.6"/>
      </g>
     </g>
    </g>
    <g id="xtick_10">
     <g id="line2d_10">
      <g>
       <use xlink:href="#m3931d21f02" x="220.538173" y="640.8" style="stroke: #000000; stroke-width: 0.6"/>
      </g>
     </g>
    </g>
    <g id="xtick_11">
     <g id="line2d_11">
      <g>
       <use xlink:href="#m3931d21f02" x="229.495906" y="640.8" style="stroke: #000000; stroke-width: 0.6"/>
      </g>
     </g>
    </g>
    <g id="xtick_12">
     <g id="line2d_12">
      <g>
       <use xlink:href="#m3931d21f02" x="237.397187" y="640.8" style="stroke: #000000; stroke-width: 0.6"/>
      </g>
     </g>
    </g>
    <g id="xtick_13">
     <g id="line2d_13">
      <g>
       <use xlink:href="#m3931d21f02" x="290.963759" y="640.8" style="stroke: #000000; stroke-width: 0.6"/>
      </g>
     </g>
    </g>
    <g id="xtick_14">
     <g id="line2d_14">
      <g>
       <use xlink:href="#m3931d21f02" x="318.163717" y="640.8" style="stroke: #000000; stroke-width: 0.6"/>
      </g>
     </g>
    </g>
    <g id="xtick_15">
     <g id="line2d_15">
      <g>
       <use xlink:href="#m3931d21f02" x="337.462394" y="640.8" style="stroke: #000000; stroke-width: 0.6"/>
      </g>
     </g>
    </g>
    <g id="xtick_16">
     <g id="line2d_16">
      <g>
       <use xlink:href="#m3931d21f02" x="352.431611" y="640.8" style="stroke: #000000; stroke-width: 0.6"/>
      </g>
     </g>
    </g>
    <g id="xtick_17">
     <g id="line2d_17">
      <g>
       <use xlink:href="#m3931d21f02" x="364.662352" y="640.8" style="stroke: #000000; stroke-width: 0.6"/>
      </g>
     </g>
    </g>
    <g id="xtick_18">
     <g id="line2d_18">
      <g>
       <use xlink:href="#m3931d21f02" x="375.003296" y="640.8" style="stroke: #000000; stroke-width: 0.6"/>
      </g>
     </g>
    </g>
    <g id="xtick_19">
     <g id="line2d_19">
      <g>
       <use xlink:href="#m3931d21f02" x="383.961029" y="640.8" style="stroke: #000000; stroke-width: 0.6"/>
      </g>
     </g>
    </g>
    <g id="xtick_20">
     <g id="line2d_20">
      <g>
       <use xlink:href="#m3931d21f02" x="391.86231" y="640.8" style="stroke: #000000; stroke-width: 0.6"/>
      </g>
     </g>
    </g>
    <g id="xtick_21">
     <g id="line2d_21">
      <g>
       <use xlink:href="#m3931d21f02" x="445.428882" y="640.8" style="stroke: #000000; stroke-width: 0.6"/>
      </g>
     </g>
    </g>
    <g id="xtick_22">
     <g id="line2d_22">
      <g>
       <use xlink:href="#m3931d21f02" x="472.62884" y="640.8" style="stroke: #000000; stroke-width: 0.6"/>
      </g>
     </g>
    </g>
    <g id="xtick_23">
     <g id="line2d_23">
      <g>
       <use xlink:href="#m3931d21f02" x="491.927517" y="640.8" style="stroke: #000000; stroke-width: 0.6"/>
      </g>
     </g>
    </g>
    <g id="xtick_24">
     <g id="line2d_24">
      <g>
       <use xlink:href="#m3931d21f02" x="506.896734" y="640.8" style="stroke: #000000; stroke-width: 0.6"/>
      </g>
     </g>
    </g>
    <g id="xtick_25">
     <g id="line2d_25">
      <g>
       <use xlink:href="#m3931d21f02" x="519.127475" y="640.8" style="stroke: #000000; stroke-width: 0.6"/>
      </g>
     </g>
    </g>
    <g id="xtick_26">
     <g id="line2d_26">
      <g>
       <use xlink:href="#m3931d21f02" x="529.468419" y="640.8" style="stroke: #000000; stroke-width: 0.6"/>
      </g>
     </g>
    </g>
    <g id="xtick_27">
     <g id="line2d_27">
      <g>
       <use xlink:href="#m3931d21f02" x="538.426152" y="640.8" style="stroke: #000000; stroke-width: 0.6"/>
      </g>
     </g>
    </g>
    <g id="xtick_28">
     <g id="line2d_28">
      <g>
       <use xlink:href="#m3931d21f02" x="546.327433" y="640.8" style="stroke: #000000; stroke-width: 0.6"/>
      </g>
     </g>
    </g>
    <g id="xtick_29">
     <g id="line2d_29">
      <g>
       <use xlink:href="#m3931d21f02" x="599.894005" y="640.8" style="stroke: #000000; stroke-width: 0.6"/>
      </g>
     </g>
    </g>
    <g id="xtick_30">
     <g id="line2d_30">
      <g>
       <use xlink:href="#m3931d21f02" x="627.093963" y="640.8" style="stroke: #000000; stroke-width: 0.6"/>
      </g>
     </g>
    </g>
    <g id="xtick_31">
     <g id="line2d_31">
      <g>
       <use xlink:href="#m3931d21f02" x="646.39264" y="640.8" style="stroke: #000000; stroke-width: 0.6"/>
      </g>
     </g>
    </g>
    <g id="text_5">
     <!-- Collisions for hash table's cell -->
     <g transform="translate(220.942187 676.675)scale(0.2 -0.2)">
      <defs>
       <path id="DejaVuSans-43" d="M 4122 4306 
L 4122 3641 
Q 3803 3938 3442 4084 
Q 3081 4231 2675 4231 
Q 1875 4231 1450 3742 
Q 1025 3253 1025 2328 
Q 1025 1406 1450 917 
Q 1875 428 2675 428 
Q 3081 428 3442 575 
Q 3803 722 4122 1019 
L 4122 359 
Q 3791 134 3420 21 
Q 3050 -91 2638 -91 
Q 1578 -91 968 557 
Q 359 1206 359 2328 
Q 359 3453 968 4101 
Q 1578 4750 2638 4750 
Q 3056 4750 3426 4639 
Q 3797 4528 4122 4306 
z
" transform="scale(0.015625)"/>
       <path id="DejaVuSans-6f" d="M 1959 3097 
Q 1497 3097 1228 2736 
Q 959 2375 959 1747 
Q 959 1119 1226 758 
Q 1494 397 1959 397 
Q 2419 397 2687 759 
Q 2956 1122 2956 1747 
Q 2956 2369 2687 2733 
Q 2419 3097 1959 3097 
z
M 1959 3584 
Q 2709 3584 3137 3096 
Q 3566 2609 3566 1747 
Q 3566 888 3137 398 
Q 2709 -91 1959 -91 
Q 1206 -91 779 398 
Q 353 888 353 1747 
Q 353 2609 779 3096 
Q 1206 3584 1959 3584 
z
" transform="scale(0.015625)"/>
       <path id="DejaVuSans-6c" d="M 603 4863 
L 1178 4863 
L 1178 0 
L 603 0 
L 603 4863 
z
" transform="scale(0.015625)"/>
       <path id="DejaVuSans-69" d="M 603 3500 
L 1178 3500 
L 1178 0 
L 603 0 
L 603 3500 
z
M 603 4863 
L 1178 4863 
L 1178 4134 
L 603 4134 
L 603 4863 
z
" transform="scale(0.015625)"/>
       <path id="DejaVuSans-73" d="M 2834 3397 
L 2834 2853 
Q 2591 2978 2328 3040 
Q 2066 3103 1784 3103 
Q 1356 3103 1142 2972 
Q 928 2841 928 2578 
Q 928 2378 1081 2264 
Q 1234 2150 1697 2047 
L 1894 2003 
Q 2506 1872 2764 1633 
Q 3022 1394 3022 966 
Q 3022 478 2636 193 
Q 2250 -91 1575 -91 
Q 1294 -91 989 -36 
Q 684 19 347 128 
L 347 722 
Q 666 556 975 473 
Q 1284 391 1588 391 
Q 1994 391 2212 530 
Q 2431 669 2431 922 
Q 2431 1156 2273 1281 
Q 2116 1406 1581 1522 
L 1381 1569 
Q 847 1681 609 1914 
Q 372 2147 372 2553 
Q 372 3047 722 3315 
Q 1072 3584 1716 3584 
Q 2034 3584 2315 3537 
Q 2597 3491 2834 3397 
z
" transform="scale(0.015625)"/>
       <path id="DejaVuSans-6e" d="M 3513 2113 
L 3513 0 
L 2938 0 
L 2938 2094 
Q 2938 2591 2744 2837 
Q 2550 3084 2163 3084 
Q 1697 3084 1428 2787 
Q 1159 2491 1159 1978 
L 1159 0 
L 581 0 
L 581 3500 
L 1159 3500 
L 1159 2956 
Q 1366 3272 1645 3428 
Q 1925 3584 2291 3584 
Q 2894 3584 3203 3211 
Q 3513 2838 3513 2113 
z
" transform="scale(0.015625)"/>
       <path id="DejaVuSans-20" transform="scale(0.015625)"/>
       <path id="DejaVuSans-66" d="M 2375 4863 
L 2375 4384 
L 1825 4384 
Q 1516 4384 1395 4259 
Q 1275 4134 1275 3809 
L 1275 3500 
L 2222 3500 
L 2222 3053 
L 1275 3053 
L 1275 0 
L 697 0 
L 697 3053 
L 147 3053 
L 147 3500 
L 697 3500 
L 697 3744 
Q 697 4328 969 4595 
Q 1241 4863 1831 4863 
L 2375 4863 
z
" transform="scale(0.015625)"/>
       <path id="DejaVuSans-72" d="M 2631 2963 
Q 2534 3019 2420 3045 
Q 2306 3072 2169 3072 
Q 1681 3072 1420 2755 
Q 1159 2438 1159 1844 
L 1159 0 
L 581 0 
L 581 3500 
L 1159 3500 
L 1159 2956 
Q 1341 3275 1631 3429 
Q 1922 3584 2338 3584 
Q 2397 3584 2469 3576 
Q 2541 3569 2628 3553 
L 2631 2963 
z
" transform="scale(0.015625)"/>
       <path id="DejaVuSans-68" d="M 3513 2113 
L 3513 0 
L 2938 0 
L 2938 2094 
Q 2938 2591 2744 2837 
Q 2550 3084 2163 3084 
Q 1697 3084 1428 2787 
Q 1159 2491 1159 1978 
L 1159 0 
L 581 0 
L 581 4863 
L 1159 4863 
L 1159 2956 
Q 1366 3272 1645 3428 
Q 1925 3584 2291 3584 
Q 2894 3584 3203 3211 
Q 3513 2838 3513 2113 
z
" transform="scale(0.015625)"/>
       <path id="DejaVuSans-61" d="M 2194 1759 
Q 1497 1759 1228 1600 
Q 959 1441 959 1056 
Q 959 750 1161 570 
Q 1363 391 1709 391 
Q 2188 391 2477 730 
Q 2766 1069 2766 1631 
L 2766 1759 
L 2194 1759 
z
M 3341 1997 
L 3341 0 
L 2766 0 
L 2766 531 
Q 2569 213 2275 61 
Q 1981 -91 1556 -91 
Q 1019 -91 701 211 
Q 384 513 384 1019 
Q 384 1609 779 1909 
Q 1175 2209 1959 2209 
L 2766 2209 
L 2766 2266 
Q 2766 2663 2505 2880 
Q 2244 3097 1772 3097 
Q 1472 3097 1187 3025 
Q 903 2953 641 2809 
L 641 3341 
Q 956 3463 1253 3523 
Q 1550 3584 1831 3584 
Q 2591 3584 2966 3190 
Q 3341 2797 3341 1997 
z
" transform="scale(0.015625)"/>
       <path id="DejaVuSans-74" d="M 1172 4494 
L 1172 3500 
L 2356 3500 
L 2356 3053 
L 1172 3053 
L 1172 1153 
Q 1172 725 1289 603 
Q 1406 481 1766 481 
L 2356 481 
L 2356 0 
L 1766 0 
Q 1100 0 847 248 
Q 594 497 594 1153 
L 594 3053 
L 172 3053 
L 172 3500 
L 594 3500 
L 594 4494 
L 1172 4494 
z
" transform="scale(0.015625)"/>
       <path id="DejaVuSans-62" d="M 3116 1747 
Q 3116 2381 2855 2742 
Q 2594 3103 2138 3103 
Q 1681 3103 1420 2742 
Q 1159 2381 1159 1747 
Q 1159 1113 1420 752 
Q 1681 391 2138 391 
Q 2594 391 2855 752 
Q 3116 1113 3116 1747 
z
M 1159 2969 
Q 1341 3281 1617 3432 
Q 1894 3584 2278 3584 
Q 2916 3584 3314 3078 
Q 3713 2572 3713 1747 
Q 3713 922 3314 415 
Q 2916 -91 2278 -91 
Q 1894 -91 1617 61 
Q 1341 213 1159 525 
L 1159 0 
L 581 0 
L 581 4863 
L 1159 4863 
L 1159 2969 
z
" transform="scale(0.015625)"/>
       <path id="DejaVuSans-65" d="M 3597 1894 
L 3597 1613 
L 953 1613 
Q 991 1019 1311 708 
Q 1631 397 2203 397 
Q 2534 397 2845 478 
Q 3156 559 3463 722 
L 3463 178 
Q 3153 47 2828 -22 
Q 2503 -91 2169 -91 
Q 1331 -91 842 396 
Q 353 884 353 1716 
Q 353 2575 817 3079 
Q 1281 3584 2069 3584 
Q 2775 3584 3186 3129 
Q 3597 2675 3597 1894 
z
M 3022 2063 
Q 3016 2534 2758 2815 
Q 2500 3097 2075 3097 
Q 1594 3097 1305 2825 
Q 1016 2553 972 2059 
L 3022 2063 
z
" transform="scale(0.015625)"/>
       <path id="DejaVuSans-27" d="M 1147 4666 
L 1147 2931 
L 616 2931 
L 616 4666 
L 1147 4666 
z
" transform="scale(0.015625)"/>
       <path id="DejaVuSans-63" d="M 3122 3366 
L 3122 2828 
Q 2878 2963 2633 3030 
Q 2388 3097 2138 3097 
Q 1578 3097 1268 2742 
Q 959 2388 959 1747 
Q 959 1106 1268 751 
Q 1578 397 2138 397 
Q 2388 397 2633 464 
Q 2878 531 3122 666 
L 3122 134 
Q 2881 22 2623 -34 
Q 2366 -91 2075 -91 
Q 1284 -91 818 406 
Q 353 903 353 1747 
Q 353 2603 823 3093 
Q 1294 3584 2113 3584 
Q 2378 3584 2631 3529 
Q 2884 3475 3122 3366 
z
" transform="scale(0.015625)"/>
      </defs>
      <use xlink:href="#DejaVuSans-43"/>
      <use xlink:href="#DejaVuSans-6f" x="69.824219"/>
      <use xlink:href="#DejaVuSans-6c" x="131.005859"/>
      <use xlink:href="#DejaVuSans-6c" x="158.789062"/>
      <use xlink:href="#DejaVuSans-69" x="186.572266"/>
      <use xlink:href="#DejaVuSans-73" x="214.355469"/>
      <use xlink:href="#DejaVuSans-69" x="266.455078"/>
      <use xlink:href="#DejaVuSans-6f" x="294.238281"/>
      <use xlink:href="#DejaVuSans-6e" x="355.419922"/>
      <use xlink:href="#DejaVuSans-73" x="418.798828"/>
      <use xlink:href="#DejaVuSans-20" x="470.898438"/>
      <use xlink:href="#DejaVuSans-66" x="502.685547"/>
      <use xlink:href="#DejaVuSans-6f" x="537.890625"/>
      <use xlink:href="#DejaVuSans-72" x="599.072266"/>
      <use xlink:href="#DejaVuSans-20" x="640.185547"/>
      <use xlink:href="#DejaVuSans-68" x="671.972656"/>
      <use xlink:href="#DejaVuSans-61" x="735.351562"/>
      <use xlink:href="#DejaVuSans-73" x="796.630859"/>
      <use xlink:href="#DejaVuSans-68" x="848.730469"/>
      <use xlink:href="#DejaVuSans-20" x="912.109375"/>
      <use xlink:href="#DejaVuSans-74" x="943.896484"/>
      <use xlink:href="#DejaVuSans-61" x="983.105469"/>
      <use xlink:href="#DejaVuSans-62" x="1044.384766"/>
      <use xlink:href="#DejaVuSans-6c" x="1107.861328"/>
      <use xlink:href="#DejaVuSans-65" x="1135.644531"/>
      <use xlink:href="#DejaVuSans-27" x="1197.167969"/>
      <use xlink:href="#DejaVuSans-73" x="1224.658203"/>
      <use xlink:href="#DejaVuSans-20" x="1276.757812"/>
      <use xlink:href="#DejaVuSans-63" x="1308.544922"/>
      <use xlink:href="#DejaVuSans-65" x="1363.525391"/>
      <use xlink:href="#DejaVuSans-6c" x="1425.048828"/>
      <use xlink:href="#DejaVuSans-6c" x="1452.832031"/>
     </g>
    </g>
   </g>
   <g id="matplotlib.axis_2"/>
   <g id="patch_158">
    <path d="M 90 640.8 
L 90 86.4 
" style="fill: none; stroke: #000000; stroke-width: 0.8; stroke-linejoin: miter; stroke-linecap: square"/>
   </g>
   <g id="patch_159">
    <path d="M 648 640.8 
L 648 86.4 
" style="fill: none; stroke: #000000; stroke-width: 0.8; stroke-linejoin: miter; stroke-linecap: square"/>
   </g>
   <g id="patch_160">
    <path d="M 90 640.8 
L 648 640.8 
" style="fill: none; stroke: #000000; stroke-width: 0.8; stroke-linejoin: miter; stroke-linecap: square"/>
   </g>
   <g id="patch_161">
    <path d="M 90 86.4 
L 648 86.4 
" style="fill: none; stroke: #000000; stroke-width: 0.8; stroke-linejoin: miter; stroke-linecap: square"/>
   </g>
   <g id="text_6">
    <!-- Distribution: By length hash -->
    <g transform="translate(285.055313 80.4)scale(0.12 -0.12)">
     <defs>
      <path id="DejaVuSans-44" d="M 1259 4147 
L 1259 519 
L 2022 519 
Q 2988 519 3436 956 
Q 3884 1394 3884 2338 
Q 3884 3275 3436 3711 
Q 2988 4147 2022 4147 
L 1259 4147 
z
M 628 4666 
L 1925 4666 
Q 3281 4666 3915 4102 
Q 4550 3538 4550 2338 
Q 4550 1131 3912 565 
Q 3275 0 1925 0 
L 628 0 
L 628 4666 
z
" transform="scale(0.015625)"/>
      <path id="DejaVuSans-75" d="M 544 1381 
L 544 3500 
L 1119 3500 
L 1119 1403 
Q 1119 906 1312 657 
Q 1506 409 1894 409 
Q 2359 409 2629 706 
Q 2900 1003 2900 1516 
L 2900 3500 
L 3475 3500 
L 3475 0 
L 2900 0 
L 2900 538 
Q 2691 219 2414 64 
Q 2138 -91 1772 -91 
Q 1169 -91 856 284 
Q 544 659 544 1381 
z
M 1991 3584 
L 1991 3584 
z
" transform="scale(0.015625)"/>
      <path id="DejaVuSans-3a" d="M 750 794 
L 1409 794 
L 1409 0 
L 750 0 
L 750 794 
z
M 750 3309 
L 1409 3309 
L 1409 2516 
L 750 2516 
L 750 3309 
z
" transform="scale(0.015625)"/>
      <path id="DejaVuSans-42" d="M 1259 2228 
L 1259 519 
L 2272 519 
Q 2781 519 3026 730 
Q 3272 941 3272 1375 
Q 3272 1813 3026 2020 
Q 2781 2228 2272 2228 
L 1259 2228 
z
M 1259 4147 
L 1259 2741 
L 2194 2741 
Q 2656 2741 2882 2914 
Q 3109 3088 3109 3444 
Q 3109 3797 2882 3972 
Q 2656 4147 2194 4147 
L 1259 4147 
z
M 628 4666 
L 2241 4666 
Q 2963 4666 3353 4366 
Q 3744 4066 3744 3513 
Q 3744 3084 3544 2831 
Q 3344 2578 2956 2516 
Q 3422 2416 3680 2098 
Q 3938 1781 3938 1306 
Q 3938 681 3513 340 
Q 3088 0 2303 0 
L 628 0 
L 628 4666 
z
" transform="scale(0.015625)"/>
      <path id="DejaVuSans-79" d="M 2059 -325 
Q 1816 -950 1584 -1140 
Q 1353 -1331 966 -1331 
L 506 -1331 
L 506 -850 
L 844 -850 
Q 1081 -850 1212 -737 
Q 1344 -625 1503 -206 
L 1606 56 
L 191 3500 
L 800 3500 
L 1894 763 
L 2988 3500 
L 3597 3500 
L 2059 -325 
z
" transform="scale(0.015625)"/>
      <path id="DejaVuSans-67" d="M 2906 1791 
Q 2906 2416 2648 2759 
Q 2391 3103 1925 3103 
Q 1463 3103 1205 2759 
Q 947 2416 947 1791 
Q 947 1169 1205 825 
Q 1463 481 1925 481 
Q 2391 481 2648 825 
Q 2906 1169 2906 1791 
z
M 3481 434 
Q 3481 -459 3084 -895 
Q 2688 -1331 1869 -1331 
Q 1566 -1331 1297 -1286 
Q 1028 -1241 775 -1147 
L 775 -588 
Q 1028 -725 1275 -790 
Q 1522 -856 1778 -856 
Q 2344 -856 2625 -561 
Q 2906 -266 2906 331 
L 2906 616 
Q 2728 306 2450 153 
Q 2172 0 1784 0 
Q 1141 0 747 490 
Q 353 981 353 1791 
Q 353 2603 747 3093 
Q 1141 3584 1784 3584 
Q 2172 3584 2450 3431 
Q 2728 3278 2906 2969 
L 2906 3500 
L 3481 3500 
L 3481 434 
z
" transform="scale(0.015625)"/>
     </defs>
     <use xlink:href="#DejaVuSans-44"/>
     <use xlink:href="#DejaVuSans-69" x="77.001953"/>
     <use xlink:href="#DejaVuSans-73" x="104.785156"/>
     <use xlink:href="#DejaVuSans-74" x="156.884766"/>
     <use xlink:href="#DejaVuSans-72" x="196.09375"/>
     <use xlink:href="#DejaVuSans-69" x="237.207031"/>
     <use xlink:href="#DejaVuSans-62" x="264.990234"/>
     <use xlink:href="#DejaVuSans-75" x="328.466797"/>
     <use xlink:href="#DejaVuSans-74" x="391.845703"/>
     <use xlink:href="#DejaVuSans-69" x="431.054688"/>
     <use xlink:href="#DejaVuSans-6f" x="458.837891"/>
     <use xlink:href="#DejaVuSans-6e" x="520.019531"/>
     <use xlink:href="#DejaVuSans-3a" x="583.398438"/>
     <use xlink:href="#DejaVuSans-20" x="617.089844"/>
     <use xlink:href="#DejaVuSans-42" x="648.876953"/>
     <use xlink:href="#DejaVuSans-79" x="717.480469"/>
     <use xlink:href="#DejaVuSans-20" x="776.660156"/>
     <use xlink:href="#DejaVuSans-6c" x="808.447266"/>
     <use xlink:href="#DejaVuSans-65" x="836.230469"/>
     <use xlink:href="#DejaVuSans-6e" x="897.753906"/>
     <use xlink:href="#DejaVuSans-67" x="961.132812"/>
     <use xlink:href="#DejaVuSans-74" x="1024.609375"/>
     <use xlink:href="#DejaVuSans-68" x="1063.818359"/>
     <use xlink:href="#DejaVuSans-20" x="1127.197266"/>
     <use xlink:href="#DejaVuSans-68" x="1158.984375"/>
     <use xlink:href="#DejaVuSans-61" x="1222.363281"/>
     <use xlink:href="#DejaVuSans-73" x="1283.642578"/>
     <use xlink:href="#DejaVuSans-68" x="1335.742188"/>
    </g>
   </g>
  </g>
 </g>
 <defs>
  <clipPath id="p2f5fe8183a">
   <rect x="90" y="86.4" width="558" height="554.4"/>
  </clipPath>
 </defs>
</svg>
