<?xml version="1.0" encoding="utf-8" standalone="no"?>
<!DOCTYPE svg PUBLIC "-//W3C//DTD SVG 1.1//EN"
  "http://www.w3.org/Graphics/SVG/1.1/DTD/svg11.dtd">
<svg xmlns:xlink="http://www.w3.org/1999/xlink" width="720pt" height="720pt" viewBox="0 0 720 720" xmlns="http://www.w3.org/2000/svg" version="1.1">
 <metadata>
  <rdf:RDF xmlns:dc="http://purl.org/dc/elements/1.1/" xmlns:cc="http://creativecommons.org/ns#" xmlns:rdf="http://www.w3.org/1999/02/22-rdf-syntax-ns#">
   <cc:Work>
    <dc:type rdf:resource="http://purl.org/dc/dcmitype/StillImage"/>
    <dc:date>2022-05-05T16:52:42.734063</dc:date>
    <dc:format>image/svg+xml</dc:format>
    <dc:creator>
     <cc:Agent>
      <dc:title>Matplotlib v3.5.1, https://matplotlib.org/</dc:title>
     </cc:Agent>
    </dc:creator>
   </cc:Work>
  </rdf:RDF>
 </metadata>
 <defs>
  <style type="text/css">*{stroke-linejoin: round; stroke-linecap: butt}</style>
 </defs>
 <g id="figure_1">
  <g id="patch_1">
   <path d="M 0 720 
L 720 720 
L 720 0 
L 0 0 
z
" style="fill: #ffffff"/>
  </g>
  <g id="axes_1">
   <g id="patch_2">
    <path d="M 90 640.8 
L 648 640.8 
L 648 86.4 
L 90 86.4 
z
" style="fill: #ffffff"/>
   </g>
   <g id="patch_3">
    <path d="M 115.363636 640.8 
L 135.654545 640.8 
L 135.654545 183.954454 
L 115.363636 183.954454 
z
" clip-path="url(#paf6399530b)" style="fill: #1f77b4"/>
   </g>
   <g id="patch_4">
    <path d="M 135.654545 640.8 
L 155.945455 640.8 
L 155.945455 112.8 
L 135.654545 112.8 
z
" clip-path="url(#paf6399530b)" style="fill: #1f77b4"/>
   </g>
   <g id="patch_5">
    <path d="M 155.945455 640.8 
L 176.236364 640.8 
L 176.236364 224.364903 
L 155.945455 224.364903 
z
" clip-path="url(#paf6399530b)" style="fill: #1f77b4"/>
   </g>
   <g id="patch_6">
    <path d="M 176.236364 640.8 
L 196.527273 640.8 
L 196.527273 387.397723 
L 176.236364 387.397723 
z
" clip-path="url(#paf6399530b)" style="fill: #1f77b4"/>
   </g>
   <g id="patch_7">
    <path d="M 196.527273 640.8 
L 216.818182 640.8 
L 216.818182 431.839786 
L 196.527273 431.839786 
z
" clip-path="url(#paf6399530b)" style="fill: #1f77b4"/>
   </g>
   <g id="patch_8">
    <path d="M 216.818182 640.8 
L 237.109091 640.8 
L 237.109091 457.726993 
L 216.818182 457.726993 
z
" clip-path="url(#paf6399530b)" style="fill: #1f77b4"/>
   </g>
   <g id="patch_9">
    <path d="M 237.109091 640.8 
L 257.4 640.8 
L 257.4 509.206698 
L 237.109091 509.206698 
z
" clip-path="url(#paf6399530b)" style="fill: #1f77b4"/>
   </g>
   <g id="patch_10">
    <path d="M 257.4 640.8 
L 277.690909 640.8 
L 277.690909 546.693637 
L 257.4 546.693637 
z
" clip-path="url(#paf6399530b)" style="fill: #1f77b4"/>
   </g>
   <g id="patch_11">
    <path d="M 277.690909 640.8 
L 297.981818 640.8 
L 297.981818 579.288413 
L 277.690909 579.288413 
z
" clip-path="url(#paf6399530b)" style="fill: #1f77b4"/>
   </g>
   <g id="patch_12">
    <path d="M 297.981818 640.8 
L 318.272727 640.8 
L 318.272727 597.772539 
L 297.981818 597.772539 
z
" clip-path="url(#paf6399530b)" style="fill: #1f77b4"/>
   </g>
   <g id="patch_13">
    <path d="M 318.272727 640.8 
L 338.563636 640.8 
L 338.563636 616.669257 
L 318.272727 616.669257 
z
" clip-path="url(#paf6399530b)" style="fill: #1f77b4"/>
   </g>
   <g id="patch_14">
    <path d="M 338.563636 640.8 
L 358.854545 640.8 
L 358.854545 625.168654 
L 338.563636 625.168654 
z
" clip-path="url(#paf6399530b)" style="fill: #1f77b4"/>
   </g>
   <g id="patch_15">
    <path d="M 358.854545 640.8 
L 379.145455 640.8 
L 379.145455 632.218084 
L 358.854545 632.218084 
z
" clip-path="url(#paf6399530b)" style="fill: #1f77b4"/>
   </g>
   <g id="patch_16">
    <path d="M 379.145455 640.8 
L 399.436364 640.8 
L 399.436364 636.497254 
L 379.145455 636.497254 
z
" clip-path="url(#paf6399530b)" style="fill: #1f77b4"/>
   </g>
   <g id="patch_17">
    <path d="M 399.436364 640.8 
L 419.727273 640.8 
L 419.727273 638.642733 
L 399.436364 638.642733 
z
" clip-path="url(#paf6399530b)" style="fill: #1f77b4"/>
   </g>
   <g id="patch_18">
    <path d="M 419.727273 640.8 
L 440.018182 640.8 
L 440.018182 639.562224 
L 419.727273 639.562224 
z
" clip-path="url(#paf6399530b)" style="fill: #1f77b4"/>
   </g>
   <g id="patch_19">
    <path d="M 440.018182 640.8 
L 460.309091 640.8 
L 460.309091 640.175218 
L 440.018182 640.175218 
z
" clip-path="url(#paf6399530b)" style="fill: #1f77b4"/>
   </g>
   <g id="patch_20">
    <path d="M 460.309091 640.8 
L 480.6 640.8 
L 480.6 640.51708 
L 460.309091 640.51708 
z
" clip-path="url(#paf6399530b)" style="fill: #1f77b4"/>
   </g>
   <g id="patch_21">
    <path d="M 480.6 640.8 
L 500.890909 640.8 
L 500.890909 640.564233 
L 480.6 640.564233 
z
" clip-path="url(#paf6399530b)" style="fill: #1f77b4"/>
   </g>
   <g id="patch_22">
    <path d="M 500.890909 640.8 
L 521.181818 640.8 
L 521.181818 640.705693 
L 500.890909 640.705693 
z
" clip-path="url(#paf6399530b)" style="fill: #1f77b4"/>
   </g>
   <g id="patch_23">
    <path d="M 521.181818 640.8 
L 541.472727 640.8 
L 541.472727 640.788212 
L 521.181818 640.788212 
z
" clip-path="url(#paf6399530b)" style="fill: #1f77b4"/>
   </g>
   <g id="patch_24">
    <path d="M 541.472727 640.8 
L 561.763636 640.8 
L 561.763636 640.8 
L 541.472727 640.8 
z
" clip-path="url(#paf6399530b)" style="fill: #1f77b4"/>
   </g>
   <g id="patch_25">
    <path d="M 561.763636 640.8 
L 582.054545 640.8 
L 582.054545 640.788212 
L 561.763636 640.788212 
z
" clip-path="url(#paf6399530b)" style="fill: #1f77b4"/>
   </g>
   <g id="patch_26">
    <path d="M 582.054545 640.8 
L 602.345455 640.8 
L 602.345455 640.764635 
L 582.054545 640.764635 
z
" clip-path="url(#paf6399530b)" style="fill: #1f77b4"/>
   </g>
   <g id="patch_27">
    <path d="M 602.345455 640.8 
L 622.636364 640.8 
L 622.636364 640.788212 
L 602.345455 640.788212 
z
" clip-path="url(#paf6399530b)" style="fill: #1f77b4"/>
   </g>
   <g id="matplotlib.axis_1">
    <g id="xtick_1">
     <g id="line2d_1">
      <defs>
       <path id="m12ba3fa4ea" d="M 0 0 
L 0 3.5 
" style="stroke: #000000; stroke-width: 0.8"/>
      </defs>
      <g>
       <use xlink:href="#m12ba3fa4ea" x="115.363636" y="640.8" style="stroke: #000000; stroke-width: 0.8"/>
      </g>
     </g>
     <g id="text_1">
      <!-- 1 -->
      <g transform="translate(112.182386 655.398438)scale(0.1 -0.1)">
       <defs>
        <path id="DejaVuSans-31" d="M 794 531 
L 1825 531 
L 1825 4091 
L 703 3866 
L 703 4441 
L 1819 4666 
L 2450 4666 
L 2450 531 
L 3481 531 
L 3481 0 
L 794 0 
L 794 531 
z
" transform="scale(0.015625)"/>
       </defs>
       <use xlink:href="#DejaVuSans-31"/>
      </g>
     </g>
    </g>
   </g>
   <g id="matplotlib.axis_2">
    <g id="ytick_1">
     <g id="line2d_2">
      <defs>
       <path id="m0d191fad8e" d="M 0 0 
L -3.5 0 
" style="stroke: #000000; stroke-width: 0.8"/>
      </defs>
      <g>
       <use xlink:href="#m0d191fad8e" x="90" y="640.8" style="stroke: #000000; stroke-width: 0.8"/>
      </g>
     </g>
     <g id="text_2">
      <!-- 0 -->
      <g transform="translate(76.6375 644.599219)scale(0.1 -0.1)">
       <defs>
        <path id="DejaVuSans-30" d="M 2034 4250 
Q 1547 4250 1301 3770 
Q 1056 3291 1056 2328 
Q 1056 1369 1301 889 
Q 1547 409 2034 409 
Q 2525 409 2770 889 
Q 3016 1369 3016 2328 
Q 3016 3291 2770 3770 
Q 2525 4250 2034 4250 
z
M 2034 4750 
Q 2819 4750 3233 4129 
Q 3647 3509 3647 2328 
Q 3647 1150 3233 529 
Q 2819 -91 2034 -91 
Q 1250 -91 836 529 
Q 422 1150 422 2328 
Q 422 3509 836 4129 
Q 1250 4750 2034 4750 
z
" transform="scale(0.015625)"/>
       </defs>
       <use xlink:href="#DejaVuSans-30"/>
      </g>
     </g>
    </g>
    <g id="ytick_2">
     <g id="line2d_3">
      <g>
       <use xlink:href="#m0d191fad8e" x="90" y="522.916544" style="stroke: #000000; stroke-width: 0.8"/>
      </g>
     </g>
     <g id="text_3">
      <!-- 10000 -->
      <g transform="translate(51.1875 526.715763)scale(0.1 -0.1)">
       <use xlink:href="#DejaVuSans-31"/>
       <use xlink:href="#DejaVuSans-30" x="63.623047"/>
       <use xlink:href="#DejaVuSans-30" x="127.246094"/>
       <use xlink:href="#DejaVuSans-30" x="190.869141"/>
       <use xlink:href="#DejaVuSans-30" x="254.492188"/>
      </g>
     </g>
    </g>
    <g id="ytick_3">
     <g id="line2d_4">
      <g>
       <use xlink:href="#m0d191fad8e" x="90" y="405.033088" style="stroke: #000000; stroke-width: 0.8"/>
      </g>
     </g>
     <g id="text_4">
      <!-- 20000 -->
      <g transform="translate(51.1875 408.832306)scale(0.1 -0.1)">
       <defs>
        <path id="DejaVuSans-32" d="M 1228 531 
L 3431 531 
L 3431 0 
L 469 0 
L 469 531 
Q 828 903 1448 1529 
Q 2069 2156 2228 2338 
Q 2531 2678 2651 2914 
Q 2772 3150 2772 3378 
Q 2772 3750 2511 3984 
Q 2250 4219 1831 4219 
Q 1534 4219 1204 4116 
Q 875 4013 500 3803 
L 500 4441 
Q 881 4594 1212 4672 
Q 1544 4750 1819 4750 
Q 2544 4750 2975 4387 
Q 3406 4025 3406 3419 
Q 3406 3131 3298 2873 
Q 3191 2616 2906 2266 
Q 2828 2175 2409 1742 
Q 1991 1309 1228 531 
z
" transform="scale(0.015625)"/>
       </defs>
       <use xlink:href="#DejaVuSans-32"/>
       <use xlink:href="#DejaVuSans-30" x="63.623047"/>
       <use xlink:href="#DejaVuSans-30" x="127.246094"/>
       <use xlink:href="#DejaVuSans-30" x="190.869141"/>
       <use xlink:href="#DejaVuSans-30" x="254.492188"/>
      </g>
     </g>
    </g>
    <g id="ytick_4">
     <g id="line2d_5">
      <g>
       <use xlink:href="#m0d191fad8e" x="90" y="287.149632" style="stroke: #000000; stroke-width: 0.8"/>
      </g>
     </g>
     <g id="text_5">
      <!-- 30000 -->
      <g transform="translate(51.1875 290.94885)scale(0.1 -0.1)">
       <defs>
        <path id="DejaVuSans-33" d="M 2597 2516 
Q 3050 2419 3304 2112 
Q 3559 1806 3559 1356 
Q 3559 666 3084 287 
Q 2609 -91 1734 -91 
Q 1441 -91 1130 -33 
Q 819 25 488 141 
L 488 750 
Q 750 597 1062 519 
Q 1375 441 1716 441 
Q 2309 441 2620 675 
Q 2931 909 2931 1356 
Q 2931 1769 2642 2001 
Q 2353 2234 1838 2234 
L 1294 2234 
L 1294 2753 
L 1863 2753 
Q 2328 2753 2575 2939 
Q 2822 3125 2822 3475 
Q 2822 3834 2567 4026 
Q 2313 4219 1838 4219 
Q 1578 4219 1281 4162 
Q 984 4106 628 3988 
L 628 4550 
Q 988 4650 1302 4700 
Q 1616 4750 1894 4750 
Q 2613 4750 3031 4423 
Q 3450 4097 3450 3541 
Q 3450 3153 3228 2886 
Q 3006 2619 2597 2516 
z
" transform="scale(0.015625)"/>
       </defs>
       <use xlink:href="#DejaVuSans-33"/>
       <use xlink:href="#DejaVuSans-30" x="63.623047"/>
       <use xlink:href="#DejaVuSans-30" x="127.246094"/>
       <use xlink:href="#DejaVuSans-30" x="190.869141"/>
       <use xlink:href="#DejaVuSans-30" x="254.492188"/>
      </g>
     </g>
    </g>
    <g id="ytick_5">
     <g id="line2d_6">
      <g>
       <use xlink:href="#m0d191fad8e" x="90" y="169.266175" style="stroke: #000000; stroke-width: 0.8"/>
      </g>
     </g>
     <g id="text_6">
      <!-- 40000 -->
      <g transform="translate(51.1875 173.065394)scale(0.1 -0.1)">
       <defs>
        <path id="DejaVuSans-34" d="M 2419 4116 
L 825 1625 
L 2419 1625 
L 2419 4116 
z
M 2253 4666 
L 3047 4666 
L 3047 1625 
L 3713 1625 
L 3713 1100 
L 3047 1100 
L 3047 0 
L 2419 0 
L 2419 1100 
L 313 1100 
L 313 1709 
L 2253 4666 
z
" transform="scale(0.015625)"/>
       </defs>
       <use xlink:href="#DejaVuSans-34"/>
       <use xlink:href="#DejaVuSans-30" x="63.623047"/>
       <use xlink:href="#DejaVuSans-30" x="127.246094"/>
       <use xlink:href="#DejaVuSans-30" x="190.869141"/>
       <use xlink:href="#DejaVuSans-30" x="254.492188"/>
      </g>
     </g>
    </g>
   </g>
   <g id="patch_28">
    <path d="M 90 640.8 
L 90 86.4 
" style="fill: none; stroke: #000000; stroke-width: 0.8; stroke-linejoin: miter; stroke-linecap: square"/>
   </g>
   <g id="patch_29">
    <path d="M 648 640.8 
L 648 86.4 
" style="fill: none; stroke: #000000; stroke-width: 0.8; stroke-linejoin: miter; stroke-linecap: square"/>
   </g>
   <g id="patch_30">
    <path d="M 90 640.8 
L 648 640.8 
" style="fill: none; stroke: #000000; stroke-width: 0.8; stroke-linejoin: miter; stroke-linecap: square"/>
   </g>
   <g id="patch_31">
    <path d="M 90 86.4 
L 648 86.4 
" style="fill: none; stroke: #000000; stroke-width: 0.8; stroke-linejoin: miter; stroke-linecap: square"/>
   </g>
   <g id="text_7">
    <!-- By length -->
    <g transform="translate(340.300313 80.4)scale(0.12 -0.12)">
     <defs>
      <path id="DejaVuSans-42" d="M 1259 2228 
L 1259 519 
L 2272 519 
Q 2781 519 3026 730 
Q 3272 941 3272 1375 
Q 3272 1813 3026 2020 
Q 2781 2228 2272 2228 
L 1259 2228 
z
M 1259 4147 
L 1259 2741 
L 2194 2741 
Q 2656 2741 2882 2914 
Q 3109 3088 3109 3444 
Q 3109 3797 2882 3972 
Q 2656 4147 2194 4147 
L 1259 4147 
z
M 628 4666 
L 2241 4666 
Q 2963 4666 3353 4366 
Q 3744 4066 3744 3513 
Q 3744 3084 3544 2831 
Q 3344 2578 2956 2516 
Q 3422 2416 3680 2098 
Q 3938 1781 3938 1306 
Q 3938 681 3513 340 
Q 3088 0 2303 0 
L 628 0 
L 628 4666 
z
" transform="scale(0.015625)"/>
      <path id="DejaVuSans-79" d="M 2059 -325 
Q 1816 -950 1584 -1140 
Q 1353 -1331 966 -1331 
L 506 -1331 
L 506 -850 
L 844 -850 
Q 1081 -850 1212 -737 
Q 1344 -625 1503 -206 
L 1606 56 
L 191 3500 
L 800 3500 
L 1894 763 
L 2988 3500 
L 3597 3500 
L 2059 -325 
z
" transform="scale(0.015625)"/>
      <path id="DejaVuSans-20" transform="scale(0.015625)"/>
      <path id="DejaVuSans-6c" d="M 603 4863 
L 1178 4863 
L 1178 0 
L 603 0 
L 603 4863 
z
" transform="scale(0.015625)"/>
      <path id="DejaVuSans-65" d="M 3597 1894 
L 3597 1613 
L 953 1613 
Q 991 1019 1311 708 
Q 1631 397 2203 397 
Q 2534 397 2845 478 
Q 3156 559 3463 722 
L 3463 178 
Q 3153 47 2828 -22 
Q 2503 -91 2169 -91 
Q 1331 -91 842 396 
Q 353 884 353 1716 
Q 353 2575 817 3079 
Q 1281 3584 2069 3584 
Q 2775 3584 3186 3129 
Q 3597 2675 3597 1894 
z
M 3022 2063 
Q 3016 2534 2758 2815 
Q 2500 3097 2075 3097 
Q 1594 3097 1305 2825 
Q 1016 2553 972 2059 
L 3022 2063 
z
" transform="scale(0.015625)"/>
      <path id="DejaVuSans-6e" d="M 3513 2113 
L 3513 0 
L 2938 0 
L 2938 2094 
Q 2938 2591 2744 2837 
Q 2550 3084 2163 3084 
Q 1697 3084 1428 2787 
Q 1159 2491 1159 1978 
L 1159 0 
L 581 0 
L 581 3500 
L 1159 3500 
L 1159 2956 
Q 1366 3272 1645 3428 
Q 1925 3584 2291 3584 
Q 2894 3584 3203 3211 
Q 3513 2838 3513 2113 
z
" transform="scale(0.015625)"/>
      <path id="DejaVuSans-67" d="M 2906 1791 
Q 2906 2416 2648 2759 
Q 2391 3103 1925 3103 
Q 1463 3103 1205 2759 
Q 947 2416 947 1791 
Q 947 1169 1205 825 
Q 1463 481 1925 481 
Q 2391 481 2648 825 
Q 2906 1169 2906 1791 
z
M 3481 434 
Q 3481 -459 3084 -895 
Q 2688 -1331 1869 -1331 
Q 1566 -1331 1297 -1286 
Q 1028 -1241 775 -1147 
L 775 -588 
Q 1028 -725 1275 -790 
Q 1522 -856 1778 -856 
Q 2344 -856 2625 -561 
Q 2906 -266 2906 331 
L 2906 616 
Q 2728 306 2450 153 
Q 2172 0 1784 0 
Q 1141 0 747 490 
Q 353 981 353 1791 
Q 353 2603 747 3093 
Q 1141 3584 1784 3584 
Q 2172 3584 2450 3431 
Q 2728 3278 2906 2969 
L 2906 3500 
L 3481 3500 
L 3481 434 
z
" transform="scale(0.015625)"/>
      <path id="DejaVuSans-74" d="M 1172 4494 
L 1172 3500 
L 2356 3500 
L 2356 3053 
L 1172 3053 
L 1172 1153 
Q 1172 725 1289 603 
Q 1406 481 1766 481 
L 2356 481 
L 2356 0 
L 1766 0 
Q 1100 0 847 248 
Q 594 497 594 1153 
L 594 3053 
L 172 3053 
L 172 3500 
L 594 3500 
L 594 4494 
L 1172 4494 
z
" transform="scale(0.015625)"/>
      <path id="DejaVuSans-68" d="M 3513 2113 
L 3513 0 
L 2938 0 
L 2938 2094 
Q 2938 2591 2744 2837 
Q 2550 3084 2163 3084 
Q 1697 3084 1428 2787 
Q 1159 2491 1159 1978 
L 1159 0 
L 581 0 
L 581 4863 
L 1159 4863 
L 1159 2956 
Q 1366 3272 1645 3428 
Q 1925 3584 2291 3584 
Q 2894 3584 3203 3211 
Q 3513 2838 3513 2113 
z
" transform="scale(0.015625)"/>
     </defs>
     <use xlink:href="#DejaVuSans-42"/>
     <use xlink:href="#DejaVuSans-79" x="68.603516"/>
     <use xlink:href="#DejaVuSans-20" x="127.783203"/>
     <use xlink:href="#DejaVuSans-6c" x="159.570312"/>
     <use xlink:href="#DejaVuSans-65" x="187.353516"/>
     <use xlink:href="#DejaVuSans-6e" x="248.876953"/>
     <use xlink:href="#DejaVuSans-67" x="312.255859"/>
     <use xlink:href="#DejaVuSans-74" x="375.732422"/>
     <use xlink:href="#DejaVuSans-68" x="414.941406"/>
    </g>
   </g>
  </g>
 </g>
 <defs>
  <clipPath id="paf6399530b">
   <rect x="90" y="86.4" width="558" height="554.4"/>
  </clipPath>
 </defs>
</svg>
