<?xml version="1.0" encoding="utf-8" standalone="no"?>
<!DOCTYPE svg PUBLIC "-//W3C//DTD SVG 1.1//EN"
  "http://www.w3.org/Graphics/SVG/1.1/DTD/svg11.dtd">
<svg xmlns:xlink="http://www.w3.org/1999/xlink" width="720pt" height="720pt" viewBox="0 0 720 720" xmlns="http://www.w3.org/2000/svg" version="1.1">
 <metadata>
  <rdf:RDF xmlns:dc="http://purl.org/dc/elements/1.1/" xmlns:cc="http://creativecommons.org/ns#" xmlns:rdf="http://www.w3.org/1999/02/22-rdf-syntax-ns#">
   <cc:Work>
    <dc:type rdf:resource="http://purl.org/dc/dcmitype/StillImage"/>
    <dc:date>2022-05-07T16:06:36.135463</dc:date>
    <dc:format>image/svg+xml</dc:format>
    <dc:creator>
     <cc:Agent>
      <dc:title>Matplotlib v3.5.2, https://matplotlib.org/</dc:title>
     </cc:Agent>
    </dc:creator>
   </cc:Work>
  </rdf:RDF>
 </metadata>
 <defs>
  <style type="text/css">*{stroke-linejoin: round; stroke-linecap: butt}</style>
 </defs>
 <g id="figure_1">
  <g id="patch_1">
   <path d="M 0 720 
L 720 720 
L 720 0 
L 0 0 
z
" style="fill: #ffffff"/>
  </g>
  <g id="axes_1">
   <g id="patch_2">
    <path d="M 90 640.8 
L 648 640.8 
L 648 86.4 
L 90 86.4 
z
" style="fill: #ffffff"/>
   </g>
   <g id="patch_3">
    <path d="M 89.727539 640.8 
L 103.663916 640.8 
L 103.663916 274.68839 
L 89.727539 274.68839 
z
" clip-path="url(#p8bd962f78d)" style="fill: #1f77b4"/>
   </g>
   <g id="patch_4">
    <path d="M 103.663916 640.8 
L 117.600293 640.8 
L 117.600293 180.02771 
L 103.663916 180.02771 
z
" clip-path="url(#p8bd962f78d)" style="fill: #1f77b4"/>
   </g>
   <g id="patch_5">
    <path d="M 117.600293 640.8 
L 131.53667 640.8 
L 131.53667 334.634509 
L 117.600293 334.634509 
z
" clip-path="url(#p8bd962f78d)" style="fill: #1f77b4"/>
   </g>
   <g id="patch_6">
    <path d="M 131.53667 640.8 
L 145.473047 640.8 
L 145.473047 287.558178 
L 131.53667 287.558178 
z
" clip-path="url(#p8bd962f78d)" style="fill: #1f77b4"/>
   </g>
   <g id="patch_7">
    <path d="M 145.473047 640.8 
L 159.409424 640.8 
L 159.409424 331.755741 
L 145.473047 331.755741 
z
" clip-path="url(#p8bd962f78d)" style="fill: #1f77b4"/>
   </g>
   <g id="patch_8">
    <path d="M 159.409424 640.8 
L 173.345801 640.8 
L 173.345801 439.794227 
L 159.409424 439.794227 
z
" clip-path="url(#p8bd962f78d)" style="fill: #1f77b4"/>
   </g>
   <g id="patch_9">
    <path d="M 173.345801 640.8 
L 187.282178 640.8 
L 187.282178 399.660808 
L 173.345801 399.660808 
z
" clip-path="url(#p8bd962f78d)" style="fill: #1f77b4"/>
   </g>
   <g id="patch_10">
    <path d="M 187.282178 640.8 
L 201.218555 640.8 
L 201.218555 441.148942 
L 187.282178 441.148942 
z
" clip-path="url(#p8bd962f78d)" style="fill: #1f77b4"/>
   </g>
   <g id="patch_11">
    <path d="M 201.218555 640.8 
L 215.154932 640.8 
L 215.154932 329.893008 
L 201.218555 329.893008 
z
" clip-path="url(#p8bd962f78d)" style="fill: #1f77b4"/>
   </g>
   <g id="patch_12">
    <path d="M 215.154932 640.8 
L 229.091309 640.8 
L 229.091309 405.757024 
L 215.154932 405.757024 
z
" clip-path="url(#p8bd962f78d)" style="fill: #1f77b4"/>
   </g>
   <g id="patch_13">
    <path d="M 229.091309 640.8 
L 243.027686 640.8 
L 243.027686 393.395253 
L 229.091309 393.395253 
z
" clip-path="url(#p8bd962f78d)" style="fill: #1f77b4"/>
   </g>
   <g id="patch_14">
    <path d="M 243.027686 640.8 
L 256.964062 640.8 
L 256.964062 416.086722 
L 243.027686 416.086722 
z
" clip-path="url(#p8bd962f78d)" style="fill: #1f77b4"/>
   </g>
   <g id="patch_15">
    <path d="M 256.964062 640.8 
L 270.900439 640.8 
L 270.900439 407.111738 
L 256.964062 407.111738 
z
" clip-path="url(#p8bd962f78d)" style="fill: #1f77b4"/>
   </g>
   <g id="patch_16">
    <path d="M 270.900439 640.8 
L 284.836816 640.8 
L 284.836816 112.8 
L 270.900439 112.8 
z
" clip-path="url(#p8bd962f78d)" style="fill: #1f77b4"/>
   </g>
   <g id="patch_17">
    <path d="M 284.836816 640.8 
L 298.773193 640.8 
L 298.773193 348.012316 
L 284.836816 348.012316 
z
" clip-path="url(#p8bd962f78d)" style="fill: #1f77b4"/>
   </g>
   <g id="patch_18">
    <path d="M 298.773193 640.8 
L 312.70957 640.8 
L 312.70957 433.528672 
L 298.773193 433.528672 
z
" clip-path="url(#p8bd962f78d)" style="fill: #1f77b4"/>
   </g>
   <g id="patch_19">
    <path d="M 312.70957 640.8 
L 326.645947 640.8 
L 326.645947 377.308018 
L 312.70957 377.308018 
z
" clip-path="url(#p8bd962f78d)" style="fill: #1f77b4"/>
   </g>
   <g id="patch_20">
    <path d="M 326.645947 640.8 
L 340.582324 640.8 
L 340.582324 433.189994 
L 326.645947 433.189994 
z
" clip-path="url(#p8bd962f78d)" style="fill: #1f77b4"/>
   </g>
   <g id="patch_21">
    <path d="M 340.582324 640.8 
L 354.518701 640.8 
L 354.518701 365.623605 
L 340.582324 365.623605 
z
" clip-path="url(#p8bd962f78d)" style="fill: #1f77b4"/>
   </g>
   <g id="patch_22">
    <path d="M 354.518701 640.8 
L 368.455078 640.8 
L 368.455078 447.583836 
L 354.518701 447.583836 
z
" clip-path="url(#p8bd962f78d)" style="fill: #1f77b4"/>
   </g>
   <g id="patch_23">
    <path d="M 368.455078 640.8 
L 382.391455 640.8 
L 382.391455 388.315074 
L 368.455078 388.315074 
z
" clip-path="url(#p8bd962f78d)" style="fill: #1f77b4"/>
   </g>
   <g id="patch_24">
    <path d="M 382.391455 640.8 
L 396.327832 640.8 
L 396.327832 328.538294 
L 382.391455 328.538294 
z
" clip-path="url(#p8bd962f78d)" style="fill: #1f77b4"/>
   </g>
   <g id="patch_25">
    <path d="M 396.327832 640.8 
L 410.264209 640.8 
L 410.264209 379.17075 
L 396.327832 379.17075 
z
" clip-path="url(#p8bd962f78d)" style="fill: #1f77b4"/>
   </g>
   <g id="patch_26">
    <path d="M 410.264209 640.8 
L 424.200586 640.8 
L 424.200586 274.349711 
L 410.264209 274.349711 
z
" clip-path="url(#p8bd962f78d)" style="fill: #1f77b4"/>
   </g>
   <g id="patch_27">
    <path d="M 424.200586 640.8 
L 438.136963 640.8 
L 438.136963 269.77755 
L 424.200586 269.77755 
z
" clip-path="url(#p8bd962f78d)" style="fill: #1f77b4"/>
   </g>
   <g id="patch_28">
    <path d="M 438.136963 640.8 
L 452.07334 640.8 
L 452.07334 462.316357 
L 438.136963 462.316357 
z
" clip-path="url(#p8bd962f78d)" style="fill: #1f77b4"/>
   </g>
   <g id="patch_29">
    <path d="M 452.07334 640.8 
L 466.009717 640.8 
L 466.009717 421.336241 
L 452.07334 421.336241 
z
" clip-path="url(#p8bd962f78d)" style="fill: #1f77b4"/>
   </g>
   <g id="patch_30">
    <path d="M 466.009717 640.8 
L 479.946094 640.8 
L 479.946094 456.897498 
L 466.009717 456.897498 
z
" clip-path="url(#p8bd962f78d)" style="fill: #1f77b4"/>
   </g>
   <g id="patch_31">
    <path d="M 479.946094 640.8 
L 493.882471 640.8 
L 493.882471 352.753817 
L 479.946094 352.753817 
z
" clip-path="url(#p8bd962f78d)" style="fill: #1f77b4"/>
   </g>
   <g id="patch_32">
    <path d="M 493.882471 640.8 
L 507.818848 640.8 
L 507.818848 432.343297 
L 493.882471 432.343297 
z
" clip-path="url(#p8bd962f78d)" style="fill: #1f77b4"/>
   </g>
   <g id="patch_33">
    <path d="M 507.818848 640.8 
L 521.755225 640.8 
L 521.755225 399.660808 
L 507.818848 399.660808 
z
" clip-path="url(#p8bd962f78d)" style="fill: #1f77b4"/>
   </g>
   <g id="patch_34">
    <path d="M 521.755225 640.8 
L 535.691602 640.8 
L 535.691602 352.245799 
L 521.755225 352.245799 
z
" clip-path="url(#p8bd962f78d)" style="fill: #1f77b4"/>
   </g>
   <g id="patch_35">
    <path d="M 535.691602 640.8 
L 549.627979 640.8 
L 549.627979 405.926363 
L 535.691602 405.926363 
z
" clip-path="url(#p8bd962f78d)" style="fill: #1f77b4"/>
   </g>
   <g id="patch_36">
    <path d="M 549.627979 640.8 
L 563.564355 640.8 
L 563.564355 302.968056 
L 549.627979 302.968056 
z
" clip-path="url(#p8bd962f78d)" style="fill: #1f77b4"/>
   </g>
   <g id="patch_37">
    <path d="M 563.564355 640.8 
L 577.500732 640.8 
L 577.500732 385.436305 
L 563.564355 385.436305 
z
" clip-path="url(#p8bd962f78d)" style="fill: #1f77b4"/>
   </g>
   <g id="patch_38">
    <path d="M 577.500732 640.8 
L 591.437109 640.8 
L 591.437109 461.300321 
L 577.500732 461.300321 
z
" clip-path="url(#p8bd962f78d)" style="fill: #1f77b4"/>
   </g>
   <g id="patch_39">
    <path d="M 591.437109 640.8 
L 605.373486 640.8 
L 605.373486 462.147017 
L 591.437109 462.147017 
z
" clip-path="url(#p8bd962f78d)" style="fill: #1f77b4"/>
   </g>
   <g id="patch_40">
    <path d="M 605.373486 640.8 
L 619.309863 640.8 
L 619.309863 462.147017 
L 605.373486 462.147017 
z
" clip-path="url(#p8bd962f78d)" style="fill: #1f77b4"/>
   </g>
   <g id="patch_41">
    <path d="M 619.309863 640.8 
L 633.24624 640.8 
L 633.24624 320.071328 
L 619.309863 320.071328 
z
" clip-path="url(#p8bd962f78d)" style="fill: #1f77b4"/>
   </g>
   <g id="patch_42">
    <path d="M 633.24624 640.8 
L 647.182617 640.8 
L 647.182617 422.690956 
L 633.24624 422.690956 
z
" clip-path="url(#p8bd962f78d)" style="fill: #1f77b4"/>
   </g>
   <g id="matplotlib.axis_1">
    <g id="xtick_1">
     <g id="line2d_1">
      <defs>
       <path id="m317803989b" d="M 0 0 
L 0 3.5 
" style="stroke: #000000; stroke-width: 0.8"/>
      </defs>
      <g>
       <use xlink:href="#m317803989b" x="157.842773" y="640.8" style="stroke: #000000; stroke-width: 0.8"/>
      </g>
     </g>
     <g id="text_1">
      <!-- 250 -->
      <g transform="translate(148.299023 655.398438)scale(0.1 -0.1)">
       <defs>
        <path id="DejaVuSans-32" d="M 1228 531 
L 3431 531 
L 3431 0 
L 469 0 
L 469 531 
Q 828 903 1448 1529 
Q 2069 2156 2228 2338 
Q 2531 2678 2651 2914 
Q 2772 3150 2772 3378 
Q 2772 3750 2511 3984 
Q 2250 4219 1831 4219 
Q 1534 4219 1204 4116 
Q 875 4013 500 3803 
L 500 4441 
Q 881 4594 1212 4672 
Q 1544 4750 1819 4750 
Q 2544 4750 2975 4387 
Q 3406 4025 3406 3419 
Q 3406 3131 3298 2873 
Q 3191 2616 2906 2266 
Q 2828 2175 2409 1742 
Q 1991 1309 1228 531 
z
" transform="scale(0.015625)"/>
        <path id="DejaVuSans-35" d="M 691 4666 
L 3169 4666 
L 3169 4134 
L 1269 4134 
L 1269 2991 
Q 1406 3038 1543 3061 
Q 1681 3084 1819 3084 
Q 2600 3084 3056 2656 
Q 3513 2228 3513 1497 
Q 3513 744 3044 326 
Q 2575 -91 1722 -91 
Q 1428 -91 1123 -41 
Q 819 9 494 109 
L 494 744 
Q 775 591 1075 516 
Q 1375 441 1709 441 
Q 2250 441 2565 725 
Q 2881 1009 2881 1497 
Q 2881 1984 2565 2268 
Q 2250 2553 1709 2553 
Q 1456 2553 1204 2497 
Q 953 2441 691 2322 
L 691 4666 
z
" transform="scale(0.015625)"/>
        <path id="DejaVuSans-30" d="M 2034 4250 
Q 1547 4250 1301 3770 
Q 1056 3291 1056 2328 
Q 1056 1369 1301 889 
Q 1547 409 2034 409 
Q 2525 409 2770 889 
Q 3016 1369 3016 2328 
Q 3016 3291 2770 3770 
Q 2525 4250 2034 4250 
z
M 2034 4750 
Q 2819 4750 3233 4129 
Q 3647 3509 3647 2328 
Q 3647 1150 3233 529 
Q 2819 -91 2034 -91 
Q 1250 -91 836 529 
Q 422 1150 422 2328 
Q 422 3509 836 4129 
Q 1250 4750 2034 4750 
z
" transform="scale(0.015625)"/>
       </defs>
       <use xlink:href="#DejaVuSans-32"/>
       <use xlink:href="#DejaVuSans-35" x="63.623047"/>
       <use xlink:href="#DejaVuSans-30" x="127.246094"/>
      </g>
     </g>
    </g>
    <g id="xtick_2">
     <g id="line2d_2">
      <g>
       <use xlink:href="#m317803989b" x="225.958008" y="640.8" style="stroke: #000000; stroke-width: 0.8"/>
      </g>
     </g>
     <g id="text_2">
      <!-- 500 -->
      <g transform="translate(216.414258 655.398438)scale(0.1 -0.1)">
       <use xlink:href="#DejaVuSans-35"/>
       <use xlink:href="#DejaVuSans-30" x="63.623047"/>
       <use xlink:href="#DejaVuSans-30" x="127.246094"/>
      </g>
     </g>
    </g>
    <g id="xtick_3">
     <g id="line2d_3">
      <g>
       <use xlink:href="#m317803989b" x="294.073242" y="640.8" style="stroke: #000000; stroke-width: 0.8"/>
      </g>
     </g>
     <g id="text_3">
      <!-- 750 -->
      <g transform="translate(284.529492 655.398438)scale(0.1 -0.1)">
       <defs>
        <path id="DejaVuSans-37" d="M 525 4666 
L 3525 4666 
L 3525 4397 
L 1831 0 
L 1172 0 
L 2766 4134 
L 525 4134 
L 525 4666 
z
" transform="scale(0.015625)"/>
       </defs>
       <use xlink:href="#DejaVuSans-37"/>
       <use xlink:href="#DejaVuSans-35" x="63.623047"/>
       <use xlink:href="#DejaVuSans-30" x="127.246094"/>
      </g>
     </g>
    </g>
    <g id="xtick_4">
     <g id="line2d_4">
      <g>
       <use xlink:href="#m317803989b" x="362.188477" y="640.8" style="stroke: #000000; stroke-width: 0.8"/>
      </g>
     </g>
     <g id="text_4">
      <!-- 1000 -->
      <g transform="translate(349.463477 655.398438)scale(0.1 -0.1)">
       <defs>
        <path id="DejaVuSans-31" d="M 794 531 
L 1825 531 
L 1825 4091 
L 703 3866 
L 703 4441 
L 1819 4666 
L 2450 4666 
L 2450 531 
L 3481 531 
L 3481 0 
L 794 0 
L 794 531 
z
" transform="scale(0.015625)"/>
       </defs>
       <use xlink:href="#DejaVuSans-31"/>
       <use xlink:href="#DejaVuSans-30" x="63.623047"/>
       <use xlink:href="#DejaVuSans-30" x="127.246094"/>
       <use xlink:href="#DejaVuSans-30" x="190.869141"/>
      </g>
     </g>
    </g>
    <g id="xtick_5">
     <g id="line2d_5">
      <g>
       <use xlink:href="#m317803989b" x="430.303711" y="640.8" style="stroke: #000000; stroke-width: 0.8"/>
      </g>
     </g>
     <g id="text_5">
      <!-- 1250 -->
      <g transform="translate(417.578711 655.398438)scale(0.1 -0.1)">
       <use xlink:href="#DejaVuSans-31"/>
       <use xlink:href="#DejaVuSans-32" x="63.623047"/>
       <use xlink:href="#DejaVuSans-35" x="127.246094"/>
       <use xlink:href="#DejaVuSans-30" x="190.869141"/>
      </g>
     </g>
    </g>
    <g id="xtick_6">
     <g id="line2d_6">
      <g>
       <use xlink:href="#m317803989b" x="498.418945" y="640.8" style="stroke: #000000; stroke-width: 0.8"/>
      </g>
     </g>
     <g id="text_6">
      <!-- 1500 -->
      <g transform="translate(485.693945 655.398438)scale(0.1 -0.1)">
       <use xlink:href="#DejaVuSans-31"/>
       <use xlink:href="#DejaVuSans-35" x="63.623047"/>
       <use xlink:href="#DejaVuSans-30" x="127.246094"/>
       <use xlink:href="#DejaVuSans-30" x="190.869141"/>
      </g>
     </g>
    </g>
    <g id="xtick_7">
     <g id="line2d_7">
      <g>
       <use xlink:href="#m317803989b" x="566.53418" y="640.8" style="stroke: #000000; stroke-width: 0.8"/>
      </g>
     </g>
     <g id="text_7">
      <!-- 1750 -->
      <g transform="translate(553.80918 655.398438)scale(0.1 -0.1)">
       <use xlink:href="#DejaVuSans-31"/>
       <use xlink:href="#DejaVuSans-37" x="63.623047"/>
       <use xlink:href="#DejaVuSans-35" x="127.246094"/>
       <use xlink:href="#DejaVuSans-30" x="190.869141"/>
      </g>
     </g>
    </g>
    <g id="xtick_8">
     <g id="line2d_8">
      <g>
       <use xlink:href="#m317803989b" x="634.649414" y="640.8" style="stroke: #000000; stroke-width: 0.8"/>
      </g>
     </g>
     <g id="text_8">
      <!-- 2000 -->
      <g transform="translate(621.924414 655.398438)scale(0.1 -0.1)">
       <use xlink:href="#DejaVuSans-32"/>
       <use xlink:href="#DejaVuSans-30" x="63.623047"/>
       <use xlink:href="#DejaVuSans-30" x="127.246094"/>
       <use xlink:href="#DejaVuSans-30" x="190.869141"/>
      </g>
     </g>
    </g>
    <g id="text_9">
     <!-- Collisions for hash table's cell -->
     <g transform="translate(220.942187 676.675)scale(0.2 -0.2)">
      <defs>
       <path id="DejaVuSans-43" d="M 4122 4306 
L 4122 3641 
Q 3803 3938 3442 4084 
Q 3081 4231 2675 4231 
Q 1875 4231 1450 3742 
Q 1025 3253 1025 2328 
Q 1025 1406 1450 917 
Q 1875 428 2675 428 
Q 3081 428 3442 575 
Q 3803 722 4122 1019 
L 4122 359 
Q 3791 134 3420 21 
Q 3050 -91 2638 -91 
Q 1578 -91 968 557 
Q 359 1206 359 2328 
Q 359 3453 968 4101 
Q 1578 4750 2638 4750 
Q 3056 4750 3426 4639 
Q 3797 4528 4122 4306 
z
" transform="scale(0.015625)"/>
       <path id="DejaVuSans-6f" d="M 1959 3097 
Q 1497 3097 1228 2736 
Q 959 2375 959 1747 
Q 959 1119 1226 758 
Q 1494 397 1959 397 
Q 2419 397 2687 759 
Q 2956 1122 2956 1747 
Q 2956 2369 2687 2733 
Q 2419 3097 1959 3097 
z
M 1959 3584 
Q 2709 3584 3137 3096 
Q 3566 2609 3566 1747 
Q 3566 888 3137 398 
Q 2709 -91 1959 -91 
Q 1206 -91 779 398 
Q 353 888 353 1747 
Q 353 2609 779 3096 
Q 1206 3584 1959 3584 
z
" transform="scale(0.015625)"/>
       <path id="DejaVuSans-6c" d="M 603 4863 
L 1178 4863 
L 1178 0 
L 603 0 
L 603 4863 
z
" transform="scale(0.015625)"/>
       <path id="DejaVuSans-69" d="M 603 3500 
L 1178 3500 
L 1178 0 
L 603 0 
L 603 3500 
z
M 603 4863 
L 1178 4863 
L 1178 4134 
L 603 4134 
L 603 4863 
z
" transform="scale(0.015625)"/>
       <path id="DejaVuSans-73" d="M 2834 3397 
L 2834 2853 
Q 2591 2978 2328 3040 
Q 2066 3103 1784 3103 
Q 1356 3103 1142 2972 
Q 928 2841 928 2578 
Q 928 2378 1081 2264 
Q 1234 2150 1697 2047 
L 1894 2003 
Q 2506 1872 2764 1633 
Q 3022 1394 3022 966 
Q 3022 478 2636 193 
Q 2250 -91 1575 -91 
Q 1294 -91 989 -36 
Q 684 19 347 128 
L 347 722 
Q 666 556 975 473 
Q 1284 391 1588 391 
Q 1994 391 2212 530 
Q 2431 669 2431 922 
Q 2431 1156 2273 1281 
Q 2116 1406 1581 1522 
L 1381 1569 
Q 847 1681 609 1914 
Q 372 2147 372 2553 
Q 372 3047 722 3315 
Q 1072 3584 1716 3584 
Q 2034 3584 2315 3537 
Q 2597 3491 2834 3397 
z
" transform="scale(0.015625)"/>
       <path id="DejaVuSans-6e" d="M 3513 2113 
L 3513 0 
L 2938 0 
L 2938 2094 
Q 2938 2591 2744 2837 
Q 2550 3084 2163 3084 
Q 1697 3084 1428 2787 
Q 1159 2491 1159 1978 
L 1159 0 
L 581 0 
L 581 3500 
L 1159 3500 
L 1159 2956 
Q 1366 3272 1645 3428 
Q 1925 3584 2291 3584 
Q 2894 3584 3203 3211 
Q 3513 2838 3513 2113 
z
" transform="scale(0.015625)"/>
       <path id="DejaVuSans-20" transform="scale(0.015625)"/>
       <path id="DejaVuSans-66" d="M 2375 4863 
L 2375 4384 
L 1825 4384 
Q 1516 4384 1395 4259 
Q 1275 4134 1275 3809 
L 1275 3500 
L 2222 3500 
L 2222 3053 
L 1275 3053 
L 1275 0 
L 697 0 
L 697 3053 
L 147 3053 
L 147 3500 
L 697 3500 
L 697 3744 
Q 697 4328 969 4595 
Q 1241 4863 1831 4863 
L 2375 4863 
z
" transform="scale(0.015625)"/>
       <path id="DejaVuSans-72" d="M 2631 2963 
Q 2534 3019 2420 3045 
Q 2306 3072 2169 3072 
Q 1681 3072 1420 2755 
Q 1159 2438 1159 1844 
L 1159 0 
L 581 0 
L 581 3500 
L 1159 3500 
L 1159 2956 
Q 1341 3275 1631 3429 
Q 1922 3584 2338 3584 
Q 2397 3584 2469 3576 
Q 2541 3569 2628 3553 
L 2631 2963 
z
" transform="scale(0.015625)"/>
       <path id="DejaVuSans-68" d="M 3513 2113 
L 3513 0 
L 2938 0 
L 2938 2094 
Q 2938 2591 2744 2837 
Q 2550 3084 2163 3084 
Q 1697 3084 1428 2787 
Q 1159 2491 1159 1978 
L 1159 0 
L 581 0 
L 581 4863 
L 1159 4863 
L 1159 2956 
Q 1366 3272 1645 3428 
Q 1925 3584 2291 3584 
Q 2894 3584 3203 3211 
Q 3513 2838 3513 2113 
z
" transform="scale(0.015625)"/>
       <path id="DejaVuSans-61" d="M 2194 1759 
Q 1497 1759 1228 1600 
Q 959 1441 959 1056 
Q 959 750 1161 570 
Q 1363 391 1709 391 
Q 2188 391 2477 730 
Q 2766 1069 2766 1631 
L 2766 1759 
L 2194 1759 
z
M 3341 1997 
L 3341 0 
L 2766 0 
L 2766 531 
Q 2569 213 2275 61 
Q 1981 -91 1556 -91 
Q 1019 -91 701 211 
Q 384 513 384 1019 
Q 384 1609 779 1909 
Q 1175 2209 1959 2209 
L 2766 2209 
L 2766 2266 
Q 2766 2663 2505 2880 
Q 2244 3097 1772 3097 
Q 1472 3097 1187 3025 
Q 903 2953 641 2809 
L 641 3341 
Q 956 3463 1253 3523 
Q 1550 3584 1831 3584 
Q 2591 3584 2966 3190 
Q 3341 2797 3341 1997 
z
" transform="scale(0.015625)"/>
       <path id="DejaVuSans-74" d="M 1172 4494 
L 1172 3500 
L 2356 3500 
L 2356 3053 
L 1172 3053 
L 1172 1153 
Q 1172 725 1289 603 
Q 1406 481 1766 481 
L 2356 481 
L 2356 0 
L 1766 0 
Q 1100 0 847 248 
Q 594 497 594 1153 
L 594 3053 
L 172 3053 
L 172 3500 
L 594 3500 
L 594 4494 
L 1172 4494 
z
" transform="scale(0.015625)"/>
       <path id="DejaVuSans-62" d="M 3116 1747 
Q 3116 2381 2855 2742 
Q 2594 3103 2138 3103 
Q 1681 3103 1420 2742 
Q 1159 2381 1159 1747 
Q 1159 1113 1420 752 
Q 1681 391 2138 391 
Q 2594 391 2855 752 
Q 3116 1113 3116 1747 
z
M 1159 2969 
Q 1341 3281 1617 3432 
Q 1894 3584 2278 3584 
Q 2916 3584 3314 3078 
Q 3713 2572 3713 1747 
Q 3713 922 3314 415 
Q 2916 -91 2278 -91 
Q 1894 -91 1617 61 
Q 1341 213 1159 525 
L 1159 0 
L 581 0 
L 581 4863 
L 1159 4863 
L 1159 2969 
z
" transform="scale(0.015625)"/>
       <path id="DejaVuSans-65" d="M 3597 1894 
L 3597 1613 
L 953 1613 
Q 991 1019 1311 708 
Q 1631 397 2203 397 
Q 2534 397 2845 478 
Q 3156 559 3463 722 
L 3463 178 
Q 3153 47 2828 -22 
Q 2503 -91 2169 -91 
Q 1331 -91 842 396 
Q 353 884 353 1716 
Q 353 2575 817 3079 
Q 1281 3584 2069 3584 
Q 2775 3584 3186 3129 
Q 3597 2675 3597 1894 
z
M 3022 2063 
Q 3016 2534 2758 2815 
Q 2500 3097 2075 3097 
Q 1594 3097 1305 2825 
Q 1016 2553 972 2059 
L 3022 2063 
z
" transform="scale(0.015625)"/>
       <path id="DejaVuSans-27" d="M 1147 4666 
L 1147 2931 
L 616 2931 
L 616 4666 
L 1147 4666 
z
" transform="scale(0.015625)"/>
       <path id="DejaVuSans-63" d="M 3122 3366 
L 3122 2828 
Q 2878 2963 2633 3030 
Q 2388 3097 2138 3097 
Q 1578 3097 1268 2742 
Q 959 2388 959 1747 
Q 959 1106 1268 751 
Q 1578 397 2138 397 
Q 2388 397 2633 464 
Q 2878 531 3122 666 
L 3122 134 
Q 2881 22 2623 -34 
Q 2366 -91 2075 -91 
Q 1284 -91 818 406 
Q 353 903 353 1747 
Q 353 2603 823 3093 
Q 1294 3584 2113 3584 
Q 2378 3584 2631 3529 
Q 2884 3475 3122 3366 
z
" transform="scale(0.015625)"/>
      </defs>
      <use xlink:href="#DejaVuSans-43"/>
      <use xlink:href="#DejaVuSans-6f" x="69.824219"/>
      <use xlink:href="#DejaVuSans-6c" x="131.005859"/>
      <use xlink:href="#DejaVuSans-6c" x="158.789062"/>
      <use xlink:href="#DejaVuSans-69" x="186.572266"/>
      <use xlink:href="#DejaVuSans-73" x="214.355469"/>
      <use xlink:href="#DejaVuSans-69" x="266.455078"/>
      <use xlink:href="#DejaVuSans-6f" x="294.238281"/>
      <use xlink:href="#DejaVuSans-6e" x="355.419922"/>
      <use xlink:href="#DejaVuSans-73" x="418.798828"/>
      <use xlink:href="#DejaVuSans-20" x="470.898438"/>
      <use xlink:href="#DejaVuSans-66" x="502.685547"/>
      <use xlink:href="#DejaVuSans-6f" x="537.890625"/>
      <use xlink:href="#DejaVuSans-72" x="599.072266"/>
      <use xlink:href="#DejaVuSans-20" x="640.185547"/>
      <use xlink:href="#DejaVuSans-68" x="671.972656"/>
      <use xlink:href="#DejaVuSans-61" x="735.351562"/>
      <use xlink:href="#DejaVuSans-73" x="796.630859"/>
      <use xlink:href="#DejaVuSans-68" x="848.730469"/>
      <use xlink:href="#DejaVuSans-20" x="912.109375"/>
      <use xlink:href="#DejaVuSans-74" x="943.896484"/>
      <use xlink:href="#DejaVuSans-61" x="983.105469"/>
      <use xlink:href="#DejaVuSans-62" x="1044.384766"/>
      <use xlink:href="#DejaVuSans-6c" x="1107.861328"/>
      <use xlink:href="#DejaVuSans-65" x="1135.644531"/>
      <use xlink:href="#DejaVuSans-27" x="1197.167969"/>
      <use xlink:href="#DejaVuSans-73" x="1224.658203"/>
      <use xlink:href="#DejaVuSans-20" x="1276.757812"/>
      <use xlink:href="#DejaVuSans-63" x="1308.544922"/>
      <use xlink:href="#DejaVuSans-65" x="1363.525391"/>
      <use xlink:href="#DejaVuSans-6c" x="1425.048828"/>
      <use xlink:href="#DejaVuSans-6c" x="1452.832031"/>
     </g>
    </g>
   </g>
   <g id="matplotlib.axis_2"/>
   <g id="patch_43">
    <path d="M 90 640.8 
L 90 86.4 
" style="fill: none; stroke: #000000; stroke-width: 0.8; stroke-linejoin: miter; stroke-linecap: square"/>
   </g>
   <g id="patch_44">
    <path d="M 648 640.8 
L 648 86.4 
" style="fill: none; stroke: #000000; stroke-width: 0.8; stroke-linejoin: miter; stroke-linecap: square"/>
   </g>
   <g id="patch_45">
    <path d="M 90 640.8 
L 648 640.8 
" style="fill: none; stroke: #000000; stroke-width: 0.8; stroke-linejoin: miter; stroke-linecap: square"/>
   </g>
   <g id="patch_46">
    <path d="M 90 86.4 
L 648 86.4 
" style="fill: none; stroke: #000000; stroke-width: 0.8; stroke-linejoin: miter; stroke-linecap: square"/>
   </g>
   <g id="text_10">
    <!-- Distribution: PJW hash -->
    <g transform="translate(302.434687 80.4)scale(0.12 -0.12)">
     <defs>
      <path id="DejaVuSans-44" d="M 1259 4147 
L 1259 519 
L 2022 519 
Q 2988 519 3436 956 
Q 3884 1394 3884 2338 
Q 3884 3275 3436 3711 
Q 2988 4147 2022 4147 
L 1259 4147 
z
M 628 4666 
L 1925 4666 
Q 3281 4666 3915 4102 
Q 4550 3538 4550 2338 
Q 4550 1131 3912 565 
Q 3275 0 1925 0 
L 628 0 
L 628 4666 
z
" transform="scale(0.015625)"/>
      <path id="DejaVuSans-75" d="M 544 1381 
L 544 3500 
L 1119 3500 
L 1119 1403 
Q 1119 906 1312 657 
Q 1506 409 1894 409 
Q 2359 409 2629 706 
Q 2900 1003 2900 1516 
L 2900 3500 
L 3475 3500 
L 3475 0 
L 2900 0 
L 2900 538 
Q 2691 219 2414 64 
Q 2138 -91 1772 -91 
Q 1169 -91 856 284 
Q 544 659 544 1381 
z
M 1991 3584 
L 1991 3584 
z
" transform="scale(0.015625)"/>
      <path id="DejaVuSans-3a" d="M 750 794 
L 1409 794 
L 1409 0 
L 750 0 
L 750 794 
z
M 750 3309 
L 1409 3309 
L 1409 2516 
L 750 2516 
L 750 3309 
z
" transform="scale(0.015625)"/>
      <path id="DejaVuSans-50" d="M 1259 4147 
L 1259 2394 
L 2053 2394 
Q 2494 2394 2734 2622 
Q 2975 2850 2975 3272 
Q 2975 3691 2734 3919 
Q 2494 4147 2053 4147 
L 1259 4147 
z
M 628 4666 
L 2053 4666 
Q 2838 4666 3239 4311 
Q 3641 3956 3641 3272 
Q 3641 2581 3239 2228 
Q 2838 1875 2053 1875 
L 1259 1875 
L 1259 0 
L 628 0 
L 628 4666 
z
" transform="scale(0.015625)"/>
      <path id="DejaVuSans-4a" d="M 628 4666 
L 1259 4666 
L 1259 325 
Q 1259 -519 939 -900 
Q 619 -1281 -91 -1281 
L -331 -1281 
L -331 -750 
L -134 -750 
Q 284 -750 456 -515 
Q 628 -281 628 325 
L 628 4666 
z
" transform="scale(0.015625)"/>
      <path id="DejaVuSans-57" d="M 213 4666 
L 850 4666 
L 1831 722 
L 2809 4666 
L 3519 4666 
L 4500 722 
L 5478 4666 
L 6119 4666 
L 4947 0 
L 4153 0 
L 3169 4050 
L 2175 0 
L 1381 0 
L 213 4666 
z
" transform="scale(0.015625)"/>
     </defs>
     <use xlink:href="#DejaVuSans-44"/>
     <use xlink:href="#DejaVuSans-69" x="77.001953"/>
     <use xlink:href="#DejaVuSans-73" x="104.785156"/>
     <use xlink:href="#DejaVuSans-74" x="156.884766"/>
     <use xlink:href="#DejaVuSans-72" x="196.09375"/>
     <use xlink:href="#DejaVuSans-69" x="237.207031"/>
     <use xlink:href="#DejaVuSans-62" x="264.990234"/>
     <use xlink:href="#DejaVuSans-75" x="328.466797"/>
     <use xlink:href="#DejaVuSans-74" x="391.845703"/>
     <use xlink:href="#DejaVuSans-69" x="431.054688"/>
     <use xlink:href="#DejaVuSans-6f" x="458.837891"/>
     <use xlink:href="#DejaVuSans-6e" x="520.019531"/>
     <use xlink:href="#DejaVuSans-3a" x="583.398438"/>
     <use xlink:href="#DejaVuSans-20" x="617.089844"/>
     <use xlink:href="#DejaVuSans-50" x="648.876953"/>
     <use xlink:href="#DejaVuSans-4a" x="709.179688"/>
     <use xlink:href="#DejaVuSans-57" x="738.671875"/>
     <use xlink:href="#DejaVuSans-20" x="837.548828"/>
     <use xlink:href="#DejaVuSans-68" x="869.335938"/>
     <use xlink:href="#DejaVuSans-61" x="932.714844"/>
     <use xlink:href="#DejaVuSans-73" x="993.994141"/>
     <use xlink:href="#DejaVuSans-68" x="1046.09375"/>
    </g>
   </g>
  </g>
 </g>
 <defs>
  <clipPath id="p8bd962f78d">
   <rect x="90" y="86.4" width="558" height="554.4"/>
  </clipPath>
 </defs>
</svg>
