<?xml version="1.0" encoding="utf-8" standalone="no"?>
<!DOCTYPE svg PUBLIC "-//W3C//DTD SVG 1.1//EN"
  "http://www.w3.org/Graphics/SVG/1.1/DTD/svg11.dtd">
<svg xmlns:xlink="http://www.w3.org/1999/xlink" width="720pt" height="720pt" viewBox="0 0 720 720" xmlns="http://www.w3.org/2000/svg" version="1.1">
 <metadata>
  <rdf:RDF xmlns:dc="http://purl.org/dc/elements/1.1/" xmlns:cc="http://creativecommons.org/ns#" xmlns:rdf="http://www.w3.org/1999/02/22-rdf-syntax-ns#">
   <cc:Work>
    <dc:type rdf:resource="http://purl.org/dc/dcmitype/StillImage"/>
    <dc:date>2022-05-07T12:23:26.101020</dc:date>
    <dc:format>image/svg+xml</dc:format>
    <dc:creator>
     <cc:Agent>
      <dc:title>Matplotlib v3.5.2, https://matplotlib.org/</dc:title>
     </cc:Agent>
    </dc:creator>
   </cc:Work>
  </rdf:RDF>
 </metadata>
 <defs>
  <style type="text/css">*{stroke-linejoin: round; stroke-linecap: butt}</style>
 </defs>
 <g id="figure_1">
  <g id="patch_1">
   <path d="M 0 720 
L 720 720 
L 720 0 
L 0 0 
z
" style="fill: #ffffff"/>
  </g>
  <g id="axes_1">
   <g id="patch_2">
    <path d="M 90 640.8 
L 648 640.8 
L 648 86.4 
L 90 86.4 
z
" style="fill: #ffffff"/>
   </g>
   <g id="patch_3">
    <path d="M 115.363636 640.8 
L 143.915033 640.8 
L 143.915033 639.635839 
L 115.363636 639.635839 
z
" clip-path="url(#p64c36032fd)" style="fill: #1f77b4"/>
   </g>
   <g id="patch_4">
    <path d="M 143.915033 640.8 
L 168.282189 640.8 
L 168.282189 640.8 
L 143.915033 640.8 
z
" clip-path="url(#p64c36032fd)" style="fill: #1f77b4"/>
   </g>
   <g id="patch_5">
    <path d="M 168.282189 640.8 
L 189.536206 640.8 
L 189.536206 640.8 
L 168.282189 640.8 
z
" clip-path="url(#p64c36032fd)" style="fill: #1f77b4"/>
   </g>
   <g id="patch_6">
    <path d="M 189.536206 640.8 
L 208.383187 640.8 
L 208.383187 640.8 
L 189.536206 640.8 
z
" clip-path="url(#p64c36032fd)" style="fill: #1f77b4"/>
   </g>
   <g id="patch_7">
    <path d="M 208.383187 640.8 
L 225.313287 640.8 
L 225.313287 640.8 
L 208.383187 640.8 
z
" clip-path="url(#p64c36032fd)" style="fill: #1f77b4"/>
   </g>
   <g id="patch_8">
    <path d="M 225.313287 640.8 
L 240.680684 640.8 
L 240.680684 635.19086 
L 225.313287 635.19086 
z
" clip-path="url(#p64c36032fd)" style="fill: #1f77b4"/>
   </g>
   <g id="patch_9">
    <path d="M 240.680684 640.8 
L 254.749642 640.8 
L 254.749642 640.8 
L 240.680684 640.8 
z
" clip-path="url(#p64c36032fd)" style="fill: #1f77b4"/>
   </g>
   <g id="patch_10">
    <path d="M 254.749642 640.8 
L 267.722585 640.8 
L 267.722585 640.8 
L 254.749642 640.8 
z
" clip-path="url(#p64c36032fd)" style="fill: #1f77b4"/>
   </g>
   <g id="patch_11">
    <path d="M 267.722585 640.8 
L 279.758008 640.8 
L 279.758008 640.8 
L 267.722585 640.8 
z
" clip-path="url(#p64c36032fd)" style="fill: #1f77b4"/>
   </g>
   <g id="patch_12">
    <path d="M 279.758008 640.8 
L 290.982328 640.8 
L 290.982328 640.8 
L 279.758008 640.8 
z
" clip-path="url(#p64c36032fd)" style="fill: #1f77b4"/>
   </g>
   <g id="patch_13">
    <path d="M 290.982328 640.8 
L 301.498004 640.8 
L 301.498004 603.970174 
L 290.982328 603.970174 
z
" clip-path="url(#p64c36032fd)" style="fill: #1f77b4"/>
   </g>
   <g id="patch_14">
    <path d="M 301.498004 640.8 
L 311.389226 640.8 
L 311.389226 640.8 
L 301.498004 640.8 
z
" clip-path="url(#p64c36032fd)" style="fill: #1f77b4"/>
   </g>
   <g id="patch_15">
    <path d="M 311.389226 640.8 
L 320.726019 640.8 
L 320.726019 640.8 
L 311.389226 640.8 
z
" clip-path="url(#p64c36032fd)" style="fill: #1f77b4"/>
   </g>
   <g id="patch_16">
    <path d="M 320.726019 640.8 
L 329.567253 640.8 
L 329.567253 640.8 
L 320.726019 640.8 
z
" clip-path="url(#p64c36032fd)" style="fill: #1f77b4"/>
   </g>
   <g id="patch_17">
    <path d="M 329.567253 640.8 
L 337.962891 640.8 
L 337.962891 640.8 
L 329.567253 640.8 
z
" clip-path="url(#p64c36032fd)" style="fill: #1f77b4"/>
   </g>
   <g id="patch_18">
    <path d="M 337.962891 640.8 
L 345.955702 640.8 
L 345.955702 640.8 
L 337.962891 640.8 
z
" clip-path="url(#p64c36032fd)" style="fill: #1f77b4"/>
   </g>
   <g id="patch_19">
    <path d="M 345.955702 640.8 
L 353.582579 640.8 
L 353.582579 512.953939 
L 345.955702 512.953939 
z
" clip-path="url(#p64c36032fd)" style="fill: #1f77b4"/>
   </g>
   <g id="patch_20">
    <path d="M 353.582579 640.8 
L 360.875566 640.8 
L 360.875566 640.8 
L 353.582579 640.8 
z
" clip-path="url(#p64c36032fd)" style="fill: #1f77b4"/>
   </g>
   <g id="patch_21">
    <path d="M 360.875566 640.8 
L 367.862676 640.8 
L 367.862676 640.8 
L 360.875566 640.8 
z
" clip-path="url(#p64c36032fd)" style="fill: #1f77b4"/>
   </g>
   <g id="patch_22">
    <path d="M 367.862676 640.8 
L 374.568537 640.8 
L 374.568537 640.8 
L 367.862676 640.8 
z
" clip-path="url(#p64c36032fd)" style="fill: #1f77b4"/>
   </g>
   <g id="patch_23">
    <path d="M 374.568537 640.8 
L 381.014918 640.8 
L 381.014918 640.8 
L 374.568537 640.8 
z
" clip-path="url(#p64c36032fd)" style="fill: #1f77b4"/>
   </g>
   <g id="patch_24">
    <path d="M 381.014918 640.8 
L 387.221154 640.8 
L 387.221154 398.019483 
L 381.014918 398.019483 
z
" clip-path="url(#p64c36032fd)" style="fill: #1f77b4"/>
   </g>
   <g id="patch_25">
    <path d="M 387.221154 640.8 
L 393.204495 640.8 
L 393.204495 640.8 
L 387.221154 640.8 
z
" clip-path="url(#p64c36032fd)" style="fill: #1f77b4"/>
   </g>
   <g id="patch_26">
    <path d="M 393.204495 640.8 
L 398.9804 640.8 
L 398.9804 640.8 
L 393.204495 640.8 
z
" clip-path="url(#p64c36032fd)" style="fill: #1f77b4"/>
   </g>
   <g id="patch_27">
    <path d="M 398.9804 640.8 
L 404.56277 640.8 
L 404.56277 640.8 
L 398.9804 640.8 
z
" clip-path="url(#p64c36032fd)" style="fill: #1f77b4"/>
   </g>
   <g id="patch_28">
    <path d="M 404.56277 640.8 
L 409.964156 640.8 
L 409.964156 640.8 
L 404.56277 640.8 
z
" clip-path="url(#p64c36032fd)" style="fill: #1f77b4"/>
   </g>
   <g id="patch_29">
    <path d="M 409.964156 640.8 
L 415.195925 640.8 
L 415.195925 248.05436 
L 409.964156 248.05436 
z
" clip-path="url(#p64c36032fd)" style="fill: #1f77b4"/>
   </g>
   <g id="patch_30">
    <path d="M 415.195925 640.8 
L 420.268407 640.8 
L 420.268407 640.8 
L 415.195925 640.8 
z
" clip-path="url(#p64c36032fd)" style="fill: #1f77b4"/>
   </g>
   <g id="patch_31">
    <path d="M 420.268407 640.8 
L 425.191015 640.8 
L 425.191015 640.8 
L 420.268407 640.8 
z
" clip-path="url(#p64c36032fd)" style="fill: #1f77b4"/>
   </g>
   <g id="patch_32">
    <path d="M 425.191015 640.8 
L 429.972352 640.8 
L 429.972352 640.8 
L 425.191015 640.8 
z
" clip-path="url(#p64c36032fd)" style="fill: #1f77b4"/>
   </g>
   <g id="patch_33">
    <path d="M 429.972352 640.8 
L 434.6203 640.8 
L 434.6203 640.8 
L 429.972352 640.8 
z
" clip-path="url(#p64c36032fd)" style="fill: #1f77b4"/>
   </g>
   <g id="patch_34">
    <path d="M 434.6203 640.8 
L 439.142102 640.8 
L 439.142102 640.8 
L 434.6203 640.8 
z
" clip-path="url(#p64c36032fd)" style="fill: #1f77b4"/>
   </g>
   <g id="patch_35">
    <path d="M 439.142102 640.8 
L 443.544423 640.8 
L 443.544423 112.8 
L 439.142102 112.8 
z
" clip-path="url(#p64c36032fd)" style="fill: #1f77b4"/>
   </g>
   <g id="patch_36">
    <path d="M 443.544423 640.8 
L 447.833416 640.8 
L 447.833416 640.8 
L 443.544423 640.8 
z
" clip-path="url(#p64c36032fd)" style="fill: #1f77b4"/>
   </g>
   <g id="patch_37">
    <path d="M 447.833416 640.8 
L 452.014768 640.8 
L 452.014768 640.8 
L 447.833416 640.8 
z
" clip-path="url(#p64c36032fd)" style="fill: #1f77b4"/>
   </g>
   <g id="patch_38">
    <path d="M 452.014768 640.8 
L 456.093752 640.8 
L 456.093752 640.8 
L 452.014768 640.8 
z
" clip-path="url(#p64c36032fd)" style="fill: #1f77b4"/>
   </g>
   <g id="patch_39">
    <path d="M 456.093752 640.8 
L 460.075259 640.8 
L 460.075259 640.8 
L 456.093752 640.8 
z
" clip-path="url(#p64c36032fd)" style="fill: #1f77b4"/>
   </g>
   <g id="patch_40">
    <path d="M 460.075259 640.8 
L 463.963841 640.8 
L 463.963841 115.234155 
L 460.075259 115.234155 
z
" clip-path="url(#p64c36032fd)" style="fill: #1f77b4"/>
   </g>
   <g id="patch_41">
    <path d="M 463.963841 640.8 
L 467.763736 640.8 
L 467.763736 640.8 
L 463.963841 640.8 
z
" clip-path="url(#p64c36032fd)" style="fill: #1f77b4"/>
   </g>
   <g id="patch_42">
    <path d="M 467.763736 640.8 
L 471.478899 640.8 
L 471.478899 640.8 
L 467.763736 640.8 
z
" clip-path="url(#p64c36032fd)" style="fill: #1f77b4"/>
   </g>
   <g id="patch_43">
    <path d="M 471.478899 640.8 
L 475.113027 640.8 
L 475.113027 640.8 
L 471.478899 640.8 
z
" clip-path="url(#p64c36032fd)" style="fill: #1f77b4"/>
   </g>
   <g id="patch_44">
    <path d="M 475.113027 640.8 
L 478.669579 640.8 
L 478.669579 640.8 
L 475.113027 640.8 
z
" clip-path="url(#p64c36032fd)" style="fill: #1f77b4"/>
   </g>
   <g id="patch_45">
    <path d="M 478.669579 640.8 
L 482.151799 640.8 
L 482.151799 159.472279 
L 478.669579 159.472279 
z
" clip-path="url(#p64c36032fd)" style="fill: #1f77b4"/>
   </g>
   <g id="patch_46">
    <path d="M 482.151799 640.8 
L 485.56273 640.8 
L 485.56273 640.8 
L 482.151799 640.8 
z
" clip-path="url(#p64c36032fd)" style="fill: #1f77b4"/>
   </g>
   <g id="patch_47">
    <path d="M 485.56273 640.8 
L 488.905233 640.8 
L 488.905233 640.8 
L 485.56273 640.8 
z
" clip-path="url(#p64c36032fd)" style="fill: #1f77b4"/>
   </g>
   <g id="patch_48">
    <path d="M 488.905233 640.8 
L 492.181998 640.8 
L 492.181998 640.8 
L 488.905233 640.8 
z
" clip-path="url(#p64c36032fd)" style="fill: #1f77b4"/>
   </g>
   <g id="patch_49">
    <path d="M 492.181998 640.8 
L 495.395563 640.8 
L 495.395563 640.8 
L 492.181998 640.8 
z
" clip-path="url(#p64c36032fd)" style="fill: #1f77b4"/>
   </g>
   <g id="patch_50">
    <path d="M 495.395563 640.8 
L 498.548318 640.8 
L 498.548318 640.8 
L 495.395563 640.8 
z
" clip-path="url(#p64c36032fd)" style="fill: #1f77b4"/>
   </g>
   <g id="patch_51">
    <path d="M 498.548318 640.8 
L 501.642524 640.8 
L 501.642524 236.518581 
L 498.548318 236.518581 
z
" clip-path="url(#p64c36032fd)" style="fill: #1f77b4"/>
   </g>
   <g id="patch_52">
    <path d="M 501.642524 640.8 
L 504.680314 640.8 
L 504.680314 640.8 
L 501.642524 640.8 
z
" clip-path="url(#p64c36032fd)" style="fill: #1f77b4"/>
   </g>
   <g id="patch_53">
    <path d="M 504.680314 640.8 
L 507.663709 640.8 
L 507.663709 640.8 
L 504.680314 640.8 
z
" clip-path="url(#p64c36032fd)" style="fill: #1f77b4"/>
   </g>
   <g id="patch_54">
    <path d="M 507.663709 640.8 
L 510.594622 640.8 
L 510.594622 640.8 
L 507.663709 640.8 
z
" clip-path="url(#p64c36032fd)" style="fill: #1f77b4"/>
   </g>
   <g id="patch_55">
    <path d="M 510.594622 640.8 
L 513.47487 640.8 
L 513.47487 640.8 
L 510.594622 640.8 
z
" clip-path="url(#p64c36032fd)" style="fill: #1f77b4"/>
   </g>
   <g id="patch_56">
    <path d="M 513.47487 640.8 
L 516.306173 640.8 
L 516.306173 352.617198 
L 513.47487 352.617198 
z
" clip-path="url(#p64c36032fd)" style="fill: #1f77b4"/>
   </g>
   <g id="patch_57">
    <path d="M 516.306173 640.8 
L 519.090167 640.8 
L 519.090167 640.8 
L 516.306173 640.8 
z
" clip-path="url(#p64c36032fd)" style="fill: #1f77b4"/>
   </g>
   <g id="patch_58">
    <path d="M 519.090167 640.8 
L 521.828407 640.8 
L 521.828407 640.8 
L 519.090167 640.8 
z
" clip-path="url(#p64c36032fd)" style="fill: #1f77b4"/>
   </g>
   <g id="patch_59">
    <path d="M 521.828407 640.8 
L 524.522373 640.8 
L 524.522373 640.8 
L 521.828407 640.8 
z
" clip-path="url(#p64c36032fd)" style="fill: #1f77b4"/>
   </g>
   <g id="patch_60">
    <path d="M 524.522373 640.8 
L 527.173473 640.8 
L 527.173473 640.8 
L 524.522373 640.8 
z
" clip-path="url(#p64c36032fd)" style="fill: #1f77b4"/>
   </g>
   <g id="patch_61">
    <path d="M 527.173473 640.8 
L 529.783051 640.8 
L 529.783051 448.290078 
L 527.173473 448.290078 
z
" clip-path="url(#p64c36032fd)" style="fill: #1f77b4"/>
   </g>
   <g id="patch_62">
    <path d="M 529.783051 640.8 
L 532.352388 640.8 
L 532.352388 640.8 
L 529.783051 640.8 
z
" clip-path="url(#p64c36032fd)" style="fill: #1f77b4"/>
   </g>
   <g id="patch_63">
    <path d="M 532.352388 640.8 
L 534.882704 640.8 
L 534.882704 640.8 
L 532.352388 640.8 
z
" clip-path="url(#p64c36032fd)" style="fill: #1f77b4"/>
   </g>
   <g id="patch_64">
    <path d="M 534.882704 640.8 
L 537.375169 640.8 
L 537.375169 640.8 
L 534.882704 640.8 
z
" clip-path="url(#p64c36032fd)" style="fill: #1f77b4"/>
   </g>
   <g id="patch_65">
    <path d="M 537.375169 640.8 
L 539.830898 640.8 
L 539.830898 640.8 
L 537.375169 640.8 
z
" clip-path="url(#p64c36032fd)" style="fill: #1f77b4"/>
   </g>
   <g id="patch_66">
    <path d="M 539.830898 640.8 
L 542.250957 640.8 
L 542.250957 640.8 
L 539.830898 640.8 
z
" clip-path="url(#p64c36032fd)" style="fill: #1f77b4"/>
   </g>
   <g id="patch_67">
    <path d="M 542.250957 640.8 
L 544.636369 640.8 
L 544.636369 524.278052 
L 542.250957 524.278052 
z
" clip-path="url(#p64c36032fd)" style="fill: #1f77b4"/>
   </g>
   <g id="patch_68">
    <path d="M 544.636369 640.8 
L 546.988111 640.8 
L 546.988111 640.8 
L 544.636369 640.8 
z
" clip-path="url(#p64c36032fd)" style="fill: #1f77b4"/>
   </g>
   <g id="patch_69">
    <path d="M 546.988111 640.8 
L 549.307121 640.8 
L 549.307121 640.8 
L 546.988111 640.8 
z
" clip-path="url(#p64c36032fd)" style="fill: #1f77b4"/>
   </g>
   <g id="patch_70">
    <path d="M 549.307121 640.8 
L 551.594297 640.8 
L 551.594297 640.8 
L 549.307121 640.8 
z
" clip-path="url(#p64c36032fd)" style="fill: #1f77b4"/>
   </g>
   <g id="patch_71">
    <path d="M 551.594297 640.8 
L 553.850501 640.8 
L 553.850501 640.8 
L 551.594297 640.8 
z
" clip-path="url(#p64c36032fd)" style="fill: #1f77b4"/>
   </g>
   <g id="patch_72">
    <path d="M 553.850501 640.8 
L 556.076562 640.8 
L 556.076562 585.343596 
L 553.850501 585.343596 
z
" clip-path="url(#p64c36032fd)" style="fill: #1f77b4"/>
   </g>
   <g id="patch_73">
    <path d="M 556.076562 640.8 
L 558.273273 640.8 
L 558.273273 640.8 
L 556.076562 640.8 
z
" clip-path="url(#p64c36032fd)" style="fill: #1f77b4"/>
   </g>
   <g id="patch_74">
    <path d="M 558.273273 640.8 
L 560.4414 640.8 
L 560.4414 640.8 
L 558.273273 640.8 
z
" clip-path="url(#p64c36032fd)" style="fill: #1f77b4"/>
   </g>
   <g id="patch_75">
    <path d="M 560.4414 640.8 
L 562.581675 640.8 
L 562.581675 640.8 
L 560.4414 640.8 
z
" clip-path="url(#p64c36032fd)" style="fill: #1f77b4"/>
   </g>
   <g id="patch_76">
    <path d="M 562.581675 640.8 
L 564.694807 640.8 
L 564.694807 640.8 
L 562.581675 640.8 
z
" clip-path="url(#p64c36032fd)" style="fill: #1f77b4"/>
   </g>
   <g id="patch_77">
    <path d="M 564.694807 640.8 
L 566.781473 640.8 
L 566.781473 610.637643 
L 564.694807 610.637643 
z
" clip-path="url(#p64c36032fd)" style="fill: #1f77b4"/>
   </g>
   <g id="patch_78">
    <path d="M 566.781473 640.8 
L 568.84233 640.8 
L 568.84233 640.8 
L 566.781473 640.8 
z
" clip-path="url(#p64c36032fd)" style="fill: #1f77b4"/>
   </g>
   <g id="patch_79">
    <path d="M 568.84233 640.8 
L 570.878008 640.8 
L 570.878008 640.8 
L 568.84233 640.8 
z
" clip-path="url(#p64c36032fd)" style="fill: #1f77b4"/>
   </g>
   <g id="patch_80">
    <path d="M 570.878008 640.8 
L 572.889115 640.8 
L 572.889115 640.8 
L 570.878008 640.8 
z
" clip-path="url(#p64c36032fd)" style="fill: #1f77b4"/>
   </g>
   <g id="patch_81">
    <path d="M 572.889115 640.8 
L 574.876236 640.8 
L 574.876236 640.8 
L 572.889115 640.8 
z
" clip-path="url(#p64c36032fd)" style="fill: #1f77b4"/>
   </g>
   <g id="patch_82">
    <path d="M 574.876236 640.8 
L 576.839938 640.8 
L 576.839938 640.8 
L 574.876236 640.8 
z
" clip-path="url(#p64c36032fd)" style="fill: #1f77b4"/>
   </g>
   <g id="patch_83">
    <path d="M 576.839938 640.8 
L 578.780765 640.8 
L 578.780765 630.110884 
L 576.839938 630.110884 
z
" clip-path="url(#p64c36032fd)" style="fill: #1f77b4"/>
   </g>
   <g id="patch_84">
    <path d="M 578.780765 640.8 
L 580.699246 640.8 
L 580.699246 640.8 
L 578.780765 640.8 
z
" clip-path="url(#p64c36032fd)" style="fill: #1f77b4"/>
   </g>
   <g id="patch_85">
    <path d="M 580.699246 640.8 
L 582.595887 640.8 
L 582.595887 640.8 
L 580.699246 640.8 
z
" clip-path="url(#p64c36032fd)" style="fill: #1f77b4"/>
   </g>
   <g id="patch_86">
    <path d="M 582.595887 640.8 
L 584.471182 640.8 
L 584.471182 640.8 
L 582.595887 640.8 
z
" clip-path="url(#p64c36032fd)" style="fill: #1f77b4"/>
   </g>
   <g id="patch_87">
    <path d="M 584.471182 640.8 
L 586.325604 640.8 
L 586.325604 640.8 
L 584.471182 640.8 
z
" clip-path="url(#p64c36032fd)" style="fill: #1f77b4"/>
   </g>
   <g id="patch_88">
    <path d="M 586.325604 640.8 
L 588.159615 640.8 
L 588.159615 634.661696 
L 586.325604 634.661696 
z
" clip-path="url(#p64c36032fd)" style="fill: #1f77b4"/>
   </g>
   <g id="patch_89">
    <path d="M 588.159615 640.8 
L 589.973657 640.8 
L 589.973657 640.8 
L 588.159615 640.8 
z
" clip-path="url(#p64c36032fd)" style="fill: #1f77b4"/>
   </g>
   <g id="patch_90">
    <path d="M 589.973657 640.8 
L 591.768162 640.8 
L 591.768162 640.8 
L 589.973657 640.8 
z
" clip-path="url(#p64c36032fd)" style="fill: #1f77b4"/>
   </g>
   <g id="patch_91">
    <path d="M 591.768162 640.8 
L 593.543545 640.8 
L 593.543545 640.8 
L 591.768162 640.8 
z
" clip-path="url(#p64c36032fd)" style="fill: #1f77b4"/>
   </g>
   <g id="patch_92">
    <path d="M 593.543545 640.8 
L 595.300211 640.8 
L 595.300211 640.8 
L 593.543545 640.8 
z
" clip-path="url(#p64c36032fd)" style="fill: #1f77b4"/>
   </g>
   <g id="patch_93">
    <path d="M 595.300211 640.8 
L 597.038548 640.8 
L 597.038548 639.635839 
L 595.300211 639.635839 
z
" clip-path="url(#p64c36032fd)" style="fill: #1f77b4"/>
   </g>
   <g id="patch_94">
    <path d="M 597.038548 640.8 
L 598.758937 640.8 
L 598.758937 640.8 
L 597.038548 640.8 
z
" clip-path="url(#p64c36032fd)" style="fill: #1f77b4"/>
   </g>
   <g id="patch_95">
    <path d="M 598.758937 640.8 
L 600.461744 640.8 
L 600.461744 640.8 
L 598.758937 640.8 
z
" clip-path="url(#p64c36032fd)" style="fill: #1f77b4"/>
   </g>
   <g id="patch_96">
    <path d="M 600.461744 640.8 
L 602.147324 640.8 
L 602.147324 640.8 
L 600.461744 640.8 
z
" clip-path="url(#p64c36032fd)" style="fill: #1f77b4"/>
   </g>
   <g id="patch_97">
    <path d="M 602.147324 640.8 
L 603.816022 640.8 
L 603.816022 640.8 
L 602.147324 640.8 
z
" clip-path="url(#p64c36032fd)" style="fill: #1f77b4"/>
   </g>
   <g id="patch_98">
    <path d="M 603.816022 640.8 
L 605.468174 640.8 
L 605.468174 640.8 
L 603.816022 640.8 
z
" clip-path="url(#p64c36032fd)" style="fill: #1f77b4"/>
   </g>
   <g id="patch_99">
    <path d="M 605.468174 640.8 
L 607.104104 640.8 
L 607.104104 640.482502 
L 605.468174 640.482502 
z
" clip-path="url(#p64c36032fd)" style="fill: #1f77b4"/>
   </g>
   <g id="patch_100">
    <path d="M 607.104104 640.8 
L 608.724128 640.8 
L 608.724128 640.8 
L 607.104104 640.8 
z
" clip-path="url(#p64c36032fd)" style="fill: #1f77b4"/>
   </g>
   <g id="patch_101">
    <path d="M 608.724128 640.8 
L 610.328553 640.8 
L 610.328553 640.8 
L 608.724128 640.8 
z
" clip-path="url(#p64c36032fd)" style="fill: #1f77b4"/>
   </g>
   <g id="patch_102">
    <path d="M 610.328553 640.8 
L 611.917674 640.8 
L 611.917674 640.8 
L 610.328553 640.8 
z
" clip-path="url(#p64c36032fd)" style="fill: #1f77b4"/>
   </g>
   <g id="patch_103">
    <path d="M 611.917674 640.8 
L 613.491783 640.8 
L 613.491783 640.8 
L 611.917674 640.8 
z
" clip-path="url(#p64c36032fd)" style="fill: #1f77b4"/>
   </g>
   <g id="patch_104">
    <path d="M 613.491783 640.8 
L 615.051159 640.8 
L 615.051159 640.588334 
L 613.491783 640.588334 
z
" clip-path="url(#p64c36032fd)" style="fill: #1f77b4"/>
   </g>
   <g id="patch_105">
    <path d="M 615.051159 640.8 
L 616.596077 640.8 
L 616.596077 640.8 
L 615.051159 640.8 
z
" clip-path="url(#p64c36032fd)" style="fill: #1f77b4"/>
   </g>
   <g id="patch_106">
    <path d="M 616.596077 640.8 
L 618.126801 640.8 
L 618.126801 640.8 
L 616.596077 640.8 
z
" clip-path="url(#p64c36032fd)" style="fill: #1f77b4"/>
   </g>
   <g id="patch_107">
    <path d="M 618.126801 640.8 
L 619.643591 640.8 
L 619.643591 640.8 
L 618.126801 640.8 
z
" clip-path="url(#p64c36032fd)" style="fill: #1f77b4"/>
   </g>
   <g id="patch_108">
    <path d="M 619.643591 640.8 
L 621.146696 640.8 
L 621.146696 640.8 
L 619.643591 640.8 
z
" clip-path="url(#p64c36032fd)" style="fill: #1f77b4"/>
   </g>
   <g id="patch_109">
    <path d="M 621.146696 640.8 
L 622.636364 640.8 
L 622.636364 640.694167 
L 621.146696 640.694167 
z
" clip-path="url(#p64c36032fd)" style="fill: #1f77b4"/>
   </g>
   <g id="matplotlib.axis_1">
    <g id="xtick_1">
     <g id="line2d_1">
      <defs>
       <path id="ma2cab36be8" d="M 0 0 
L 0 3.5 
" style="stroke: #000000; stroke-width: 0.8"/>
      </defs>
      <g>
       <use xlink:href="#ma2cab36be8" x="115.363636" y="640.8" style="stroke: #000000; stroke-width: 0.8"/>
      </g>
     </g>
     <g id="text_1">
      <!-- $\mathdefault{10^{0}}$ -->
      <g transform="translate(106.563636 655.398438)scale(0.1 -0.1)">
       <defs>
        <path id="DejaVuSans-31" d="M 794 531 
L 1825 531 
L 1825 4091 
L 703 3866 
L 703 4441 
L 1819 4666 
L 2450 4666 
L 2450 531 
L 3481 531 
L 3481 0 
L 794 0 
L 794 531 
z
" transform="scale(0.015625)"/>
        <path id="DejaVuSans-30" d="M 2034 4250 
Q 1547 4250 1301 3770 
Q 1056 3291 1056 2328 
Q 1056 1369 1301 889 
Q 1547 409 2034 409 
Q 2525 409 2770 889 
Q 3016 1369 3016 2328 
Q 3016 3291 2770 3770 
Q 2525 4250 2034 4250 
z
M 2034 4750 
Q 2819 4750 3233 4129 
Q 3647 3509 3647 2328 
Q 3647 1150 3233 529 
Q 2819 -91 2034 -91 
Q 1250 -91 836 529 
Q 422 1150 422 2328 
Q 422 3509 836 4129 
Q 1250 4750 2034 4750 
z
" transform="scale(0.015625)"/>
       </defs>
       <use xlink:href="#DejaVuSans-31" transform="translate(0 0.765625)"/>
       <use xlink:href="#DejaVuSans-30" transform="translate(63.623047 0.765625)"/>
       <use xlink:href="#DejaVuSans-30" transform="translate(128.203125 39.046875)scale(0.7)"/>
      </g>
     </g>
    </g>
    <g id="xtick_2">
     <g id="line2d_2">
      <g>
       <use xlink:href="#ma2cab36be8" x="499.016128" y="640.8" style="stroke: #000000; stroke-width: 0.8"/>
      </g>
     </g>
     <g id="text_2">
      <!-- $\mathdefault{10^{1}}$ -->
      <g transform="translate(490.216128 655.398438)scale(0.1 -0.1)">
       <use xlink:href="#DejaVuSans-31" transform="translate(0 0.684375)"/>
       <use xlink:href="#DejaVuSans-30" transform="translate(63.623047 0.684375)"/>
       <use xlink:href="#DejaVuSans-31" transform="translate(128.203125 38.965625)scale(0.7)"/>
      </g>
     </g>
    </g>
    <g id="xtick_3">
     <g id="line2d_3">
      <defs>
       <path id="m44eac24e96" d="M 0 0 
L 0 2 
" style="stroke: #000000; stroke-width: 0.6"/>
      </defs>
      <g>
       <use xlink:href="#m44eac24e96" x="97.808661" y="640.8" style="stroke: #000000; stroke-width: 0.6"/>
      </g>
     </g>
    </g>
    <g id="xtick_4">
     <g id="line2d_4">
      <g>
       <use xlink:href="#m44eac24e96" x="230.854544" y="640.8" style="stroke: #000000; stroke-width: 0.6"/>
      </g>
     </g>
    </g>
    <g id="xtick_5">
     <g id="line2d_5">
      <g>
       <use xlink:href="#m44eac24e96" x="298.412395" y="640.8" style="stroke: #000000; stroke-width: 0.6"/>
      </g>
     </g>
    </g>
    <g id="xtick_6">
     <g id="line2d_6">
      <g>
       <use xlink:href="#m44eac24e96" x="346.345452" y="640.8" style="stroke: #000000; stroke-width: 0.6"/>
      </g>
     </g>
    </g>
    <g id="xtick_7">
     <g id="line2d_7">
      <g>
       <use xlink:href="#m44eac24e96" x="383.52522" y="640.8" style="stroke: #000000; stroke-width: 0.6"/>
      </g>
     </g>
    </g>
    <g id="xtick_8">
     <g id="line2d_8">
      <g>
       <use xlink:href="#m44eac24e96" x="413.903303" y="640.8" style="stroke: #000000; stroke-width: 0.6"/>
      </g>
     </g>
    </g>
    <g id="xtick_9">
     <g id="line2d_9">
      <g>
       <use xlink:href="#m44eac24e96" x="439.587605" y="640.8" style="stroke: #000000; stroke-width: 0.6"/>
      </g>
     </g>
    </g>
    <g id="xtick_10">
     <g id="line2d_10">
      <g>
       <use xlink:href="#m44eac24e96" x="461.83636" y="640.8" style="stroke: #000000; stroke-width: 0.6"/>
      </g>
     </g>
    </g>
    <g id="xtick_11">
     <g id="line2d_11">
      <g>
       <use xlink:href="#m44eac24e96" x="481.461153" y="640.8" style="stroke: #000000; stroke-width: 0.6"/>
      </g>
     </g>
    </g>
    <g id="xtick_12">
     <g id="line2d_12">
      <g>
       <use xlink:href="#m44eac24e96" x="614.507036" y="640.8" style="stroke: #000000; stroke-width: 0.6"/>
      </g>
     </g>
    </g>
   </g>
   <g id="matplotlib.axis_2">
    <g id="ytick_1">
     <g id="line2d_13">
      <defs>
       <path id="m2f04ebec78" d="M 0 0 
L -3.5 0 
" style="stroke: #000000; stroke-width: 0.8"/>
      </defs>
      <g>
       <use xlink:href="#m2f04ebec78" x="90" y="640.8" style="stroke: #000000; stroke-width: 0.8"/>
      </g>
     </g>
     <g id="text_3">
      <!-- 0 -->
      <g transform="translate(76.6375 644.599219)scale(0.1 -0.1)">
       <use xlink:href="#DejaVuSans-30"/>
      </g>
     </g>
    </g>
    <g id="ytick_2">
     <g id="line2d_14">
      <g>
       <use xlink:href="#m2f04ebec78" x="90" y="534.967168" style="stroke: #000000; stroke-width: 0.8"/>
      </g>
     </g>
     <g id="text_4">
      <!-- 1000 -->
      <g transform="translate(57.55 538.766387)scale(0.1 -0.1)">
       <use xlink:href="#DejaVuSans-31"/>
       <use xlink:href="#DejaVuSans-30" x="63.623047"/>
       <use xlink:href="#DejaVuSans-30" x="127.246094"/>
       <use xlink:href="#DejaVuSans-30" x="190.869141"/>
      </g>
     </g>
    </g>
    <g id="ytick_3">
     <g id="line2d_15">
      <g>
       <use xlink:href="#m2f04ebec78" x="90" y="429.134336" style="stroke: #000000; stroke-width: 0.8"/>
      </g>
     </g>
     <g id="text_5">
      <!-- 2000 -->
      <g transform="translate(57.55 432.933554)scale(0.1 -0.1)">
       <defs>
        <path id="DejaVuSans-32" d="M 1228 531 
L 3431 531 
L 3431 0 
L 469 0 
L 469 531 
Q 828 903 1448 1529 
Q 2069 2156 2228 2338 
Q 2531 2678 2651 2914 
Q 2772 3150 2772 3378 
Q 2772 3750 2511 3984 
Q 2250 4219 1831 4219 
Q 1534 4219 1204 4116 
Q 875 4013 500 3803 
L 500 4441 
Q 881 4594 1212 4672 
Q 1544 4750 1819 4750 
Q 2544 4750 2975 4387 
Q 3406 4025 3406 3419 
Q 3406 3131 3298 2873 
Q 3191 2616 2906 2266 
Q 2828 2175 2409 1742 
Q 1991 1309 1228 531 
z
" transform="scale(0.015625)"/>
       </defs>
       <use xlink:href="#DejaVuSans-32"/>
       <use xlink:href="#DejaVuSans-30" x="63.623047"/>
       <use xlink:href="#DejaVuSans-30" x="127.246094"/>
       <use xlink:href="#DejaVuSans-30" x="190.869141"/>
      </g>
     </g>
    </g>
    <g id="ytick_4">
     <g id="line2d_16">
      <g>
       <use xlink:href="#m2f04ebec78" x="90" y="323.301503" style="stroke: #000000; stroke-width: 0.8"/>
      </g>
     </g>
     <g id="text_6">
      <!-- 3000 -->
      <g transform="translate(57.55 327.100722)scale(0.1 -0.1)">
       <defs>
        <path id="DejaVuSans-33" d="M 2597 2516 
Q 3050 2419 3304 2112 
Q 3559 1806 3559 1356 
Q 3559 666 3084 287 
Q 2609 -91 1734 -91 
Q 1441 -91 1130 -33 
Q 819 25 488 141 
L 488 750 
Q 750 597 1062 519 
Q 1375 441 1716 441 
Q 2309 441 2620 675 
Q 2931 909 2931 1356 
Q 2931 1769 2642 2001 
Q 2353 2234 1838 2234 
L 1294 2234 
L 1294 2753 
L 1863 2753 
Q 2328 2753 2575 2939 
Q 2822 3125 2822 3475 
Q 2822 3834 2567 4026 
Q 2313 4219 1838 4219 
Q 1578 4219 1281 4162 
Q 984 4106 628 3988 
L 628 4550 
Q 988 4650 1302 4700 
Q 1616 4750 1894 4750 
Q 2613 4750 3031 4423 
Q 3450 4097 3450 3541 
Q 3450 3153 3228 2886 
Q 3006 2619 2597 2516 
z
" transform="scale(0.015625)"/>
       </defs>
       <use xlink:href="#DejaVuSans-33"/>
       <use xlink:href="#DejaVuSans-30" x="63.623047"/>
       <use xlink:href="#DejaVuSans-30" x="127.246094"/>
       <use xlink:href="#DejaVuSans-30" x="190.869141"/>
      </g>
     </g>
    </g>
    <g id="ytick_5">
     <g id="line2d_17">
      <g>
       <use xlink:href="#m2f04ebec78" x="90" y="217.468671" style="stroke: #000000; stroke-width: 0.8"/>
      </g>
     </g>
     <g id="text_7">
      <!-- 4000 -->
      <g transform="translate(57.55 221.26789)scale(0.1 -0.1)">
       <defs>
        <path id="DejaVuSans-34" d="M 2419 4116 
L 825 1625 
L 2419 1625 
L 2419 4116 
z
M 2253 4666 
L 3047 4666 
L 3047 1625 
L 3713 1625 
L 3713 1100 
L 3047 1100 
L 3047 0 
L 2419 0 
L 2419 1100 
L 313 1100 
L 313 1709 
L 2253 4666 
z
" transform="scale(0.015625)"/>
       </defs>
       <use xlink:href="#DejaVuSans-34"/>
       <use xlink:href="#DejaVuSans-30" x="63.623047"/>
       <use xlink:href="#DejaVuSans-30" x="127.246094"/>
       <use xlink:href="#DejaVuSans-30" x="190.869141"/>
      </g>
     </g>
    </g>
    <g id="ytick_6">
     <g id="line2d_18">
      <g>
       <use xlink:href="#m2f04ebec78" x="90" y="111.635839" style="stroke: #000000; stroke-width: 0.8"/>
      </g>
     </g>
     <g id="text_8">
      <!-- 5000 -->
      <g transform="translate(57.55 115.435058)scale(0.1 -0.1)">
       <defs>
        <path id="DejaVuSans-35" d="M 691 4666 
L 3169 4666 
L 3169 4134 
L 1269 4134 
L 1269 2991 
Q 1406 3038 1543 3061 
Q 1681 3084 1819 3084 
Q 2600 3084 3056 2656 
Q 3513 2228 3513 1497 
Q 3513 744 3044 326 
Q 2575 -91 1722 -91 
Q 1428 -91 1123 -41 
Q 819 9 494 109 
L 494 744 
Q 775 591 1075 516 
Q 1375 441 1709 441 
Q 2250 441 2565 725 
Q 2881 1009 2881 1497 
Q 2881 1984 2565 2268 
Q 2250 2553 1709 2553 
Q 1456 2553 1204 2497 
Q 953 2441 691 2322 
L 691 4666 
z
" transform="scale(0.015625)"/>
       </defs>
       <use xlink:href="#DejaVuSans-35"/>
       <use xlink:href="#DejaVuSans-30" x="63.623047"/>
       <use xlink:href="#DejaVuSans-30" x="127.246094"/>
       <use xlink:href="#DejaVuSans-30" x="190.869141"/>
      </g>
     </g>
    </g>
   </g>
   <g id="patch_110">
    <path d="M 90 640.8 
L 90 86.4 
" style="fill: none; stroke: #000000; stroke-width: 0.8; stroke-linejoin: miter; stroke-linecap: square"/>
   </g>
   <g id="patch_111">
    <path d="M 648 640.8 
L 648 86.4 
" style="fill: none; stroke: #000000; stroke-width: 0.8; stroke-linejoin: miter; stroke-linecap: square"/>
   </g>
   <g id="patch_112">
    <path d="M 90 640.8 
L 648 640.8 
" style="fill: none; stroke: #000000; stroke-width: 0.8; stroke-linejoin: miter; stroke-linecap: square"/>
   </g>
   <g id="patch_113">
    <path d="M 90 86.4 
L 648 86.4 
" style="fill: none; stroke: #000000; stroke-width: 0.8; stroke-linejoin: miter; stroke-linecap: square"/>
   </g>
   <g id="text_9">
    <!-- By length -->
    <g transform="translate(340.300313 80.4)scale(0.12 -0.12)">
     <defs>
      <path id="DejaVuSans-42" d="M 1259 2228 
L 1259 519 
L 2272 519 
Q 2781 519 3026 730 
Q 3272 941 3272 1375 
Q 3272 1813 3026 2020 
Q 2781 2228 2272 2228 
L 1259 2228 
z
M 1259 4147 
L 1259 2741 
L 2194 2741 
Q 2656 2741 2882 2914 
Q 3109 3088 3109 3444 
Q 3109 3797 2882 3972 
Q 2656 4147 2194 4147 
L 1259 4147 
z
M 628 4666 
L 2241 4666 
Q 2963 4666 3353 4366 
Q 3744 4066 3744 3513 
Q 3744 3084 3544 2831 
Q 3344 2578 2956 2516 
Q 3422 2416 3680 2098 
Q 3938 1781 3938 1306 
Q 3938 681 3513 340 
Q 3088 0 2303 0 
L 628 0 
L 628 4666 
z
" transform="scale(0.015625)"/>
      <path id="DejaVuSans-79" d="M 2059 -325 
Q 1816 -950 1584 -1140 
Q 1353 -1331 966 -1331 
L 506 -1331 
L 506 -850 
L 844 -850 
Q 1081 -850 1212 -737 
Q 1344 -625 1503 -206 
L 1606 56 
L 191 3500 
L 800 3500 
L 1894 763 
L 2988 3500 
L 3597 3500 
L 2059 -325 
z
" transform="scale(0.015625)"/>
      <path id="DejaVuSans-20" transform="scale(0.015625)"/>
      <path id="DejaVuSans-6c" d="M 603 4863 
L 1178 4863 
L 1178 0 
L 603 0 
L 603 4863 
z
" transform="scale(0.015625)"/>
      <path id="DejaVuSans-65" d="M 3597 1894 
L 3597 1613 
L 953 1613 
Q 991 1019 1311 708 
Q 1631 397 2203 397 
Q 2534 397 2845 478 
Q 3156 559 3463 722 
L 3463 178 
Q 3153 47 2828 -22 
Q 2503 -91 2169 -91 
Q 1331 -91 842 396 
Q 353 884 353 1716 
Q 353 2575 817 3079 
Q 1281 3584 2069 3584 
Q 2775 3584 3186 3129 
Q 3597 2675 3597 1894 
z
M 3022 2063 
Q 3016 2534 2758 2815 
Q 2500 3097 2075 3097 
Q 1594 3097 1305 2825 
Q 1016 2553 972 2059 
L 3022 2063 
z
" transform="scale(0.015625)"/>
      <path id="DejaVuSans-6e" d="M 3513 2113 
L 3513 0 
L 2938 0 
L 2938 2094 
Q 2938 2591 2744 2837 
Q 2550 3084 2163 3084 
Q 1697 3084 1428 2787 
Q 1159 2491 1159 1978 
L 1159 0 
L 581 0 
L 581 3500 
L 1159 3500 
L 1159 2956 
Q 1366 3272 1645 3428 
Q 1925 3584 2291 3584 
Q 2894 3584 3203 3211 
Q 3513 2838 3513 2113 
z
" transform="scale(0.015625)"/>
      <path id="DejaVuSans-67" d="M 2906 1791 
Q 2906 2416 2648 2759 
Q 2391 3103 1925 3103 
Q 1463 3103 1205 2759 
Q 947 2416 947 1791 
Q 947 1169 1205 825 
Q 1463 481 1925 481 
Q 2391 481 2648 825 
Q 2906 1169 2906 1791 
z
M 3481 434 
Q 3481 -459 3084 -895 
Q 2688 -1331 1869 -1331 
Q 1566 -1331 1297 -1286 
Q 1028 -1241 775 -1147 
L 775 -588 
Q 1028 -725 1275 -790 
Q 1522 -856 1778 -856 
Q 2344 -856 2625 -561 
Q 2906 -266 2906 331 
L 2906 616 
Q 2728 306 2450 153 
Q 2172 0 1784 0 
Q 1141 0 747 490 
Q 353 981 353 1791 
Q 353 2603 747 3093 
Q 1141 3584 1784 3584 
Q 2172 3584 2450 3431 
Q 2728 3278 2906 2969 
L 2906 3500 
L 3481 3500 
L 3481 434 
z
" transform="scale(0.015625)"/>
      <path id="DejaVuSans-74" d="M 1172 4494 
L 1172 3500 
L 2356 3500 
L 2356 3053 
L 1172 3053 
L 1172 1153 
Q 1172 725 1289 603 
Q 1406 481 1766 481 
L 2356 481 
L 2356 0 
L 1766 0 
Q 1100 0 847 248 
Q 594 497 594 1153 
L 594 3053 
L 172 3053 
L 172 3500 
L 594 3500 
L 594 4494 
L 1172 4494 
z
" transform="scale(0.015625)"/>
      <path id="DejaVuSans-68" d="M 3513 2113 
L 3513 0 
L 2938 0 
L 2938 2094 
Q 2938 2591 2744 2837 
Q 2550 3084 2163 3084 
Q 1697 3084 1428 2787 
Q 1159 2491 1159 1978 
L 1159 0 
L 581 0 
L 581 4863 
L 1159 4863 
L 1159 2956 
Q 1366 3272 1645 3428 
Q 1925 3584 2291 3584 
Q 2894 3584 3203 3211 
Q 3513 2838 3513 2113 
z
" transform="scale(0.015625)"/>
     </defs>
     <use xlink:href="#DejaVuSans-42"/>
     <use xlink:href="#DejaVuSans-79" x="68.603516"/>
     <use xlink:href="#DejaVuSans-20" x="127.783203"/>
     <use xlink:href="#DejaVuSans-6c" x="159.570312"/>
     <use xlink:href="#DejaVuSans-65" x="187.353516"/>
     <use xlink:href="#DejaVuSans-6e" x="248.876953"/>
     <use xlink:href="#DejaVuSans-67" x="312.255859"/>
     <use xlink:href="#DejaVuSans-74" x="375.732422"/>
     <use xlink:href="#DejaVuSans-68" x="414.941406"/>
    </g>
   </g>
  </g>
 </g>
 <defs>
  <clipPath id="p64c36032fd">
   <rect x="90" y="86.4" width="558" height="554.4"/>
  </clipPath>
 </defs>
</svg>
